<?xml version="1.0" encoding="UTF-8" standalone="no"?>
<!DOCTYPE svg PUBLIC "-//W3C//DTD SVG 1.1//EN" "http://www.w3.org/Graphics/SVG/1.1/DTD/svg11.dtd">
<svg width="100%" height="100%" viewBox="0 0 10000 726" version="1.1" xmlns="http://www.w3.org/2000/svg" xmlns:xlink="http://www.w3.org/1999/xlink" xml:space="preserve" xmlns:serif="http://www.serif.com/" style="fill-rule:evenodd;clip-rule:evenodd;stroke-linejoin:round;stroke-miterlimit:2;">
    <g id="mountain-right" serif:id="mountain right" transform="matrix(1,0,0,1,3,-104.381)">
        <g transform="matrix(2.50994,0,0,2.50906,-28.0994,79.2906)">
            <path d="M504.329,231.874L509.996,299.127L848.386,299.127L829.885,210.333L817.55,206.169L806.304,203.366L796.147,203.288L781.905,211.925L778.986,217.908L775.791,221.591L771.145,227.956L764.594,231.584L761.733,224.772L757.137,221.585L747.34,221.865L720.834,223.481L698.643,228.234L687.167,227.879L665.848,231.567L654.365,230.148L635.317,226.459L618.349,220.5L611.973,223.432L603.706,219.932L593.784,228.092L585.431,229.193L576.686,238.922L573.432,236.885L564.295,239.947L551.627,235.556L526.409,235.872L504.329,231.874Z" style="fill:rgb(103,103,103);fill-rule:nonzero;"/>
        </g>
        <g transform="matrix(2.50994,0,0,2.50906,-28.0994,79.2906)">
            <path d="M829.885,210.333L830.986,299.127L1006.04,299.127L1006.04,152.788L987.187,157.178L916.949,177.962L912.756,181.406L907.775,178.546L902.951,177.734L893.398,178.184L886.582,183.409L877.787,187.144L870.082,192.785L852.299,201.423L829.885,210.333Z" style="fill:rgb(191,191,191);fill-rule:nonzero;"/>
        </g>
        <path d="M2004.9,633.202L1868.29,690.741L1777.83,777.658L1702.72,829.817L2112.94,829.805L2168.99,791.397L2105.4,732.578L2149.07,694.461L2221.55,663.531L2055.25,615.439L2004.9,633.202Z" style="fill:rgb(78,78,78);"/>
    </g>
    <g id="mountain-left" serif:id="mountain left" transform="matrix(2.50994,0,0,2.50906,-25.0994,-25.0906)">
        <path id="mountain" d="M179.524,103.334L169.315,126.339L159.479,147.341L156.421,159.872L140.937,171.838L127.147,177.591L10,299.127L648.661,299.127L645.67,295.588L637.119,290.912L610.429,276.826L607.258,277.115L600.017,269.309L592.179,269.023L584.084,270.496L564.333,270.414L553.932,271.513L550.612,268.765L475.58,240.035L395.663,172.102L370.12,154.482L347.39,138.269L341.067,130.493L330.681,121.935L328.42,125.253L314.284,114.508L308.94,84.103L282.932,45.875L247.511,10L236.33,26.202L234.17,46.718L206.907,73.51L196.118,92.065L179.524,103.334Z" style="fill:rgb(78,78,78);fill-rule:nonzero;"/>
        <path d="M369.135,201.329L381.027,210.286L390.028,221.285L408.394,227.452L425.809,230.69L444.377,245.114L424.995,242.89L443.555,261.587L450.51,261.233L455.414,259.052L462.414,263.383L467.48,268.808L480.634,263.979L503.997,264.583L507.657,261.543L518.843,261.153L528.547,263.483L534.136,267.917L546.575,270.551L550.703,268.846L554.085,271.632L569.922,270.169L561.735,263.972L569.217,259.049L556.148,253.726L541.186,258.755L522.043,255.397L512.42,244.782L526.29,241.92L526.409,235.872L504.329,231.874L475.58,240.035L395.663,172.102L370.12,154.482L347.39,138.269L341.067,130.493L330.681,121.935L328.42,125.253L333.044,144.782L353.008,170.5L369.135,201.329Z" style="fill:rgb(167,167,167);fill-rule:nonzero;"/>
        <path id="peak-right" serif:id="peak right" d="M183.156,137.45L179.645,172.839L211.151,165.895L208.703,178.131L254.667,162.433L263.363,171.618L271.421,162.773L296.324,174.395L330.292,162.219L314.284,114.508L308.94,84.103L282.932,45.875L247.511,10L244.972,38.088L217.427,77.515L217.709,101.065L183.156,137.45Z" style="fill:rgb(152,152,152);fill-rule:nonzero;"/>
        <path id="peak-left" serif:id="peak left" d="M179.524,103.334L169.315,126.339L159.479,147.341L156.421,159.872L140.937,171.838L127.147,177.591L128.823,196.687L167.111,193.508L188.721,170.671L192.501,145.842L197.863,133.936L237.84,100.038L227.485,71.129L245.062,48.156L261.467,39.85L247.511,10L236.33,26.202L234.17,46.718L206.907,73.51L196.118,92.065L179.524,103.334Z" style="fill:rgb(125,125,125);fill-rule:nonzero;"/>
    </g>
    <g id="mountain-right1" serif:id="mountain right" transform="matrix(-1,0,0,1,4997,-104.381)">
        <g transform="matrix(2.50994,0,0,2.50906,-28.0994,79.2906)">
            <path d="M504.329,231.874L509.996,299.127L848.386,299.127L829.885,210.333L817.55,206.169L806.304,203.366L796.147,203.288L781.905,211.925L778.986,217.908L775.791,221.591L771.145,227.956L764.594,231.584L761.733,224.772L757.137,221.585L747.34,221.865L720.834,223.481L698.643,228.234L687.167,227.879L665.848,231.567L654.365,230.148L635.317,226.459L618.349,220.5L611.973,223.432L603.706,219.932L593.784,228.092L585.431,229.193L576.686,238.922L573.432,236.885L564.295,239.947L551.627,235.556L526.409,235.872L504.329,231.874Z" style="fill:rgb(103,103,103);fill-rule:nonzero;"/>
        </g>
        <g transform="matrix(2.50994,0,0,2.50906,-28.0994,79.2906)">
            <path d="M829.885,210.333L830.986,299.127L1006.04,299.127L1006.04,152.788L987.187,157.178L916.949,177.962L912.756,181.406L907.775,178.546L902.951,177.734L893.398,178.184L886.582,183.409L877.787,187.144L870.082,192.785L852.299,201.423L829.885,210.333Z" style="fill:rgb(191,191,191);fill-rule:nonzero;"/>
        </g>
        <path d="M2004.9,633.202L1868.29,690.741L1777.83,777.658L1702.72,829.817L2112.94,829.805L2168.99,791.397L2105.4,732.578L2149.07,694.461L2221.55,663.531L2055.25,615.439L2004.9,633.202Z" style="fill:rgb(78,78,78);"/>
    </g>
    <g id="mountain-left1" serif:id="mountain left" transform="matrix(-2.50994,0,0,2.50906,5025.1,-25.0906)">
        <path id="mountain1" serif:id="mountain" d="M179.524,103.334L169.315,126.339L159.479,147.341L156.421,159.872L140.937,171.838L127.147,177.591L10,299.127L648.661,299.127L645.67,295.588L637.119,290.912L610.429,276.826L607.258,277.115L600.017,269.309L592.179,269.023L584.084,270.496L564.333,270.414L553.932,271.513L550.612,268.765L475.58,240.035L395.663,172.102L370.12,154.482L347.39,138.269L341.067,130.493L330.681,121.935L328.42,125.253L314.284,114.508L308.94,84.103L282.932,45.875L247.511,10L236.33,26.202L234.17,46.718L206.907,73.51L196.118,92.065L179.524,103.334Z" style="fill:rgb(78,78,78);fill-rule:nonzero;"/>
        <path d="M369.135,201.329L381.027,210.286L390.028,221.285L408.394,227.452L425.809,230.69L444.377,245.114L424.995,242.89L443.555,261.587L450.51,261.233L455.414,259.052L462.414,263.383L467.48,268.808L480.634,263.979L503.997,264.583L507.657,261.543L518.843,261.153L528.547,263.483L534.136,267.917L546.575,270.551L550.703,268.846L554.085,271.632L569.922,270.169L561.735,263.972L569.217,259.049L556.148,253.726L541.186,258.755L522.043,255.397L512.42,244.782L526.29,241.92L526.409,235.872L504.329,231.874L475.58,240.035L395.663,172.102L370.12,154.482L347.39,138.269L341.067,130.493L330.681,121.935L328.42,125.253L333.044,144.782L353.008,170.5L369.135,201.329Z" style="fill:rgb(167,167,167);fill-rule:nonzero;"/>
        <path id="peak-right1" serif:id="peak right" d="M183.156,137.45L179.645,172.839L211.151,165.895L208.703,178.131L254.667,162.433L263.363,171.618L271.421,162.773L296.324,174.395L330.292,162.219L314.284,114.508L308.94,84.103L282.932,45.875L247.511,10L244.972,38.088L217.427,77.515L217.709,101.065L183.156,137.45Z" style="fill:rgb(152,152,152);fill-rule:nonzero;"/>
        <path id="peak-left1" serif:id="peak left" d="M179.524,103.334L169.315,126.339L159.479,147.341L156.421,159.872L140.937,171.838L127.147,177.591L128.823,196.687L167.111,193.508L188.721,170.671L192.501,145.842L197.863,133.936L237.84,100.038L227.485,71.129L245.062,48.156L261.467,39.85L247.511,10L236.33,26.202L234.17,46.718L206.907,73.51L196.118,92.065L179.524,103.334Z" style="fill:rgb(125,125,125);fill-rule:nonzero;"/>
    </g>
    <g id="mountain-right2" serif:id="mountain right" transform="matrix(1,0,0,1,5003,-104.381)">
        <g transform="matrix(2.50994,0,0,2.50906,-28.0994,79.2906)">
            <path d="M504.329,231.874L509.996,299.127L848.386,299.127L829.885,210.333L817.55,206.169L806.304,203.366L796.147,203.288L781.905,211.925L778.986,217.908L775.791,221.591L771.145,227.956L764.594,231.584L761.733,224.772L757.137,221.585L747.34,221.865L720.834,223.481L698.643,228.234L687.167,227.879L665.848,231.567L654.365,230.148L635.317,226.459L618.349,220.5L611.973,223.432L603.706,219.932L593.784,228.092L585.431,229.193L576.686,238.922L573.432,236.885L564.295,239.947L551.627,235.556L526.409,235.872L504.329,231.874Z" style="fill:rgb(103,103,103);fill-rule:nonzero;"/>
        </g>
        <g transform="matrix(2.50994,0,0,2.50906,-28.0994,79.2906)">
            <path d="M829.885,210.333L830.986,299.127L1006.04,299.127L1006.04,152.788L987.187,157.178L916.949,177.962L912.756,181.406L907.775,178.546L902.951,177.734L893.398,178.184L886.582,183.409L877.787,187.144L870.082,192.785L852.299,201.423L829.885,210.333Z" style="fill:rgb(191,191,191);fill-rule:nonzero;"/>
        </g>
        <path d="M2004.9,633.202L1868.29,690.741L1777.83,777.658L1702.72,829.817L2112.94,829.805L2168.99,791.397L2105.4,732.578L2149.07,694.461L2221.55,663.531L2055.25,615.439L2004.9,633.202Z" style="fill:rgb(78,78,78);"/>
    </g>
    <g id="mountain-left2" serif:id="mountain left" transform="matrix(2.50994,0,0,2.50906,4974.9,-25.0906)">
        <path id="mountain2" serif:id="mountain" d="M179.524,103.334L169.315,126.339L159.479,147.341L156.421,159.872L140.937,171.838L127.147,177.591L10,299.127L648.661,299.127L645.67,295.588L637.119,290.912L610.429,276.826L607.258,277.115L600.017,269.309L592.179,269.023L584.084,270.496L564.333,270.414L553.932,271.513L550.612,268.765L475.58,240.035L395.663,172.102L370.12,154.482L347.39,138.269L341.067,130.493L330.681,121.935L328.42,125.253L314.284,114.508L308.94,84.103L282.932,45.875L247.511,10L236.33,26.202L234.17,46.718L206.907,73.51L196.118,92.065L179.524,103.334Z" style="fill:rgb(78,78,78);fill-rule:nonzero;"/>
        <path d="M369.135,201.329L381.027,210.286L390.028,221.285L408.394,227.452L425.809,230.69L444.377,245.114L424.995,242.89L443.555,261.587L450.51,261.233L455.414,259.052L462.414,263.383L467.48,268.808L480.634,263.979L503.997,264.583L507.657,261.543L518.843,261.153L528.547,263.483L534.136,267.917L546.575,270.551L550.703,268.846L554.085,271.632L569.922,270.169L561.735,263.972L569.217,259.049L556.148,253.726L541.186,258.755L522.043,255.397L512.42,244.782L526.29,241.92L526.409,235.872L504.329,231.874L475.58,240.035L395.663,172.102L370.12,154.482L347.39,138.269L341.067,130.493L330.681,121.935L328.42,125.253L333.044,144.782L353.008,170.5L369.135,201.329Z" style="fill:rgb(167,167,167);fill-rule:nonzero;"/>
        <path id="peak-right2" serif:id="peak right" d="M183.156,137.45L179.645,172.839L211.151,165.895L208.703,178.131L254.667,162.433L263.363,171.618L271.421,162.773L296.324,174.395L330.292,162.219L314.284,114.508L308.94,84.103L282.932,45.875L247.511,10L244.972,38.088L217.427,77.515L217.709,101.065L183.156,137.45Z" style="fill:rgb(152,152,152);fill-rule:nonzero;"/>
        <path id="peak-left2" serif:id="peak left" d="M179.524,103.334L169.315,126.339L159.479,147.341L156.421,159.872L140.937,171.838L127.147,177.591L128.823,196.687L167.111,193.508L188.721,170.671L192.501,145.842L197.863,133.936L237.84,100.038L227.485,71.129L245.062,48.156L261.467,39.85L247.511,10L236.33,26.202L234.17,46.718L206.907,73.51L196.118,92.065L179.524,103.334Z" style="fill:rgb(125,125,125);fill-rule:nonzero;"/>
    </g>
    <g id="mountain-right3" serif:id="mountain right" transform="matrix(-1,0,0,1,9997,-104.381)">
        <g transform="matrix(2.50994,0,0,2.50906,-28.0994,79.2906)">
            <path d="M504.329,231.874L509.996,299.127L848.386,299.127L829.885,210.333L817.55,206.169L806.304,203.366L796.147,203.288L781.905,211.925L778.986,217.908L775.791,221.591L771.145,227.956L764.594,231.584L761.733,224.772L757.137,221.585L747.34,221.865L720.834,223.481L698.643,228.234L687.167,227.879L665.848,231.567L654.365,230.148L635.317,226.459L618.349,220.5L611.973,223.432L603.706,219.932L593.784,228.092L585.431,229.193L576.686,238.922L573.432,236.885L564.295,239.947L551.627,235.556L526.409,235.872L504.329,231.874Z" style="fill:rgb(103,103,103);fill-rule:nonzero;"/>
        </g>
        <g transform="matrix(2.50994,0,0,2.50906,-28.0994,79.2906)">
            <path d="M829.885,210.333L830.986,299.127L1006.04,299.127L1006.04,152.788L987.187,157.178L916.949,177.962L912.756,181.406L907.775,178.546L902.951,177.734L893.398,178.184L886.582,183.409L877.787,187.144L870.082,192.785L852.299,201.423L829.885,210.333Z" style="fill:rgb(191,191,191);fill-rule:nonzero;"/>
        </g>
        <path d="M2004.9,633.202L1868.29,690.741L1777.83,777.658L1702.72,829.817L2112.94,829.805L2168.99,791.397L2105.4,732.578L2149.07,694.461L2221.55,663.531L2055.25,615.439L2004.9,633.202Z" style="fill:rgb(78,78,78);"/>
    </g>
    <g id="mountain-left3" serif:id="mountain left" transform="matrix(-2.50994,0,0,2.50906,10025.1,-25.0906)">
        <path id="mountain3" serif:id="mountain" d="M179.524,103.334L169.315,126.339L159.479,147.341L156.421,159.872L140.937,171.838L127.147,177.591L10,299.127L648.661,299.127L645.67,295.588L637.119,290.912L610.429,276.826L607.258,277.115L600.017,269.309L592.179,269.023L584.084,270.496L564.333,270.414L553.932,271.513L550.612,268.765L475.58,240.035L395.663,172.102L370.12,154.482L347.39,138.269L341.067,130.493L330.681,121.935L328.42,125.253L314.284,114.508L308.94,84.103L282.932,45.875L247.511,10L236.33,26.202L234.17,46.718L206.907,73.51L196.118,92.065L179.524,103.334Z" style="fill:rgb(78,78,78);fill-rule:nonzero;"/>
        <path d="M369.135,201.329L381.027,210.286L390.028,221.285L408.394,227.452L425.809,230.69L444.377,245.114L424.995,242.89L443.555,261.587L450.51,261.233L455.414,259.052L462.414,263.383L467.48,268.808L480.634,263.979L503.997,264.583L507.657,261.543L518.843,261.153L528.547,263.483L534.136,267.917L546.575,270.551L550.703,268.846L554.085,271.632L569.922,270.169L561.735,263.972L569.217,259.049L556.148,253.726L541.186,258.755L522.043,255.397L512.42,244.782L526.29,241.92L526.409,235.872L504.329,231.874L475.58,240.035L395.663,172.102L370.12,154.482L347.39,138.269L341.067,130.493L330.681,121.935L328.42,125.253L333.044,144.782L353.008,170.5L369.135,201.329Z" style="fill:rgb(167,167,167);fill-rule:nonzero;"/>
        <path id="peak-right3" serif:id="peak right" d="M183.156,137.45L179.645,172.839L211.151,165.895L208.703,178.131L254.667,162.433L263.363,171.618L271.421,162.773L296.324,174.395L330.292,162.219L314.284,114.508L308.94,84.103L282.932,45.875L247.511,10L244.972,38.088L217.427,77.515L217.709,101.065L183.156,137.45Z" style="fill:rgb(152,152,152);fill-rule:nonzero;"/>
        <path id="peak-left3" serif:id="peak left" d="M179.524,103.334L169.315,126.339L159.479,147.341L156.421,159.872L140.937,171.838L127.147,177.591L128.823,196.687L167.111,193.508L188.721,170.671L192.501,145.842L197.863,133.936L237.84,100.038L227.485,71.129L245.062,48.156L261.467,39.85L247.511,10L236.33,26.202L234.17,46.718L206.907,73.51L196.118,92.065L179.524,103.334Z" style="fill:rgb(125,125,125);fill-rule:nonzero;"/>
    </g>
</svg>
