<?xml version="1.0" encoding="UTF-8" standalone="no"?>
<!DOCTYPE svg PUBLIC "-//W3C//DTD SVG 1.1//EN" "http://www.w3.org/Graphics/SVG/1.1/DTD/svg11.dtd">
<svg width="100%" height="100%" viewBox="0 0 2842 1380" version="1.1" xmlns="http://www.w3.org/2000/svg" xmlns:xlink="http://www.w3.org/1999/xlink" xml:space="preserve" xmlns:serif="http://www.serif.com/" style="fill-rule:evenodd;clip-rule:evenodd;stroke-linejoin:round;stroke-miterlimit:2;">
    <g id="floating-islands" serif:id="floating islands" transform="matrix(1,0,0,1,-6600,-870)">
        <path d="M9442,1050L6600,1050L6600,1240L6660,1340L6800,1460L6980.44,1645.79L7120,1740L7300,1850L7560,1780L7630,1640L7770,1610L7960,1500L8107,1298.84L8120,1260L8140,1298.84L8220,1370L8300,1500L8370,1540L8520,1672.09L8620,1550L8670,1530L8750,1490L8820,1500L8880,1490L8910,1510L8980,1447.69L9140,1380L9240,1420L9320,1370L9370,1300L9430,1180L9442,1050Z" style="fill:rgb(114,114,114);"/>
        <path d="M9430,1180L9340,1300L9241.4,1370L9140,1350L9060,1397.5L8990,1410L8940,1440L8820,1460L8720,1468.43L8611.52,1500L8550,1580L8510,1590L8320,1468.43L8220,1347.92L8140,1298.84L8220,1370L8300,1500L8370,1540L8520,1672.09L8620,1550L8670,1530L8750,1490L8820,1500L8880,1490L8910,1510L8980,1447.69L9140,1380L9240,1420L9320,1370L9370,1300L9430,1180Z" style="fill:rgb(98,98,98);"/>
        <path d="M9440,1050L8140,1130L8120,1170L8160,1210L8240,1240L8320,1340L8394.85,1385.74L8480,1450L8620,1400L8700,1380L8770,1360L8840,1360L8897.71,1340L8950,1347.92L9000,1317.69L9060,1271.8L9160,1250L9260,1260L9340,1210L9404.59,1145L9439.46,1057L9440,1050Z" style="fill:rgb(121,121,121);"/>
        <path d="M7960,1500L7700,1580L7600,1600L7490,1740L7380,1700L7290,1720L7160,1690L6860,1520L6980.44,1645.79L7120,1740L7300,1850L7560,1780L7630,1640L7770,1610L7960,1500Z" style="fill:rgb(98,98,98);"/>
        <path d="M8120,1169L6600,1050L6600,1070L6740,1220L6820,1270L7000,1340L7160,1500L7300,1610L7410,1640L7460,1470L7660,1400L7880,1347.5L7970,1290L8060,1230L8120,1169Z" style="fill:rgb(121,121,121);"/>
        <path d="M6800,1460L6860,1521.78L6780,1400L6738.45,1345L6730,1313.34L6710,1270L6717.4,1204.86L6740,1140L6600,1050L6600,1240L6660,1340L6800,1460Z" style="fill:rgb(131,131,131);"/>
        <path d="M9442,1050L6600,1050L6600,1080L6604,1083L6617,1106L6634,1104L6646,1121L6675,1122L6689,1153L6725,1145L6825,1230L6890,1210L6980,1220L7070,1270L7130,1250L7150,1264.34L7194.05,1250.89L7250,1270L7275.89,1370L7360,1490L7300,1350L7334.16,1262.73L7420,1230L7590,1240.62L7640,1220L7720,1216.19L7760,1207.14L7832.79,1200L7910,1207.14L7980,1203.81L7990,1216.19L7990,1234.47L8020,1201.9L8080,1200L8120,1169L8160,1200L8200,1203.45L8230,1200L8280,1210.35L8304.66,1190L8340,1215.52L8410,1221.55L8420,1234.47L8480,1220L8540,1260L8560,1240.62L8660,1260L8740,1250L8830,1230L8910,1240L8960,1221.89L9000,1207.14L9030,1217.53L9080,1214.41L9120,1200L9150.67,1210L9180,1195.07L9220,1200L9240,1180L9300,1200L9310,1190L9333,1174L9344,1169L9352.46,1151L9361,1135L9372.77,1127L9393.5,1102.5L9395.5,1104.5L9396,1108L9398.15,1097L9409,1086L9420,1081L9426.78,1069L9433,1066L9437,1059L9440,1056L9442,1050Z" style="fill:rgb(84,84,84);"/>
        <path d="M7701.35,907.774L7490,895L7190,900L7023.19,907.774L6892.34,938.472L6600,1050L6627.94,1072.6L6655,1090L6685,1105L6705,1110L6710,1120L6740,1140L6830.28,1160L6900,1155L6972.14,1169.02L7060,1180L7160,1180L7273.94,1190L7410,1190L7509.23,1180L7534.71,1190L7560,1180L7606.25,1190L7668.48,1180L7700,1180L7734.83,1184.17L7840,1179.4L7870,1172.82L7905,1171.23L7945,1174.63L8020,1171.23L8120,1150L8180,1171.08L8243.91,1174.63L8280,1169.02L8320,1171.23L8334.34,1179.66L8386.07,1177.17L8426.07,1179.4L8520,1190L8580,1200L8700,1194.32L8800,1200L8900,1190L8980,1177.17L9051.72,1190L9100,1176.38L9145.28,1171.08L9175,1160L9210,1163.51L9240,1160L9308,1165L9334.86,1150L9350,1126.03L9369.44,1113.75L9373.98,1110L9380,1093.29L9394.22,1083.35L9415,1070L9420,1064L9434,1059L9442,1050L9242.34,962.794L9010,927.344L8770,915L8517.66,932.462L8232.34,956.115L8175.78,962.794L8137.34,983.472L8082.34,947.76L8052.34,945L7940.91,939.882L7701.35,907.774Z" style="fill:rgb(145,234,112);"/>
    </g>
    <g transform="matrix(1,0,0,1,-6564.18,-810)">
        <g id="grass-3" serif:id="grass 3" transform="matrix(0.791552,0,0,0.791552,3102.22,-170.66)">
            <g transform="matrix(2.31982,0,0,3.63006,-6281.42,-3431.54)">
                <path d="M4794.08,1293.56L4780.68,1307.84L4781.42,1320.29L4792.59,1320.29L4788.37,1306.4L4794.08,1293.56Z" style="fill:rgb(44,75,20);"/>
            </g>
            <g transform="matrix(2.31982,0,0,3.63006,-6224.08,-3425.06)">
                <path d="M4794.08,1293.56L4780.68,1307.84L4781.42,1320.29L4792.59,1320.29L4788.37,1306.4L4794.08,1293.56Z" style="fill:rgb(56,98,23);"/>
            </g>
            <g transform="matrix(-2.31982,0,0,3.63006,15959.8,-3392.23)">
                <path d="M4794.08,1293.56L4780.68,1307.84L4781.42,1320.29L4792.59,1320.29L4788.37,1306.4L4794.08,1293.56Z" style="fill:rgb(81,142,34);"/>
            </g>
            <g transform="matrix(-2.31982,0,0,3.63006,15924.6,-3381.78)">
                <path d="M4794.08,1293.56L4780.68,1307.84L4781.42,1320.29L4792.59,1320.29L4788.37,1306.4L4794.08,1293.56Z" style="fill:rgb(110,191,45);"/>
            </g>
            <g transform="matrix(2.31982,0,0,3.63006,-6202.82,-3400.81)">
                <path d="M4794.08,1293.56L4780.68,1307.84L4781.42,1320.29L4792.59,1320.29L4788.37,1306.4L4794.08,1293.56Z" style="fill:rgb(92,161,38);"/>
            </g>
            <g transform="matrix(2.31982,0,0,3.63006,-6275.19,-3351.68)">
                <path d="M4794.08,1293.56L4780.68,1307.84L4781.42,1320.29L4792.59,1320.29L4788.37,1306.4L4794.08,1293.56Z" style="fill:rgb(145,216,90);"/>
            </g>
            <g transform="matrix(-2.31982,0,0,3.63006,15993.4,-3361.51)">
                <path d="M4794.08,1293.56L4780.68,1307.84L4781.42,1320.29L4792.59,1320.29L4788.37,1306.4L4794.08,1293.56Z" style="fill:rgb(128,210,64);"/>
            </g>
        </g>
        <g id="grass-31" serif:id="grass 3" transform="matrix(0.791552,0,0,0.791552,4530.86,-180.66)">
            <g transform="matrix(2.31982,0,0,3.63006,-6281.42,-3431.54)">
                <path d="M4794.08,1293.56L4780.68,1307.84L4781.42,1320.29L4792.59,1320.29L4788.37,1306.4L4794.08,1293.56Z" style="fill:rgb(44,75,20);"/>
            </g>
            <g transform="matrix(2.31982,0,0,3.63006,-6224.08,-3425.06)">
                <path d="M4794.08,1293.56L4780.68,1307.84L4781.42,1320.29L4792.59,1320.29L4788.37,1306.4L4794.08,1293.56Z" style="fill:rgb(56,98,23);"/>
            </g>
            <g transform="matrix(-2.31982,0,0,3.63006,15959.8,-3392.23)">
                <path d="M4794.08,1293.56L4780.68,1307.84L4781.42,1320.29L4792.59,1320.29L4788.37,1306.4L4794.08,1293.56Z" style="fill:rgb(81,142,34);"/>
            </g>
            <g transform="matrix(-2.31982,0,0,3.63006,15924.6,-3381.78)">
                <path d="M4794.08,1293.56L4780.68,1307.84L4781.42,1320.29L4792.59,1320.29L4788.37,1306.4L4794.08,1293.56Z" style="fill:rgb(110,191,45);"/>
            </g>
            <g transform="matrix(2.31982,0,0,3.63006,-6202.82,-3400.81)">
                <path d="M4794.08,1293.56L4780.68,1307.84L4781.42,1320.29L4792.59,1320.29L4788.37,1306.4L4794.08,1293.56Z" style="fill:rgb(92,161,38);"/>
            </g>
            <g transform="matrix(2.31982,0,0,3.63006,-6275.19,-3351.68)">
                <path d="M4794.08,1293.56L4780.68,1307.84L4781.42,1320.29L4792.59,1320.29L4788.37,1306.4L4794.08,1293.56Z" style="fill:rgb(145,216,90);"/>
            </g>
            <g transform="matrix(-2.31982,0,0,3.63006,15993.4,-3361.51)">
                <path d="M4794.08,1293.56L4780.68,1307.84L4781.42,1320.29L4792.59,1320.29L4788.37,1306.4L4794.08,1293.56Z" style="fill:rgb(128,210,64);"/>
            </g>
        </g>
        <g id="grass-32" serif:id="grass 3" transform="matrix(0.791552,0,0,0.791552,4098.04,-120.66)">
            <g transform="matrix(2.31982,0,0,3.63006,-6281.42,-3431.54)">
                <path d="M4794.08,1293.56L4780.68,1307.84L4781.42,1320.29L4792.59,1320.29L4788.37,1306.4L4794.08,1293.56Z" style="fill:rgb(44,75,20);"/>
            </g>
            <g transform="matrix(2.31982,0,0,3.63006,-6224.08,-3425.06)">
                <path d="M4794.08,1293.56L4780.68,1307.84L4781.42,1320.29L4792.59,1320.29L4788.37,1306.4L4794.08,1293.56Z" style="fill:rgb(56,98,23);"/>
            </g>
            <g transform="matrix(-2.31982,0,0,3.63006,15959.8,-3392.23)">
                <path d="M4794.08,1293.56L4780.68,1307.84L4781.42,1320.29L4792.59,1320.29L4788.37,1306.4L4794.08,1293.56Z" style="fill:rgb(81,142,34);"/>
            </g>
            <g transform="matrix(-2.31982,0,0,3.63006,15924.6,-3381.78)">
                <path d="M4794.08,1293.56L4780.68,1307.84L4781.42,1320.29L4792.59,1320.29L4788.37,1306.4L4794.08,1293.56Z" style="fill:rgb(110,191,45);"/>
            </g>
            <g transform="matrix(2.31982,0,0,3.63006,-6202.82,-3400.81)">
                <path d="M4794.08,1293.56L4780.68,1307.84L4781.42,1320.29L4792.59,1320.29L4788.37,1306.4L4794.08,1293.56Z" style="fill:rgb(92,161,38);"/>
            </g>
            <g transform="matrix(2.31982,0,0,3.63006,-6275.19,-3351.68)">
                <path d="M4794.08,1293.56L4780.68,1307.84L4781.42,1320.29L4792.59,1320.29L4788.37,1306.4L4794.08,1293.56Z" style="fill:rgb(145,216,90);"/>
            </g>
            <g transform="matrix(-2.31982,0,0,3.63006,15993.4,-3361.51)">
                <path d="M4794.08,1293.56L4780.68,1307.84L4781.42,1320.29L4792.59,1320.29L4788.37,1306.4L4794.08,1293.56Z" style="fill:rgb(128,210,64);"/>
            </g>
        </g>
        <g id="grass-2" serif:id="grass 2" transform="matrix(0.791552,0,0,0.791552,3719.57,-189.105)">
            <g transform="matrix(-2.31982,0,0,3.63006,15927.8,-3433.5)">
                <path d="M4794.08,1293.56L4780.68,1307.84L4781.42,1320.29L4792.59,1320.29L4788.37,1306.4L4794.08,1293.56Z" style="fill:rgb(44,75,20);"/>
            </g>
            <g transform="matrix(2.31982,0,0,3.63006,-6224.08,-3425.06)">
                <path d="M4794.08,1293.56L4780.68,1307.84L4781.42,1320.29L4792.59,1320.29L4788.37,1306.4L4794.08,1293.56Z" style="fill:rgb(56,98,23);"/>
            </g>
            <g transform="matrix(-2.31982,0,0,3.63006,15961.7,-3402.15)">
                <path d="M4794.08,1293.56L4780.68,1307.84L4781.42,1320.29L4792.59,1320.29L4788.37,1306.4L4794.08,1293.56Z" style="fill:rgb(81,142,34);"/>
            </g>
            <g transform="matrix(2.31982,0,0,3.63006,-6289.07,-3385)">
                <path d="M4794.08,1293.56L4780.68,1307.84L4781.42,1320.29L4792.59,1320.29L4788.37,1306.4L4794.08,1293.56Z" style="fill:rgb(110,191,45);"/>
            </g>
            <g transform="matrix(2.31982,0,0,3.63006,-6208.54,-3389.37)">
                <path d="M4794.08,1293.56L4780.68,1307.84L4781.42,1320.29L4792.59,1320.29L4788.37,1306.4L4794.08,1293.56Z" style="fill:rgb(92,161,38);"/>
            </g>
            <g transform="matrix(2.31982,0,0,3.63006,-6278.63,-3353.65)">
                <path d="M4794.08,1293.56L4780.68,1307.84L4781.42,1320.29L4792.59,1320.29L4788.37,1306.4L4794.08,1293.56Z" style="fill:rgb(145,216,90);"/>
            </g>
            <g transform="matrix(-2.31982,0,0,3.63006,15972.1,-3371.18)">
                <path d="M4794.08,1293.56L4780.68,1307.84L4781.42,1320.29L4792.59,1320.29L4788.37,1306.4L4794.08,1293.56Z" style="fill:rgb(144,215,87);"/>
            </g>
        </g>
        <g id="grass-21" serif:id="grass 2" transform="matrix(0.791552,0,0,0.791552,4903.75,-39.1049)">
            <g transform="matrix(-2.31982,0,0,3.63006,15927.8,-3433.5)">
                <path d="M4794.08,1293.56L4780.68,1307.84L4781.42,1320.29L4792.59,1320.29L4788.37,1306.4L4794.08,1293.56Z" style="fill:rgb(44,75,20);"/>
            </g>
            <g transform="matrix(2.31982,0,0,3.63006,-6224.08,-3425.06)">
                <path d="M4794.08,1293.56L4780.68,1307.84L4781.42,1320.29L4792.59,1320.29L4788.37,1306.4L4794.08,1293.56Z" style="fill:rgb(56,98,23);"/>
            </g>
            <g transform="matrix(-2.31982,0,0,3.63006,15961.7,-3402.15)">
                <path d="M4794.08,1293.56L4780.68,1307.84L4781.42,1320.29L4792.59,1320.29L4788.37,1306.4L4794.08,1293.56Z" style="fill:rgb(81,142,34);"/>
            </g>
            <g transform="matrix(2.31982,0,0,3.63006,-6289.07,-3385)">
                <path d="M4794.08,1293.56L4780.68,1307.84L4781.42,1320.29L4792.59,1320.29L4788.37,1306.4L4794.08,1293.56Z" style="fill:rgb(110,191,45);"/>
            </g>
            <g transform="matrix(2.31982,0,0,3.63006,-6208.54,-3389.37)">
                <path d="M4794.08,1293.56L4780.68,1307.84L4781.42,1320.29L4792.59,1320.29L4788.37,1306.4L4794.08,1293.56Z" style="fill:rgb(92,161,38);"/>
            </g>
            <g transform="matrix(2.31982,0,0,3.63006,-6278.63,-3353.65)">
                <path d="M4794.08,1293.56L4780.68,1307.84L4781.42,1320.29L4792.59,1320.29L4788.37,1306.4L4794.08,1293.56Z" style="fill:rgb(145,216,90);"/>
            </g>
            <g transform="matrix(-2.31982,0,0,3.63006,15972.1,-3371.18)">
                <path d="M4794.08,1293.56L4780.68,1307.84L4781.42,1320.29L4792.59,1320.29L4788.37,1306.4L4794.08,1293.56Z" style="fill:rgb(144,215,87);"/>
            </g>
        </g>
        <g id="grass-1" serif:id="grass 1" transform="matrix(0.791552,0,0,0.791552,3339.57,-49.1049)">
            <g transform="matrix(2.31982,0,0,3.63006,-6213.71,-3433.5)">
                <path d="M4794.08,1293.56L4780.68,1307.84L4781.42,1320.29L4792.59,1320.29L4788.37,1306.4L4794.08,1293.56Z" style="fill:rgb(44,75,20);"/>
            </g>
            <g transform="matrix(-2.31982,0,0,3.63006,15938.2,-3425.06)">
                <path d="M4794.08,1293.56L4780.68,1307.84L4781.42,1320.29L4792.59,1320.29L4788.37,1306.4L4794.08,1293.56Z" style="fill:rgb(56,98,23);"/>
            </g>
            <g transform="matrix(2.31982,0,0,3.63006,-6247.54,-3402.15)">
                <path d="M4794.08,1293.56L4780.68,1307.84L4781.42,1320.29L4792.59,1320.29L4788.37,1306.4L4794.08,1293.56Z" style="fill:rgb(81,142,34);"/>
            </g>
            <g transform="matrix(2.31982,0,0,3.63006,-6208.54,-3385)">
                <path d="M4794.08,1293.56L4780.68,1307.84L4781.42,1320.29L4792.59,1320.29L4788.37,1306.4L4794.08,1293.56Z" style="fill:rgb(110,191,45);"/>
            </g>
            <g transform="matrix(-2.31982,0,0,3.63006,15922.7,-3389.37)">
                <path d="M4794.08,1293.56L4780.68,1307.84L4781.42,1320.29L4792.59,1320.29L4788.37,1306.4L4794.08,1293.56Z" style="fill:rgb(92,161,38);"/>
            </g>
            <g transform="matrix(-2.31982,0,0,3.63006,15992.7,-3353.65)">
                <path d="M4794.08,1293.56L4780.68,1307.84L4781.42,1320.29L4792.59,1320.29L4788.37,1306.4L4794.08,1293.56Z" style="fill:rgb(145,216,90);"/>
            </g>
            <g transform="matrix(-2.31982,0,0,3.63006,15953.7,-3371.18)">
                <path d="M4794.08,1293.56L4780.68,1307.84L4781.42,1320.29L4792.59,1320.29L4788.37,1306.4L4794.08,1293.56Z" style="fill:rgb(144,215,87);"/>
            </g>
        </g>
        <g id="grass-11" serif:id="grass 1" transform="matrix(0.791552,0,0,0.791552,5299.57,-119.105)">
            <g transform="matrix(2.31982,0,0,3.63006,-6213.71,-3433.5)">
                <path d="M4794.08,1293.56L4780.68,1307.84L4781.42,1320.29L4792.59,1320.29L4788.37,1306.4L4794.08,1293.56Z" style="fill:rgb(44,75,20);"/>
            </g>
            <g transform="matrix(-2.31982,0,0,3.63006,15938.2,-3425.06)">
                <path d="M4794.08,1293.56L4780.68,1307.84L4781.42,1320.29L4792.59,1320.29L4788.37,1306.4L4794.08,1293.56Z" style="fill:rgb(56,98,23);"/>
            </g>
            <g transform="matrix(2.31982,0,0,3.63006,-6247.54,-3402.15)">
                <path d="M4794.08,1293.56L4780.68,1307.84L4781.42,1320.29L4792.59,1320.29L4788.37,1306.4L4794.08,1293.56Z" style="fill:rgb(81,142,34);"/>
            </g>
            <g transform="matrix(2.31982,0,0,3.63006,-6208.54,-3385)">
                <path d="M4794.08,1293.56L4780.68,1307.84L4781.42,1320.29L4792.59,1320.29L4788.37,1306.4L4794.08,1293.56Z" style="fill:rgb(110,191,45);"/>
            </g>
            <g transform="matrix(-2.31982,0,0,3.63006,15922.7,-3389.37)">
                <path d="M4794.08,1293.56L4780.68,1307.84L4781.42,1320.29L4792.59,1320.29L4788.37,1306.4L4794.08,1293.56Z" style="fill:rgb(92,161,38);"/>
            </g>
            <g transform="matrix(-2.31982,0,0,3.63006,15992.7,-3353.65)">
                <path d="M4794.08,1293.56L4780.68,1307.84L4781.42,1320.29L4792.59,1320.29L4788.37,1306.4L4794.08,1293.56Z" style="fill:rgb(145,216,90);"/>
            </g>
            <g transform="matrix(-2.31982,0,0,3.63006,15953.7,-3371.18)">
                <path d="M4794.08,1293.56L4780.68,1307.84L4781.42,1320.29L4792.59,1320.29L4788.37,1306.4L4794.08,1293.56Z" style="fill:rgb(144,215,87);"/>
            </g>
        </g>
    </g>
    <g transform="matrix(1.45455,0,0,1.45455,-10014.5,-1226.82)">
        <path d="M7720,960L7690,950L7640,950L7580,960L7531.25,950L7490,950L7455.62,943.125L7428.12,918.06L7400.62,888.125L7325,863.49L7304.38,863.833L7373.12,895L7386.88,933.076L7441.88,970.625L7476.25,991.25L7500,1020L7540,1030L7590,1030L7630,1039.17L7660,1047.47L7690,1047.47L7710,1039.17L7730,1030L7740,1000L7737.37,980L7720,960Z" style="fill:rgb(0,236,232);"/>
    </g>
</svg>
