<?xml version="1.0" encoding="UTF-8" standalone="no"?>
<!DOCTYPE svg PUBLIC "-//W3C//DTD SVG 1.1//EN" "http://www.w3.org/Graphics/SVG/1.1/DTD/svg11.dtd">
<svg width="100%" height="100%" viewBox="0 0 2842 905" version="1.1" xmlns="http://www.w3.org/2000/svg" xmlns:xlink="http://www.w3.org/1999/xlink" xml:space="preserve" xmlns:serif="http://www.serif.com/" style="fill-rule:evenodd;clip-rule:evenodd;stroke-linejoin:round;stroke-miterlimit:2;">
    <g id="floating-islands" serif:id="floating islands" transform="matrix(1,0,0,1,-6600,-945)">
        <path d="M9442,1050L6600,1050L6600,1240L6660,1340L6800,1460L6980.44,1645.79L7120,1740L7300,1850L7560,1780L7630,1640L7770,1610L7960,1500L8107,1298.84L8120,1260L8140,1298.84L8220,1370L8300,1500L8370,1540L8520,1672.09L8620,1550L8670,1530L8750,1490L8820,1500L8880,1490L8910,1510L8980,1447.69L9140,1380L9240,1420L9320,1370L9370,1300L9430,1180L9442,1050Z" style="fill:rgb(114,114,114);"/>
        <path d="M9430,1180L9340,1300L9241.4,1370L9140,1350L9060,1397.5L8990,1410L8940,1440L8820,1460L8720,1468.43L8611.52,1500L8550,1580L8510,1590L8320,1468.43L8220,1347.92L8140,1298.84L8220,1370L8300,1500L8370,1540L8520,1672.09L8620,1550L8670,1530L8750,1490L8820,1500L8880,1490L8910,1510L8980,1447.69L9140,1380L9240,1420L9320,1370L9370,1300L9430,1180Z" style="fill:rgb(98,98,98);"/>
        <path d="M9440,1050L8140,1130L8120,1170L8160,1210L8240,1240L8320,1340L8394.85,1385.74L8480,1450L8620,1400L8700,1380L8770,1360L8840,1360L8897.71,1340L8950,1347.92L9000,1317.69L9060,1271.8L9160,1250L9260,1260L9340,1210L9404.59,1145L9439.46,1057L9440,1050Z" style="fill:rgb(121,121,121);"/>
        <path d="M7960,1500L7700,1580L7600,1600L7490,1740L7380,1700L7290,1720L7160,1690L6860,1520L6980.44,1645.79L7120,1740L7300,1850L7560,1780L7630,1640L7770,1610L7960,1500Z" style="fill:rgb(98,98,98);"/>
        <path d="M8120,1169L6600,1050L6600,1070L6740,1220L6820,1270L7000,1340L7160,1500L7300,1610L7410,1640L7460,1470L7660,1400L7880,1347.5L7970,1290L8060,1230L8120,1169Z" style="fill:rgb(121,121,121);"/>
        <path d="M6800,1460L6860,1521.78L6780,1400L6738.45,1345L6730,1313.34L6710,1270L6717.4,1204.86L6740,1140L6600,1050L6600,1240L6660,1340L6800,1460Z" style="fill:rgb(131,131,131);"/>
        <path d="M9442,1050L6600,1050L6600,1080L6604,1083L6617,1106L6634,1104L6646,1121L6675,1122L6689,1153L6725,1145L6825,1230L6890,1210L6980,1220L7070,1270L7130,1250L7150,1264.34L7194.05,1250.89L7250,1270L7275.89,1370L7360,1490L7300,1350L7334.16,1262.73L7420,1230L7590,1240.62L7640,1220L7720,1216.19L7760,1207.14L7832.79,1200L7910,1207.14L7980,1203.81L7990,1216.19L7990,1234.47L8020,1201.9L8080,1200L8120,1169L8160,1200L8200,1203.45L8230,1200L8280,1210.35L8304.66,1190L8340,1215.52L8410,1221.55L8420,1234.47L8480,1220L8540,1260L8560,1240.62L8660,1260L8740,1250L8830,1230L8910,1240L8960,1221.89L9000,1207.14L9030,1217.53L9080,1214.41L9120,1200L9150.67,1210L9180,1195.07L9220,1200L9240,1180L9300,1200L9310,1190L9333,1174L9344,1169L9352.46,1151L9361,1135L9372.77,1127L9393.5,1102.5L9395.5,1104.5L9396,1108L9398.15,1097L9409,1086L9420,1081L9426.78,1069L9433,1066L9437,1059L9440,1056L9442,1050Z" style="fill:rgb(84,84,84);"/>
        <path d="M7711.35,957.774L7500,945L7200,950L7033.19,957.774L6900,980L6600,1050L6627.94,1072.6L6655,1090L6685,1105L6705,1110L6710,1120L6740,1140L6830.28,1160L6900,1155L6972.14,1169.02L7060,1180L7160,1180L7273.94,1190L7410,1190L7509.23,1180L7534.71,1190L7560,1180L7606.25,1190L7668.48,1180L7700,1180L7734.83,1184.17L7840,1179.4L7870,1172.82L7905,1171.23L7945,1174.63L8020,1171.23L8120,1150L8180,1171.08L8243.91,1174.63L8280,1169.02L8320,1171.23L8334.34,1179.66L8386.07,1177.17L8426.07,1179.4L8520,1190L8580,1200L8700,1194.32L8800,1200L8900,1190L8980,1177.17L9051.72,1190L9100,1176.38L9145.28,1171.08L9175,1160L9210,1163.51L9240,1160L9308,1165L9334.86,1150L9350,1126.03L9369.44,1113.75L9373.98,1110L9380,1093.29L9394.22,1083.35L9415,1070L9420,1064L9434,1059L9442,1050L9250,1004.32L9020,981.411L8780,969.066L8527.66,986.528L8240,997.643L8183.44,1004.32L8145,1025L8090,989.288L8060,986.528L7948.57,981.411L7711.35,957.774Z" style="fill:rgb(145,234,112);"/>
    </g>
</svg>
