<?xml version="1.0" encoding="UTF-8" standalone="no"?>
<!DOCTYPE svg PUBLIC "-//W3C//DTD SVG 1.1//EN" "http://www.w3.org/Graphics/SVG/1.1/DTD/svg11.dtd">
<svg width="100%" height="100%" viewBox="0 0 1300 558" version="1.1" xmlns="http://www.w3.org/2000/svg" xmlns:xlink="http://www.w3.org/1999/xlink" xml:space="preserve" xmlns:serif="http://www.serif.com/" style="fill-rule:evenodd;clip-rule:evenodd;stroke-linejoin:round;stroke-miterlimit:2;">
    <g transform="matrix(1,0,0,1,-5040,-912.679)">
        <path d="M6340,1040L5042,1060L5040,1130L5090,1290L5190,1360L5252.5,1340L5300,1320L5350,1370L5490,1395.43L5490,1460L5580,1435.57L5610,1470L5680,1460L5840,1388.85L5960,1301.43L6069.76,1340L6129.16,1320L6200,1304.58L6280,1249.22L6337.21,1109.66L6340,1040Z" style="fill:rgb(114,114,114);"/>
        <path d="M6155,1290L6080,1301.43L5930,1270L5920,1295L5840,1355L5670,1410L5610,1370L5550,1388.85L5480,1360L5380,1350L5300,1301.43L5200,1334.14L5130,1300L5120,1301.43L5054.02,1209.11L5090,1290L5190,1360L5252.5,1340L5300,1320L5350,1370L5490,1395.43L5490,1460L5580,1435.57L5610,1470L5680,1460L5840,1388.85L5960,1301.43L6069.76,1340L6129.16,1320L6200,1304.58L6280,1249.22L6296.44,1209.11L6235.63,1255L6155,1290Z" style="fill:rgb(98,98,98);"/>
        <path d="M6340,1040L5042,1060L5040,1130L5090,1188.57L5120,1250L5252.5,1238.57L5300,1230L5370,1260L5440,1268.57L5510,1320L5580,1310L5640,1334.14L5730,1300L5840,1250L5950,1230L6069.76,1238.57L6220,1200L6290,1140L6337.21,1109.66L6340,1040Z" style="fill:rgb(121,121,121);"/>
        <g transform="matrix(0.838462,0,0,0.788036,-491.846,230.783)">
            <path d="M6776.51,1432.95L6740,1393.77L6704.95,1356.81L6693.03,1322.42L6693.03,1229.91L6704.95,1179.15L6740,1140L6600,1050L6597.61,1141.09L6609.54,1229.91L6657.25,1345L6776.51,1432.95Z" style="fill:rgb(131,131,131);"/>
        </g>
        <path d="M6340,1040L5042,1060L5050,1090L5060,1100L5065.89,1113.5L5077.2,1121.3L5090,1130L5090,1146.56L5103.6,1151.3L5123.23,1187.07L5170,1185L5196.07,1201.3L5240,1187.61L5286.11,1195L5340,1181.3L5370,1191.3L5420,1187.61L5460,1203.4L5520,1203.4L5570,1245L5614.2,1245L5600,1220L5614.2,1201.3L5630,1185L5665,1191.3L5690,1175L5705,1195L5760,1181.3L5800,1185L5840,1175L5865,1180L5880,1168.9L5929.83,1161.3L5949,1173L5970,1161.3L6060,1171.3L6120,1161.3L6115,1180L6100,1201.3L6135,1185L6160,1160L6180,1155L6212.56,1165.9L6272.56,1155L6288,1137L6305,1135L6309,1124L6326.29,1109.11L6332,1086L6338,1057L6340,1040Z" style="fill:rgb(84,84,84);"/>
        <path d="M6340,1040L6260,960L6180,940L5720,912.679L5470,950L5190,960L5110,1000L5042,1060L5077.2,1100L5100,1109.66L5103.6,1130L5130,1160L5200,1166.32L5250,1170L5340,1160L5420,1166.32L5460,1182.11L5520,1182.11L5570,1190L5614.2,1180L5644.2,1170L5694.2,1160L5727.1,1170L5760,1160L5840,1160L5929.83,1140L5970,1140L6060,1150L6120,1140L6160,1138.7L6180,1133.7L6212.56,1144.6L6272.56,1133.7L6326.29,1087.81L6340,1040Z" style="fill:rgb(145,234,112);"/>
        <g>
            <g id="grass-1" serif:id="grass 1" transform="matrix(0.671854,0,0,0.671854,2554.27,173.15)">
                <g transform="matrix(2.31982,0,0,3.63006,-6213.71,-3433.5)">
                    <path d="M4794.08,1293.56L4780.68,1307.84L4781.42,1320.29L4792.59,1320.29L4788.37,1306.4L4794.08,1293.56Z" style="fill:rgb(44,75,20);"/>
                </g>
                <g transform="matrix(-2.31982,0,0,3.63006,15938.2,-3425.06)">
                    <path d="M4794.08,1293.56L4780.68,1307.84L4781.42,1320.29L4792.59,1320.29L4788.37,1306.4L4794.08,1293.56Z" style="fill:rgb(56,98,23);"/>
                </g>
                <g transform="matrix(2.31982,0,0,3.63006,-6247.54,-3402.15)">
                    <path d="M4794.08,1293.56L4780.68,1307.84L4781.42,1320.29L4792.59,1320.29L4788.37,1306.4L4794.08,1293.56Z" style="fill:rgb(81,142,34);"/>
                </g>
                <g transform="matrix(2.31982,0,0,3.63006,-6208.54,-3385)">
                    <path d="M4794.08,1293.56L4780.68,1307.84L4781.42,1320.29L4792.59,1320.29L4788.37,1306.4L4794.08,1293.56Z" style="fill:rgb(110,191,45);"/>
                </g>
                <g transform="matrix(-2.31982,0,0,3.63006,15922.7,-3389.37)">
                    <path d="M4794.08,1293.56L4780.68,1307.84L4781.42,1320.29L4792.59,1320.29L4788.37,1306.4L4794.08,1293.56Z" style="fill:rgb(92,161,38);"/>
                </g>
                <g transform="matrix(-2.31982,0,0,3.63006,15992.7,-3353.65)">
                    <path d="M4794.08,1293.56L4780.68,1307.84L4781.42,1320.29L4792.59,1320.29L4788.37,1306.4L4794.08,1293.56Z" style="fill:rgb(145,216,90);"/>
                </g>
                <g transform="matrix(-2.31982,0,0,3.63006,15953.7,-3371.18)">
                    <path d="M4794.08,1293.56L4780.68,1307.84L4781.42,1320.29L4792.59,1320.29L4788.37,1306.4L4794.08,1293.56Z" style="fill:rgb(144,215,87);"/>
                </g>
            </g>
            <g id="grass-2" serif:id="grass 2" transform="matrix(0.671854,0,0,0.671854,1994.27,113.735)">
                <g transform="matrix(-2.31982,0,0,3.63006,15927.8,-3433.5)">
                    <path d="M4794.08,1293.56L4780.68,1307.84L4781.42,1320.29L4792.59,1320.29L4788.37,1306.4L4794.08,1293.56Z" style="fill:rgb(44,75,20);"/>
                </g>
                <g transform="matrix(2.31982,0,0,3.63006,-6224.08,-3425.06)">
                    <path d="M4794.08,1293.56L4780.68,1307.84L4781.42,1320.29L4792.59,1320.29L4788.37,1306.4L4794.08,1293.56Z" style="fill:rgb(56,98,23);"/>
                </g>
                <g transform="matrix(-2.31982,0,0,3.63006,15961.7,-3402.15)">
                    <path d="M4794.08,1293.56L4780.68,1307.84L4781.42,1320.29L4792.59,1320.29L4788.37,1306.4L4794.08,1293.56Z" style="fill:rgb(81,142,34);"/>
                </g>
                <g transform="matrix(2.31982,0,0,3.63006,-6289.07,-3385)">
                    <path d="M4794.08,1293.56L4780.68,1307.84L4781.42,1320.29L4792.59,1320.29L4788.37,1306.4L4794.08,1293.56Z" style="fill:rgb(110,191,45);"/>
                </g>
                <g transform="matrix(2.31982,0,0,3.63006,-6208.54,-3389.37)">
                    <path d="M4794.08,1293.56L4780.68,1307.84L4781.42,1320.29L4792.59,1320.29L4788.37,1306.4L4794.08,1293.56Z" style="fill:rgb(92,161,38);"/>
                </g>
                <g transform="matrix(2.31982,0,0,3.63006,-6278.63,-3353.65)">
                    <path d="M4794.08,1293.56L4780.68,1307.84L4781.42,1320.29L4792.59,1320.29L4788.37,1306.4L4794.08,1293.56Z" style="fill:rgb(145,216,90);"/>
                </g>
                <g transform="matrix(-2.31982,0,0,3.63006,15972.1,-3371.18)">
                    <path d="M4794.08,1293.56L4780.68,1307.84L4781.42,1320.29L4792.59,1320.29L4788.37,1306.4L4794.08,1293.56Z" style="fill:rgb(144,215,87);"/>
                </g>
            </g>
            <g id="grass-3" serif:id="grass 3" transform="matrix(0.649793,0,0,0.649793,3001.43,91.2253)">
                <g transform="matrix(2.31982,0,0,3.63006,-6281.42,-3431.54)">
                    <path d="M4794.08,1293.56L4780.68,1307.84L4781.42,1320.29L4792.59,1320.29L4788.37,1306.4L4794.08,1293.56Z" style="fill:rgb(44,75,20);"/>
                </g>
                <g transform="matrix(2.31982,0,0,3.63006,-6224.08,-3425.06)">
                    <path d="M4794.08,1293.56L4780.68,1307.84L4781.42,1320.29L4792.59,1320.29L4788.37,1306.4L4794.08,1293.56Z" style="fill:rgb(56,98,23);"/>
                </g>
                <g transform="matrix(-2.31982,0,0,3.63006,15959.8,-3392.23)">
                    <path d="M4794.08,1293.56L4780.68,1307.84L4781.42,1320.29L4792.59,1320.29L4788.37,1306.4L4794.08,1293.56Z" style="fill:rgb(81,142,34);"/>
                </g>
                <g transform="matrix(-2.31982,0,0,3.63006,15924.6,-3381.78)">
                    <path d="M4794.08,1293.56L4780.68,1307.84L4781.42,1320.29L4792.59,1320.29L4788.37,1306.4L4794.08,1293.56Z" style="fill:rgb(110,191,45);"/>
                </g>
                <g transform="matrix(2.31982,0,0,3.63006,-6202.82,-3400.81)">
                    <path d="M4794.08,1293.56L4780.68,1307.84L4781.42,1320.29L4792.59,1320.29L4788.37,1306.4L4794.08,1293.56Z" style="fill:rgb(92,161,38);"/>
                </g>
                <g transform="matrix(2.31982,0,0,3.63006,-6275.19,-3351.68)">
                    <path d="M4794.08,1293.56L4780.68,1307.84L4781.42,1320.29L4792.59,1320.29L4788.37,1306.4L4794.08,1293.56Z" style="fill:rgb(145,216,90);"/>
                </g>
                <g transform="matrix(-2.31982,0,0,3.63006,15993.4,-3361.51)">
                    <path d="M4794.08,1293.56L4780.68,1307.84L4781.42,1320.29L4792.59,1320.29L4788.37,1306.4L4794.08,1293.56Z" style="fill:rgb(128,210,64);"/>
                </g>
            </g>
        </g>
    </g>
</svg>
