<?xml version="1.0" encoding="UTF-8" standalone="no"?>
<!DOCTYPE svg PUBLIC "-//W3C//DTD SVG 1.1//EN" "http://www.w3.org/Graphics/SVG/1.1/DTD/svg11.dtd">
<svg width="100%" height="100%" viewBox="0 0 10559 188" version="1.1" xmlns="http://www.w3.org/2000/svg" xmlns:xlink="http://www.w3.org/1999/xlink" xml:space="preserve" xmlns:serif="http://www.serif.com/" style="fill-rule:evenodd;clip-rule:evenodd;stroke-linejoin:round;stroke-miterlimit:2;">
    <g transform="matrix(1,0,0,1,0,-533.333)">
        <g transform="matrix(1,0,0,1,3410,533.333)">
            <g>
                <g transform="matrix(1.55475,0,0,1.34322,-208.546,-614.256)">
                    <rect x="163.153" y="580.939" width="12.217" height="15.707" style="fill:rgb(48,39,0);"/>
                </g>
                <g transform="matrix(1,0,0,1,-112.601,-416.08)">
                    <path d="M167.215,416.08L221.828,504.501L112.601,504.501L167.215,416.08Z" style="fill:rgb(8,149,0);"/>
                </g>
                <g transform="matrix(1,0,0,1,-112.601,-376.08)">
                    <path d="M167.215,416.08L221.828,504.501L112.601,504.501L167.215,416.08Z" style="fill:rgb(8,149,0);"/>
                </g>
                <g transform="matrix(1,0,0,1,-112.601,-336.08)">
                    <path d="M167.215,416.08L221.828,504.501L112.601,504.501L167.215,416.08Z" style="fill:rgb(8,149,0);"/>
                </g>
            </g>
            <g transform="matrix(1,0,0,1,110,0)">
                <g transform="matrix(1.55475,0,0,1.34322,-208.546,-614.256)">
                    <rect x="163.153" y="580.939" width="12.217" height="15.707" style="fill:rgb(48,39,0);"/>
                </g>
                <g transform="matrix(1,0,0,1,-112.601,-416.08)">
                    <path d="M167.215,416.08L221.828,504.501L112.601,504.501L167.215,416.08Z" style="fill:rgb(8,149,0);"/>
                </g>
                <g transform="matrix(1,0,0,1,-112.601,-376.08)">
                    <path d="M167.215,416.08L221.828,504.501L112.601,504.501L167.215,416.08Z" style="fill:rgb(8,149,0);"/>
                </g>
                <g transform="matrix(1,0,0,1,-112.601,-336.08)">
                    <path d="M167.215,416.08L221.828,504.501L112.601,504.501L167.215,416.08Z" style="fill:rgb(8,149,0);"/>
                </g>
            </g>
            <g transform="matrix(1,0,0,1,-110,0)">
                <g transform="matrix(1.55475,0,0,1.34322,-208.546,-614.256)">
                    <rect x="163.153" y="580.939" width="12.217" height="15.707" style="fill:rgb(48,39,0);"/>
                </g>
                <g transform="matrix(1,0,0,1,-112.601,-416.08)">
                    <path d="M167.215,416.08L221.828,504.501L112.601,504.501L167.215,416.08Z" style="fill:rgb(8,149,0);"/>
                </g>
                <g transform="matrix(1,0,0,1,-112.601,-376.08)">
                    <path d="M167.215,416.08L221.828,504.501L112.601,504.501L167.215,416.08Z" style="fill:rgb(8,149,0);"/>
                </g>
                <g transform="matrix(1,0,0,1,-112.601,-336.08)">
                    <path d="M167.215,416.08L221.828,504.501L112.601,504.501L167.215,416.08Z" style="fill:rgb(8,149,0);"/>
                </g>
            </g>
            <g transform="matrix(1,0,0,1,330,0)">
                <g transform="matrix(1.55475,0,0,1.34322,-208.546,-614.256)">
                    <rect x="163.153" y="580.939" width="12.217" height="15.707" style="fill:rgb(48,39,0);"/>
                </g>
                <g transform="matrix(1,0,0,1,-112.601,-416.08)">
                    <path d="M167.215,416.08L221.828,504.501L112.601,504.501L167.215,416.08Z" style="fill:rgb(8,149,0);"/>
                </g>
                <g transform="matrix(1,0,0,1,-112.601,-376.08)">
                    <path d="M167.215,416.08L221.828,504.501L112.601,504.501L167.215,416.08Z" style="fill:rgb(8,149,0);"/>
                </g>
                <g transform="matrix(1,0,0,1,-112.601,-336.08)">
                    <path d="M167.215,416.08L221.828,504.501L112.601,504.501L167.215,416.08Z" style="fill:rgb(8,149,0);"/>
                </g>
            </g>
            <g transform="matrix(1,0,0,1,440,0)">
                <g transform="matrix(1.55475,0,0,1.34322,-208.546,-614.256)">
                    <rect x="163.153" y="580.939" width="12.217" height="15.707" style="fill:rgb(48,39,0);"/>
                </g>
                <g transform="matrix(1,0,0,1,-112.601,-416.08)">
                    <path d="M167.215,416.08L221.828,504.501L112.601,504.501L167.215,416.08Z" style="fill:rgb(8,149,0);"/>
                </g>
                <g transform="matrix(1,0,0,1,-112.601,-376.08)">
                    <path d="M167.215,416.08L221.828,504.501L112.601,504.501L167.215,416.08Z" style="fill:rgb(8,149,0);"/>
                </g>
                <g transform="matrix(1,0,0,1,-112.601,-336.08)">
                    <path d="M167.215,416.08L221.828,504.501L112.601,504.501L167.215,416.08Z" style="fill:rgb(8,149,0);"/>
                </g>
            </g>
            <g transform="matrix(1,0,0,1,220,0)">
                <g transform="matrix(1.55475,0,0,1.34322,-208.546,-614.256)">
                    <rect x="163.153" y="580.939" width="12.217" height="15.707" style="fill:rgb(48,39,0);"/>
                </g>
                <g transform="matrix(1,0,0,1,-112.601,-416.08)">
                    <path d="M167.215,416.08L221.828,504.501L112.601,504.501L167.215,416.08Z" style="fill:rgb(8,149,0);"/>
                </g>
                <g transform="matrix(1,0,0,1,-112.601,-376.08)">
                    <path d="M167.215,416.08L221.828,504.501L112.601,504.501L167.215,416.08Z" style="fill:rgb(8,149,0);"/>
                </g>
                <g transform="matrix(1,0,0,1,-112.601,-336.08)">
                    <path d="M167.215,416.08L221.828,504.501L112.601,504.501L167.215,416.08Z" style="fill:rgb(8,149,0);"/>
                </g>
            </g>
            <g transform="matrix(1,0,0,1,-660,0)">
                <g transform="matrix(1.55475,0,0,1.34322,-208.546,-614.256)">
                    <rect x="163.153" y="580.939" width="12.217" height="15.707" style="fill:rgb(48,39,0);"/>
                </g>
                <g transform="matrix(1,0,0,1,-112.601,-416.08)">
                    <path d="M167.215,416.08L221.828,504.501L112.601,504.501L167.215,416.08Z" style="fill:rgb(8,149,0);"/>
                </g>
                <g transform="matrix(1,0,0,1,-112.601,-376.08)">
                    <path d="M167.215,416.08L221.828,504.501L112.601,504.501L167.215,416.08Z" style="fill:rgb(8,149,0);"/>
                </g>
                <g transform="matrix(1,0,0,1,-112.601,-336.08)">
                    <path d="M167.215,416.08L221.828,504.501L112.601,504.501L167.215,416.08Z" style="fill:rgb(8,149,0);"/>
                </g>
            </g>
            <g transform="matrix(1,0,0,1,-550,0)">
                <g transform="matrix(1.55475,0,0,1.34322,-208.546,-614.256)">
                    <rect x="163.153" y="580.939" width="12.217" height="15.707" style="fill:rgb(48,39,0);"/>
                </g>
                <g transform="matrix(1,0,0,1,-112.601,-416.08)">
                    <path d="M167.215,416.08L221.828,504.501L112.601,504.501L167.215,416.08Z" style="fill:rgb(8,149,0);"/>
                </g>
                <g transform="matrix(1,0,0,1,-112.601,-376.08)">
                    <path d="M167.215,416.08L221.828,504.501L112.601,504.501L167.215,416.08Z" style="fill:rgb(8,149,0);"/>
                </g>
                <g transform="matrix(1,0,0,1,-112.601,-336.08)">
                    <path d="M167.215,416.08L221.828,504.501L112.601,504.501L167.215,416.08Z" style="fill:rgb(8,149,0);"/>
                </g>
            </g>
            <g transform="matrix(1,0,0,1,-770,0)">
                <g transform="matrix(1.55475,0,0,1.34322,-208.546,-614.256)">
                    <rect x="163.153" y="580.939" width="12.217" height="15.707" style="fill:rgb(48,39,0);"/>
                </g>
                <g transform="matrix(1,0,0,1,-112.601,-416.08)">
                    <path d="M167.215,416.08L221.828,504.501L112.601,504.501L167.215,416.08Z" style="fill:rgb(8,149,0);"/>
                </g>
                <g transform="matrix(1,0,0,1,-112.601,-376.08)">
                    <path d="M167.215,416.08L221.828,504.501L112.601,504.501L167.215,416.08Z" style="fill:rgb(8,149,0);"/>
                </g>
                <g transform="matrix(1,0,0,1,-112.601,-336.08)">
                    <path d="M167.215,416.08L221.828,504.501L112.601,504.501L167.215,416.08Z" style="fill:rgb(8,149,0);"/>
                </g>
            </g>
            <g transform="matrix(1,0,0,1,-330,0)">
                <g transform="matrix(1.55475,0,0,1.34322,-208.546,-614.256)">
                    <rect x="163.153" y="580.939" width="12.217" height="15.707" style="fill:rgb(48,39,0);"/>
                </g>
                <g transform="matrix(1,0,0,1,-112.601,-416.08)">
                    <path d="M167.215,416.08L221.828,504.501L112.601,504.501L167.215,416.08Z" style="fill:rgb(8,149,0);"/>
                </g>
                <g transform="matrix(1,0,0,1,-112.601,-376.08)">
                    <path d="M167.215,416.08L221.828,504.501L112.601,504.501L167.215,416.08Z" style="fill:rgb(8,149,0);"/>
                </g>
                <g transform="matrix(1,0,0,1,-112.601,-336.08)">
                    <path d="M167.215,416.08L221.828,504.501L112.601,504.501L167.215,416.08Z" style="fill:rgb(8,149,0);"/>
                </g>
            </g>
            <g transform="matrix(1,0,0,1,-220,0)">
                <g transform="matrix(1.55475,0,0,1.34322,-208.546,-614.256)">
                    <rect x="163.153" y="580.939" width="12.217" height="15.707" style="fill:rgb(48,39,0);"/>
                </g>
                <g transform="matrix(1,0,0,1,-112.601,-416.08)">
                    <path d="M167.215,416.08L221.828,504.501L112.601,504.501L167.215,416.08Z" style="fill:rgb(8,149,0);"/>
                </g>
                <g transform="matrix(1,0,0,1,-112.601,-376.08)">
                    <path d="M167.215,416.08L221.828,504.501L112.601,504.501L167.215,416.08Z" style="fill:rgb(8,149,0);"/>
                </g>
                <g transform="matrix(1,0,0,1,-112.601,-336.08)">
                    <path d="M167.215,416.08L221.828,504.501L112.601,504.501L167.215,416.08Z" style="fill:rgb(8,149,0);"/>
                </g>
            </g>
            <g transform="matrix(1,0,0,1,-440,0)">
                <g transform="matrix(1.55475,0,0,1.34322,-208.546,-614.256)">
                    <rect x="163.153" y="580.939" width="12.217" height="15.707" style="fill:rgb(48,39,0);"/>
                </g>
                <g transform="matrix(1,0,0,1,-112.601,-416.08)">
                    <path d="M167.215,416.08L221.828,504.501L112.601,504.501L167.215,416.08Z" style="fill:rgb(8,149,0);"/>
                </g>
                <g transform="matrix(1,0,0,1,-112.601,-376.08)">
                    <path d="M167.215,416.08L221.828,504.501L112.601,504.501L167.215,416.08Z" style="fill:rgb(8,149,0);"/>
                </g>
                <g transform="matrix(1,0,0,1,-112.601,-336.08)">
                    <path d="M167.215,416.08L221.828,504.501L112.601,504.501L167.215,416.08Z" style="fill:rgb(8,149,0);"/>
                </g>
            </g>
            <g transform="matrix(1,0,0,1,1320,0)">
                <g transform="matrix(1.55475,0,0,1.34322,-208.546,-614.256)">
                    <rect x="163.153" y="580.939" width="12.217" height="15.707" style="fill:rgb(48,39,0);"/>
                </g>
                <g transform="matrix(1,0,0,1,-112.601,-416.08)">
                    <path d="M167.215,416.08L221.828,504.501L112.601,504.501L167.215,416.08Z" style="fill:rgb(8,149,0);"/>
                </g>
                <g transform="matrix(1,0,0,1,-112.601,-376.08)">
                    <path d="M167.215,416.08L221.828,504.501L112.601,504.501L167.215,416.08Z" style="fill:rgb(8,149,0);"/>
                </g>
                <g transform="matrix(1,0,0,1,-112.601,-336.08)">
                    <path d="M167.215,416.08L221.828,504.501L112.601,504.501L167.215,416.08Z" style="fill:rgb(8,149,0);"/>
                </g>
            </g>
            <g transform="matrix(1,0,0,1,1430,0)">
                <g transform="matrix(1.55475,0,0,1.34322,-208.546,-614.256)">
                    <rect x="163.153" y="580.939" width="12.217" height="15.707" style="fill:rgb(48,39,0);"/>
                </g>
                <g transform="matrix(1,0,0,1,-112.601,-416.08)">
                    <path d="M167.215,416.08L221.828,504.501L112.601,504.501L167.215,416.08Z" style="fill:rgb(8,149,0);"/>
                </g>
                <g transform="matrix(1,0,0,1,-112.601,-376.08)">
                    <path d="M167.215,416.08L221.828,504.501L112.601,504.501L167.215,416.08Z" style="fill:rgb(8,149,0);"/>
                </g>
                <g transform="matrix(1,0,0,1,-112.601,-336.08)">
                    <path d="M167.215,416.08L221.828,504.501L112.601,504.501L167.215,416.08Z" style="fill:rgb(8,149,0);"/>
                </g>
            </g>
            <g transform="matrix(1,0,0,1,1210,0)">
                <g transform="matrix(1.55475,0,0,1.34322,-208.546,-614.256)">
                    <rect x="163.153" y="580.939" width="12.217" height="15.707" style="fill:rgb(48,39,0);"/>
                </g>
                <g transform="matrix(1,0,0,1,-112.601,-416.08)">
                    <path d="M167.215,416.08L221.828,504.501L112.601,504.501L167.215,416.08Z" style="fill:rgb(8,149,0);"/>
                </g>
                <g transform="matrix(1,0,0,1,-112.601,-376.08)">
                    <path d="M167.215,416.08L221.828,504.501L112.601,504.501L167.215,416.08Z" style="fill:rgb(8,149,0);"/>
                </g>
                <g transform="matrix(1,0,0,1,-112.601,-336.08)">
                    <path d="M167.215,416.08L221.828,504.501L112.601,504.501L167.215,416.08Z" style="fill:rgb(8,149,0);"/>
                </g>
            </g>
            <g transform="matrix(1,0,0,1,1650,0)">
                <g transform="matrix(1.55475,0,0,1.34322,-208.546,-614.256)">
                    <rect x="163.153" y="580.939" width="12.217" height="15.707" style="fill:rgb(48,39,0);"/>
                </g>
                <g transform="matrix(1,0,0,1,-112.601,-416.08)">
                    <path d="M167.215,416.08L221.828,504.501L112.601,504.501L167.215,416.08Z" style="fill:rgb(8,149,0);"/>
                </g>
                <g transform="matrix(1,0,0,1,-112.601,-376.08)">
                    <path d="M167.215,416.08L221.828,504.501L112.601,504.501L167.215,416.08Z" style="fill:rgb(8,149,0);"/>
                </g>
                <g transform="matrix(1,0,0,1,-112.601,-336.08)">
                    <path d="M167.215,416.08L221.828,504.501L112.601,504.501L167.215,416.08Z" style="fill:rgb(8,149,0);"/>
                </g>
            </g>
            <g transform="matrix(1,0,0,1,1760,0)">
                <g transform="matrix(1.55475,0,0,1.34322,-208.546,-614.256)">
                    <rect x="163.153" y="580.939" width="12.217" height="15.707" style="fill:rgb(48,39,0);"/>
                </g>
                <g transform="matrix(1,0,0,1,-112.601,-416.08)">
                    <path d="M167.215,416.08L221.828,504.501L112.601,504.501L167.215,416.08Z" style="fill:rgb(8,149,0);"/>
                </g>
                <g transform="matrix(1,0,0,1,-112.601,-376.08)">
                    <path d="M167.215,416.08L221.828,504.501L112.601,504.501L167.215,416.08Z" style="fill:rgb(8,149,0);"/>
                </g>
                <g transform="matrix(1,0,0,1,-112.601,-336.08)">
                    <path d="M167.215,416.08L221.828,504.501L112.601,504.501L167.215,416.08Z" style="fill:rgb(8,149,0);"/>
                </g>
            </g>
            <g transform="matrix(1,0,0,1,1540,0)">
                <g transform="matrix(1.55475,0,0,1.34322,-208.546,-614.256)">
                    <rect x="163.153" y="580.939" width="12.217" height="15.707" style="fill:rgb(48,39,0);"/>
                </g>
                <g transform="matrix(1,0,0,1,-112.601,-416.08)">
                    <path d="M167.215,416.08L221.828,504.501L112.601,504.501L167.215,416.08Z" style="fill:rgb(8,149,0);"/>
                </g>
                <g transform="matrix(1,0,0,1,-112.601,-376.08)">
                    <path d="M167.215,416.08L221.828,504.501L112.601,504.501L167.215,416.08Z" style="fill:rgb(8,149,0);"/>
                </g>
                <g transform="matrix(1,0,0,1,-112.601,-336.08)">
                    <path d="M167.215,416.08L221.828,504.501L112.601,504.501L167.215,416.08Z" style="fill:rgb(8,149,0);"/>
                </g>
            </g>
            <g transform="matrix(1,0,0,1,660,0)">
                <g transform="matrix(1.55475,0,0,1.34322,-208.546,-614.256)">
                    <rect x="163.153" y="580.939" width="12.217" height="15.707" style="fill:rgb(48,39,0);"/>
                </g>
                <g transform="matrix(1,0,0,1,-112.601,-416.08)">
                    <path d="M167.215,416.08L221.828,504.501L112.601,504.501L167.215,416.08Z" style="fill:rgb(8,149,0);"/>
                </g>
                <g transform="matrix(1,0,0,1,-112.601,-376.08)">
                    <path d="M167.215,416.08L221.828,504.501L112.601,504.501L167.215,416.08Z" style="fill:rgb(8,149,0);"/>
                </g>
                <g transform="matrix(1,0,0,1,-112.601,-336.08)">
                    <path d="M167.215,416.08L221.828,504.501L112.601,504.501L167.215,416.08Z" style="fill:rgb(8,149,0);"/>
                </g>
            </g>
            <g transform="matrix(1,0,0,1,770,0)">
                <g transform="matrix(1.55475,0,0,1.34322,-208.546,-614.256)">
                    <rect x="163.153" y="580.939" width="12.217" height="15.707" style="fill:rgb(48,39,0);"/>
                </g>
                <g transform="matrix(1,0,0,1,-112.601,-416.08)">
                    <path d="M167.215,416.08L221.828,504.501L112.601,504.501L167.215,416.08Z" style="fill:rgb(8,149,0);"/>
                </g>
                <g transform="matrix(1,0,0,1,-112.601,-376.08)">
                    <path d="M167.215,416.08L221.828,504.501L112.601,504.501L167.215,416.08Z" style="fill:rgb(8,149,0);"/>
                </g>
                <g transform="matrix(1,0,0,1,-112.601,-336.08)">
                    <path d="M167.215,416.08L221.828,504.501L112.601,504.501L167.215,416.08Z" style="fill:rgb(8,149,0);"/>
                </g>
            </g>
            <g transform="matrix(1,0,0,1,550,0)">
                <g transform="matrix(1.55475,0,0,1.34322,-208.546,-614.256)">
                    <rect x="163.153" y="580.939" width="12.217" height="15.707" style="fill:rgb(48,39,0);"/>
                </g>
                <g transform="matrix(1,0,0,1,-112.601,-416.08)">
                    <path d="M167.215,416.08L221.828,504.501L112.601,504.501L167.215,416.08Z" style="fill:rgb(8,149,0);"/>
                </g>
                <g transform="matrix(1,0,0,1,-112.601,-376.08)">
                    <path d="M167.215,416.08L221.828,504.501L112.601,504.501L167.215,416.08Z" style="fill:rgb(8,149,0);"/>
                </g>
                <g transform="matrix(1,0,0,1,-112.601,-336.08)">
                    <path d="M167.215,416.08L221.828,504.501L112.601,504.501L167.215,416.08Z" style="fill:rgb(8,149,0);"/>
                </g>
            </g>
            <g transform="matrix(1,0,0,1,990,0)">
                <g transform="matrix(1.55475,0,0,1.34322,-208.546,-614.256)">
                    <rect x="163.153" y="580.939" width="12.217" height="15.707" style="fill:rgb(48,39,0);"/>
                </g>
                <g transform="matrix(1,0,0,1,-112.601,-416.08)">
                    <path d="M167.215,416.08L221.828,504.501L112.601,504.501L167.215,416.08Z" style="fill:rgb(8,149,0);"/>
                </g>
                <g transform="matrix(1,0,0,1,-112.601,-376.08)">
                    <path d="M167.215,416.08L221.828,504.501L112.601,504.501L167.215,416.08Z" style="fill:rgb(8,149,0);"/>
                </g>
                <g transform="matrix(1,0,0,1,-112.601,-336.08)">
                    <path d="M167.215,416.08L221.828,504.501L112.601,504.501L167.215,416.08Z" style="fill:rgb(8,149,0);"/>
                </g>
            </g>
            <g transform="matrix(1,0,0,1,1100,0)">
                <g transform="matrix(1.55475,0,0,1.34322,-208.546,-614.256)">
                    <rect x="163.153" y="580.939" width="12.217" height="15.707" style="fill:rgb(48,39,0);"/>
                </g>
                <g transform="matrix(1,0,0,1,-112.601,-416.08)">
                    <path d="M167.215,416.08L221.828,504.501L112.601,504.501L167.215,416.08Z" style="fill:rgb(8,149,0);"/>
                </g>
                <g transform="matrix(1,0,0,1,-112.601,-376.08)">
                    <path d="M167.215,416.08L221.828,504.501L112.601,504.501L167.215,416.08Z" style="fill:rgb(8,149,0);"/>
                </g>
                <g transform="matrix(1,0,0,1,-112.601,-336.08)">
                    <path d="M167.215,416.08L221.828,504.501L112.601,504.501L167.215,416.08Z" style="fill:rgb(8,149,0);"/>
                </g>
            </g>
            <g transform="matrix(1,0,0,1,880,0)">
                <g transform="matrix(1.55475,0,0,1.34322,-208.546,-614.256)">
                    <rect x="163.153" y="580.939" width="12.217" height="15.707" style="fill:rgb(48,39,0);"/>
                </g>
                <g transform="matrix(1,0,0,1,-112.601,-416.08)">
                    <path d="M167.215,416.08L221.828,504.501L112.601,504.501L167.215,416.08Z" style="fill:rgb(8,149,0);"/>
                </g>
                <g transform="matrix(1,0,0,1,-112.601,-376.08)">
                    <path d="M167.215,416.08L221.828,504.501L112.601,504.501L167.215,416.08Z" style="fill:rgb(8,149,0);"/>
                </g>
                <g transform="matrix(1,0,0,1,-112.601,-336.08)">
                    <path d="M167.215,416.08L221.828,504.501L112.601,504.501L167.215,416.08Z" style="fill:rgb(8,149,0);"/>
                </g>
            </g>
            <g transform="matrix(1,0,0,1,-2640,0)">
                <g transform="matrix(1.55475,0,0,1.34322,-208.546,-614.256)">
                    <rect x="163.153" y="580.939" width="12.217" height="15.707" style="fill:rgb(48,39,0);"/>
                </g>
                <g transform="matrix(1,0,0,1,-112.601,-416.08)">
                    <path d="M167.215,416.08L221.828,504.501L112.601,504.501L167.215,416.08Z" style="fill:rgb(8,149,0);"/>
                </g>
                <g transform="matrix(1,0,0,1,-112.601,-376.08)">
                    <path d="M167.215,416.08L221.828,504.501L112.601,504.501L167.215,416.08Z" style="fill:rgb(8,149,0);"/>
                </g>
                <g transform="matrix(1,0,0,1,-112.601,-336.08)">
                    <path d="M167.215,416.08L221.828,504.501L112.601,504.501L167.215,416.08Z" style="fill:rgb(8,149,0);"/>
                </g>
            </g>
            <g transform="matrix(1,0,0,1,-2530,0)">
                <g transform="matrix(1.55475,0,0,1.34322,-208.546,-614.256)">
                    <rect x="163.153" y="580.939" width="12.217" height="15.707" style="fill:rgb(48,39,0);"/>
                </g>
                <g transform="matrix(1,0,0,1,-112.601,-416.08)">
                    <path d="M167.215,416.08L221.828,504.501L112.601,504.501L167.215,416.08Z" style="fill:rgb(8,149,0);"/>
                </g>
                <g transform="matrix(1,0,0,1,-112.601,-376.08)">
                    <path d="M167.215,416.08L221.828,504.501L112.601,504.501L167.215,416.08Z" style="fill:rgb(8,149,0);"/>
                </g>
                <g transform="matrix(1,0,0,1,-112.601,-336.08)">
                    <path d="M167.215,416.08L221.828,504.501L112.601,504.501L167.215,416.08Z" style="fill:rgb(8,149,0);"/>
                </g>
            </g>
            <g transform="matrix(1,0,0,1,-2750,0)">
                <g transform="matrix(1.55475,0,0,1.34322,-208.546,-614.256)">
                    <rect x="163.153" y="580.939" width="12.217" height="15.707" style="fill:rgb(48,39,0);"/>
                </g>
                <g transform="matrix(1,0,0,1,-112.601,-416.08)">
                    <path d="M167.215,416.08L221.828,504.501L112.601,504.501L167.215,416.08Z" style="fill:rgb(8,149,0);"/>
                </g>
                <g transform="matrix(1,0,0,1,-112.601,-376.08)">
                    <path d="M167.215,416.08L221.828,504.501L112.601,504.501L167.215,416.08Z" style="fill:rgb(8,149,0);"/>
                </g>
                <g transform="matrix(1,0,0,1,-112.601,-336.08)">
                    <path d="M167.215,416.08L221.828,504.501L112.601,504.501L167.215,416.08Z" style="fill:rgb(8,149,0);"/>
                </g>
            </g>
            <g transform="matrix(1,0,0,1,-2310,0)">
                <g transform="matrix(1.55475,0,0,1.34322,-208.546,-614.256)">
                    <rect x="163.153" y="580.939" width="12.217" height="15.707" style="fill:rgb(48,39,0);"/>
                </g>
                <g transform="matrix(1,0,0,1,-112.601,-416.08)">
                    <path d="M167.215,416.08L221.828,504.501L112.601,504.501L167.215,416.08Z" style="fill:rgb(8,149,0);"/>
                </g>
                <g transform="matrix(1,0,0,1,-112.601,-376.08)">
                    <path d="M167.215,416.08L221.828,504.501L112.601,504.501L167.215,416.08Z" style="fill:rgb(8,149,0);"/>
                </g>
                <g transform="matrix(1,0,0,1,-112.601,-336.08)">
                    <path d="M167.215,416.08L221.828,504.501L112.601,504.501L167.215,416.08Z" style="fill:rgb(8,149,0);"/>
                </g>
            </g>
            <g transform="matrix(1,0,0,1,-2200,0)">
                <g transform="matrix(1.55475,0,0,1.34322,-208.546,-614.256)">
                    <rect x="163.153" y="580.939" width="12.217" height="15.707" style="fill:rgb(48,39,0);"/>
                </g>
                <g transform="matrix(1,0,0,1,-112.601,-416.08)">
                    <path d="M167.215,416.08L221.828,504.501L112.601,504.501L167.215,416.08Z" style="fill:rgb(8,149,0);"/>
                </g>
                <g transform="matrix(1,0,0,1,-112.601,-376.08)">
                    <path d="M167.215,416.08L221.828,504.501L112.601,504.501L167.215,416.08Z" style="fill:rgb(8,149,0);"/>
                </g>
                <g transform="matrix(1,0,0,1,-112.601,-336.08)">
                    <path d="M167.215,416.08L221.828,504.501L112.601,504.501L167.215,416.08Z" style="fill:rgb(8,149,0);"/>
                </g>
            </g>
            <g transform="matrix(1,0,0,1,-2420,0)">
                <g transform="matrix(1.55475,0,0,1.34322,-208.546,-614.256)">
                    <rect x="163.153" y="580.939" width="12.217" height="15.707" style="fill:rgb(48,39,0);"/>
                </g>
                <g transform="matrix(1,0,0,1,-112.601,-416.08)">
                    <path d="M167.215,416.08L221.828,504.501L112.601,504.501L167.215,416.08Z" style="fill:rgb(8,149,0);"/>
                </g>
                <g transform="matrix(1,0,0,1,-112.601,-376.08)">
                    <path d="M167.215,416.08L221.828,504.501L112.601,504.501L167.215,416.08Z" style="fill:rgb(8,149,0);"/>
                </g>
                <g transform="matrix(1,0,0,1,-112.601,-336.08)">
                    <path d="M167.215,416.08L221.828,504.501L112.601,504.501L167.215,416.08Z" style="fill:rgb(8,149,0);"/>
                </g>
            </g>
            <g transform="matrix(1,0,0,1,-3300,0)">
                <g transform="matrix(1.55475,0,0,1.34322,-208.546,-614.256)">
                    <rect x="163.153" y="580.939" width="12.217" height="15.707" style="fill:rgb(48,39,0);"/>
                </g>
                <g transform="matrix(1,0,0,1,-112.601,-416.08)">
                    <path d="M167.215,416.08L221.828,504.501L112.601,504.501L167.215,416.08Z" style="fill:rgb(8,149,0);"/>
                </g>
                <g transform="matrix(1,0,0,1,-112.601,-376.08)">
                    <path d="M167.215,416.08L221.828,504.501L112.601,504.501L167.215,416.08Z" style="fill:rgb(8,149,0);"/>
                </g>
                <g transform="matrix(1,0,0,1,-112.601,-336.08)">
                    <path d="M167.215,416.08L221.828,504.501L112.601,504.501L167.215,416.08Z" style="fill:rgb(8,149,0);"/>
                </g>
            </g>
            <g transform="matrix(1,0,0,1,-3190,0)">
                <g transform="matrix(1.55475,0,0,1.34322,-208.546,-614.256)">
                    <rect x="163.153" y="580.939" width="12.217" height="15.707" style="fill:rgb(48,39,0);"/>
                </g>
                <g transform="matrix(1,0,0,1,-112.601,-416.08)">
                    <path d="M167.215,416.08L221.828,504.501L112.601,504.501L167.215,416.08Z" style="fill:rgb(8,149,0);"/>
                </g>
                <g transform="matrix(1,0,0,1,-112.601,-376.08)">
                    <path d="M167.215,416.08L221.828,504.501L112.601,504.501L167.215,416.08Z" style="fill:rgb(8,149,0);"/>
                </g>
                <g transform="matrix(1,0,0,1,-112.601,-336.08)">
                    <path d="M167.215,416.08L221.828,504.501L112.601,504.501L167.215,416.08Z" style="fill:rgb(8,149,0);"/>
                </g>
            </g>
            <g transform="matrix(1,0,0,1,-3410,0)">
                <g transform="matrix(1.55475,0,0,1.34322,-208.546,-614.256)">
                    <rect x="163.153" y="580.939" width="12.217" height="15.707" style="fill:rgb(48,39,0);"/>
                </g>
                <g transform="matrix(1,0,0,1,-112.601,-416.08)">
                    <path d="M167.215,416.08L221.828,504.501L112.601,504.501L167.215,416.08Z" style="fill:rgb(8,149,0);"/>
                </g>
                <g transform="matrix(1,0,0,1,-112.601,-376.08)">
                    <path d="M167.215,416.08L221.828,504.501L112.601,504.501L167.215,416.08Z" style="fill:rgb(8,149,0);"/>
                </g>
                <g transform="matrix(1,0,0,1,-112.601,-336.08)">
                    <path d="M167.215,416.08L221.828,504.501L112.601,504.501L167.215,416.08Z" style="fill:rgb(8,149,0);"/>
                </g>
            </g>
            <g transform="matrix(1,0,0,1,-2970,0)">
                <g transform="matrix(1.55475,0,0,1.34322,-208.546,-614.256)">
                    <rect x="163.153" y="580.939" width="12.217" height="15.707" style="fill:rgb(48,39,0);"/>
                </g>
                <g transform="matrix(1,0,0,1,-112.601,-416.08)">
                    <path d="M167.215,416.08L221.828,504.501L112.601,504.501L167.215,416.08Z" style="fill:rgb(8,149,0);"/>
                </g>
                <g transform="matrix(1,0,0,1,-112.601,-376.08)">
                    <path d="M167.215,416.08L221.828,504.501L112.601,504.501L167.215,416.08Z" style="fill:rgb(8,149,0);"/>
                </g>
                <g transform="matrix(1,0,0,1,-112.601,-336.08)">
                    <path d="M167.215,416.08L221.828,504.501L112.601,504.501L167.215,416.08Z" style="fill:rgb(8,149,0);"/>
                </g>
            </g>
            <g transform="matrix(1,0,0,1,-2860,0)">
                <g transform="matrix(1.55475,0,0,1.34322,-208.546,-614.256)">
                    <rect x="163.153" y="580.939" width="12.217" height="15.707" style="fill:rgb(48,39,0);"/>
                </g>
                <g transform="matrix(1,0,0,1,-112.601,-416.08)">
                    <path d="M167.215,416.08L221.828,504.501L112.601,504.501L167.215,416.08Z" style="fill:rgb(8,149,0);"/>
                </g>
                <g transform="matrix(1,0,0,1,-112.601,-376.08)">
                    <path d="M167.215,416.08L221.828,504.501L112.601,504.501L167.215,416.08Z" style="fill:rgb(8,149,0);"/>
                </g>
                <g transform="matrix(1,0,0,1,-112.601,-336.08)">
                    <path d="M167.215,416.08L221.828,504.501L112.601,504.501L167.215,416.08Z" style="fill:rgb(8,149,0);"/>
                </g>
            </g>
            <g transform="matrix(1,0,0,1,-3080,0)">
                <g transform="matrix(1.55475,0,0,1.34322,-208.546,-614.256)">
                    <rect x="163.153" y="580.939" width="12.217" height="15.707" style="fill:rgb(48,39,0);"/>
                </g>
                <g transform="matrix(1,0,0,1,-112.601,-416.08)">
                    <path d="M167.215,416.08L221.828,504.501L112.601,504.501L167.215,416.08Z" style="fill:rgb(8,149,0);"/>
                </g>
                <g transform="matrix(1,0,0,1,-112.601,-376.08)">
                    <path d="M167.215,416.08L221.828,504.501L112.601,504.501L167.215,416.08Z" style="fill:rgb(8,149,0);"/>
                </g>
                <g transform="matrix(1,0,0,1,-112.601,-336.08)">
                    <path d="M167.215,416.08L221.828,504.501L112.601,504.501L167.215,416.08Z" style="fill:rgb(8,149,0);"/>
                </g>
            </g>
            <g transform="matrix(1,0,0,1,-1320,0)">
                <g transform="matrix(1.55475,0,0,1.34322,-208.546,-614.256)">
                    <rect x="163.153" y="580.939" width="12.217" height="15.707" style="fill:rgb(48,39,0);"/>
                </g>
                <g transform="matrix(1,0,0,1,-112.601,-416.08)">
                    <path d="M167.215,416.08L221.828,504.501L112.601,504.501L167.215,416.08Z" style="fill:rgb(8,149,0);"/>
                </g>
                <g transform="matrix(1,0,0,1,-112.601,-376.08)">
                    <path d="M167.215,416.08L221.828,504.501L112.601,504.501L167.215,416.08Z" style="fill:rgb(8,149,0);"/>
                </g>
                <g transform="matrix(1,0,0,1,-112.601,-336.08)">
                    <path d="M167.215,416.08L221.828,504.501L112.601,504.501L167.215,416.08Z" style="fill:rgb(8,149,0);"/>
                </g>
            </g>
            <g transform="matrix(1,0,0,1,-1210,0)">
                <g transform="matrix(1.55475,0,0,1.34322,-208.546,-614.256)">
                    <rect x="163.153" y="580.939" width="12.217" height="15.707" style="fill:rgb(48,39,0);"/>
                </g>
                <g transform="matrix(1,0,0,1,-112.601,-416.08)">
                    <path d="M167.215,416.08L221.828,504.501L112.601,504.501L167.215,416.08Z" style="fill:rgb(8,149,0);"/>
                </g>
                <g transform="matrix(1,0,0,1,-112.601,-376.08)">
                    <path d="M167.215,416.08L221.828,504.501L112.601,504.501L167.215,416.08Z" style="fill:rgb(8,149,0);"/>
                </g>
                <g transform="matrix(1,0,0,1,-112.601,-336.08)">
                    <path d="M167.215,416.08L221.828,504.501L112.601,504.501L167.215,416.08Z" style="fill:rgb(8,149,0);"/>
                </g>
            </g>
            <g transform="matrix(1,0,0,1,-1430,0)">
                <g transform="matrix(1.55475,0,0,1.34322,-208.546,-614.256)">
                    <rect x="163.153" y="580.939" width="12.217" height="15.707" style="fill:rgb(48,39,0);"/>
                </g>
                <g transform="matrix(1,0,0,1,-112.601,-416.08)">
                    <path d="M167.215,416.08L221.828,504.501L112.601,504.501L167.215,416.08Z" style="fill:rgb(8,149,0);"/>
                </g>
                <g transform="matrix(1,0,0,1,-112.601,-376.08)">
                    <path d="M167.215,416.08L221.828,504.501L112.601,504.501L167.215,416.08Z" style="fill:rgb(8,149,0);"/>
                </g>
                <g transform="matrix(1,0,0,1,-112.601,-336.08)">
                    <path d="M167.215,416.08L221.828,504.501L112.601,504.501L167.215,416.08Z" style="fill:rgb(8,149,0);"/>
                </g>
            </g>
            <g transform="matrix(1,0,0,1,-990,0)">
                <g transform="matrix(1.55475,0,0,1.34322,-208.546,-614.256)">
                    <rect x="163.153" y="580.939" width="12.217" height="15.707" style="fill:rgb(48,39,0);"/>
                </g>
                <g transform="matrix(1,0,0,1,-112.601,-416.08)">
                    <path d="M167.215,416.08L221.828,504.501L112.601,504.501L167.215,416.08Z" style="fill:rgb(8,149,0);"/>
                </g>
                <g transform="matrix(1,0,0,1,-112.601,-376.08)">
                    <path d="M167.215,416.08L221.828,504.501L112.601,504.501L167.215,416.08Z" style="fill:rgb(8,149,0);"/>
                </g>
                <g transform="matrix(1,0,0,1,-112.601,-336.08)">
                    <path d="M167.215,416.08L221.828,504.501L112.601,504.501L167.215,416.08Z" style="fill:rgb(8,149,0);"/>
                </g>
            </g>
            <g transform="matrix(1,0,0,1,-880,0)">
                <g transform="matrix(1.55475,0,0,1.34322,-208.546,-614.256)">
                    <rect x="163.153" y="580.939" width="12.217" height="15.707" style="fill:rgb(48,39,0);"/>
                </g>
                <g transform="matrix(1,0,0,1,-112.601,-416.08)">
                    <path d="M167.215,416.08L221.828,504.501L112.601,504.501L167.215,416.08Z" style="fill:rgb(8,149,0);"/>
                </g>
                <g transform="matrix(1,0,0,1,-112.601,-376.08)">
                    <path d="M167.215,416.08L221.828,504.501L112.601,504.501L167.215,416.08Z" style="fill:rgb(8,149,0);"/>
                </g>
                <g transform="matrix(1,0,0,1,-112.601,-336.08)">
                    <path d="M167.215,416.08L221.828,504.501L112.601,504.501L167.215,416.08Z" style="fill:rgb(8,149,0);"/>
                </g>
            </g>
            <g transform="matrix(1,0,0,1,-1100,0)">
                <g transform="matrix(1.55475,0,0,1.34322,-208.546,-614.256)">
                    <rect x="163.153" y="580.939" width="12.217" height="15.707" style="fill:rgb(48,39,0);"/>
                </g>
                <g transform="matrix(1,0,0,1,-112.601,-416.08)">
                    <path d="M167.215,416.08L221.828,504.501L112.601,504.501L167.215,416.08Z" style="fill:rgb(8,149,0);"/>
                </g>
                <g transform="matrix(1,0,0,1,-112.601,-376.08)">
                    <path d="M167.215,416.08L221.828,504.501L112.601,504.501L167.215,416.08Z" style="fill:rgb(8,149,0);"/>
                </g>
                <g transform="matrix(1,0,0,1,-112.601,-336.08)">
                    <path d="M167.215,416.08L221.828,504.501L112.601,504.501L167.215,416.08Z" style="fill:rgb(8,149,0);"/>
                </g>
            </g>
            <g transform="matrix(1,0,0,1,-1980,0)">
                <g transform="matrix(1.55475,0,0,1.34322,-208.546,-614.256)">
                    <rect x="163.153" y="580.939" width="12.217" height="15.707" style="fill:rgb(48,39,0);"/>
                </g>
                <g transform="matrix(1,0,0,1,-112.601,-416.08)">
                    <path d="M167.215,416.08L221.828,504.501L112.601,504.501L167.215,416.08Z" style="fill:rgb(8,149,0);"/>
                </g>
                <g transform="matrix(1,0,0,1,-112.601,-376.08)">
                    <path d="M167.215,416.08L221.828,504.501L112.601,504.501L167.215,416.08Z" style="fill:rgb(8,149,0);"/>
                </g>
                <g transform="matrix(1,0,0,1,-112.601,-336.08)">
                    <path d="M167.215,416.08L221.828,504.501L112.601,504.501L167.215,416.08Z" style="fill:rgb(8,149,0);"/>
                </g>
            </g>
            <g transform="matrix(1,0,0,1,-1870,0)">
                <g transform="matrix(1.55475,0,0,1.34322,-208.546,-614.256)">
                    <rect x="163.153" y="580.939" width="12.217" height="15.707" style="fill:rgb(48,39,0);"/>
                </g>
                <g transform="matrix(1,0,0,1,-112.601,-416.08)">
                    <path d="M167.215,416.08L221.828,504.501L112.601,504.501L167.215,416.08Z" style="fill:rgb(8,149,0);"/>
                </g>
                <g transform="matrix(1,0,0,1,-112.601,-376.08)">
                    <path d="M167.215,416.08L221.828,504.501L112.601,504.501L167.215,416.08Z" style="fill:rgb(8,149,0);"/>
                </g>
                <g transform="matrix(1,0,0,1,-112.601,-336.08)">
                    <path d="M167.215,416.08L221.828,504.501L112.601,504.501L167.215,416.08Z" style="fill:rgb(8,149,0);"/>
                </g>
            </g>
            <g transform="matrix(1,0,0,1,-2090,0)">
                <g transform="matrix(1.55475,0,0,1.34322,-208.546,-614.256)">
                    <rect x="163.153" y="580.939" width="12.217" height="15.707" style="fill:rgb(48,39,0);"/>
                </g>
                <g transform="matrix(1,0,0,1,-112.601,-416.08)">
                    <path d="M167.215,416.08L221.828,504.501L112.601,504.501L167.215,416.08Z" style="fill:rgb(8,149,0);"/>
                </g>
                <g transform="matrix(1,0,0,1,-112.601,-376.08)">
                    <path d="M167.215,416.08L221.828,504.501L112.601,504.501L167.215,416.08Z" style="fill:rgb(8,149,0);"/>
                </g>
                <g transform="matrix(1,0,0,1,-112.601,-336.08)">
                    <path d="M167.215,416.08L221.828,504.501L112.601,504.501L167.215,416.08Z" style="fill:rgb(8,149,0);"/>
                </g>
            </g>
            <g transform="matrix(1,0,0,1,-1650,0)">
                <g transform="matrix(1.55475,0,0,1.34322,-208.546,-614.256)">
                    <rect x="163.153" y="580.939" width="12.217" height="15.707" style="fill:rgb(48,39,0);"/>
                </g>
                <g transform="matrix(1,0,0,1,-112.601,-416.08)">
                    <path d="M167.215,416.08L221.828,504.501L112.601,504.501L167.215,416.08Z" style="fill:rgb(8,149,0);"/>
                </g>
                <g transform="matrix(1,0,0,1,-112.601,-376.08)">
                    <path d="M167.215,416.08L221.828,504.501L112.601,504.501L167.215,416.08Z" style="fill:rgb(8,149,0);"/>
                </g>
                <g transform="matrix(1,0,0,1,-112.601,-336.08)">
                    <path d="M167.215,416.08L221.828,504.501L112.601,504.501L167.215,416.08Z" style="fill:rgb(8,149,0);"/>
                </g>
            </g>
            <g transform="matrix(1,0,0,1,-1540,0)">
                <g transform="matrix(1.55475,0,0,1.34322,-208.546,-614.256)">
                    <rect x="163.153" y="580.939" width="12.217" height="15.707" style="fill:rgb(48,39,0);"/>
                </g>
                <g transform="matrix(1,0,0,1,-112.601,-416.08)">
                    <path d="M167.215,416.08L221.828,504.501L112.601,504.501L167.215,416.08Z" style="fill:rgb(8,149,0);"/>
                </g>
                <g transform="matrix(1,0,0,1,-112.601,-376.08)">
                    <path d="M167.215,416.08L221.828,504.501L112.601,504.501L167.215,416.08Z" style="fill:rgb(8,149,0);"/>
                </g>
                <g transform="matrix(1,0,0,1,-112.601,-336.08)">
                    <path d="M167.215,416.08L221.828,504.501L112.601,504.501L167.215,416.08Z" style="fill:rgb(8,149,0);"/>
                </g>
            </g>
            <g transform="matrix(1,0,0,1,-1760,0)">
                <g transform="matrix(1.55475,0,0,1.34322,-208.546,-614.256)">
                    <rect x="163.153" y="580.939" width="12.217" height="15.707" style="fill:rgb(48,39,0);"/>
                </g>
                <g transform="matrix(1,0,0,1,-112.601,-416.08)">
                    <path d="M167.215,416.08L221.828,504.501L112.601,504.501L167.215,416.08Z" style="fill:rgb(8,149,0);"/>
                </g>
                <g transform="matrix(1,0,0,1,-112.601,-376.08)">
                    <path d="M167.215,416.08L221.828,504.501L112.601,504.501L167.215,416.08Z" style="fill:rgb(8,149,0);"/>
                </g>
                <g transform="matrix(1,0,0,1,-112.601,-336.08)">
                    <path d="M167.215,416.08L221.828,504.501L112.601,504.501L167.215,416.08Z" style="fill:rgb(8,149,0);"/>
                </g>
            </g>
        </g>
        <g transform="matrix(1,0,0,1,8689.74,533.333)">
            <g>
                <g transform="matrix(1.55475,0,0,1.34322,-208.546,-614.256)">
                    <rect x="163.153" y="580.939" width="12.217" height="15.707" style="fill:rgb(48,39,0);"/>
                </g>
                <g transform="matrix(1,0,0,1,-112.601,-416.08)">
                    <path d="M167.215,416.08L221.828,504.501L112.601,504.501L167.215,416.08Z" style="fill:rgb(8,149,0);"/>
                </g>
                <g transform="matrix(1,0,0,1,-112.601,-376.08)">
                    <path d="M167.215,416.08L221.828,504.501L112.601,504.501L167.215,416.08Z" style="fill:rgb(8,149,0);"/>
                </g>
                <g transform="matrix(1,0,0,1,-112.601,-336.08)">
                    <path d="M167.215,416.08L221.828,504.501L112.601,504.501L167.215,416.08Z" style="fill:rgb(8,149,0);"/>
                </g>
            </g>
            <g transform="matrix(1,0,0,1,110,0)">
                <g transform="matrix(1.55475,0,0,1.34322,-208.546,-614.256)">
                    <rect x="163.153" y="580.939" width="12.217" height="15.707" style="fill:rgb(48,39,0);"/>
                </g>
                <g transform="matrix(1,0,0,1,-112.601,-416.08)">
                    <path d="M167.215,416.08L221.828,504.501L112.601,504.501L167.215,416.08Z" style="fill:rgb(8,149,0);"/>
                </g>
                <g transform="matrix(1,0,0,1,-112.601,-376.08)">
                    <path d="M167.215,416.08L221.828,504.501L112.601,504.501L167.215,416.08Z" style="fill:rgb(8,149,0);"/>
                </g>
                <g transform="matrix(1,0,0,1,-112.601,-336.08)">
                    <path d="M167.215,416.08L221.828,504.501L112.601,504.501L167.215,416.08Z" style="fill:rgb(8,149,0);"/>
                </g>
            </g>
            <g transform="matrix(1,0,0,1,-110,0)">
                <g transform="matrix(1.55475,0,0,1.34322,-208.546,-614.256)">
                    <rect x="163.153" y="580.939" width="12.217" height="15.707" style="fill:rgb(48,39,0);"/>
                </g>
                <g transform="matrix(1,0,0,1,-112.601,-416.08)">
                    <path d="M167.215,416.08L221.828,504.501L112.601,504.501L167.215,416.08Z" style="fill:rgb(8,149,0);"/>
                </g>
                <g transform="matrix(1,0,0,1,-112.601,-376.08)">
                    <path d="M167.215,416.08L221.828,504.501L112.601,504.501L167.215,416.08Z" style="fill:rgb(8,149,0);"/>
                </g>
                <g transform="matrix(1,0,0,1,-112.601,-336.08)">
                    <path d="M167.215,416.08L221.828,504.501L112.601,504.501L167.215,416.08Z" style="fill:rgb(8,149,0);"/>
                </g>
            </g>
            <g transform="matrix(1,0,0,1,330,0)">
                <g transform="matrix(1.55475,0,0,1.34322,-208.546,-614.256)">
                    <rect x="163.153" y="580.939" width="12.217" height="15.707" style="fill:rgb(48,39,0);"/>
                </g>
                <g transform="matrix(1,0,0,1,-112.601,-416.08)">
                    <path d="M167.215,416.08L221.828,504.501L112.601,504.501L167.215,416.08Z" style="fill:rgb(8,149,0);"/>
                </g>
                <g transform="matrix(1,0,0,1,-112.601,-376.08)">
                    <path d="M167.215,416.08L221.828,504.501L112.601,504.501L167.215,416.08Z" style="fill:rgb(8,149,0);"/>
                </g>
                <g transform="matrix(1,0,0,1,-112.601,-336.08)">
                    <path d="M167.215,416.08L221.828,504.501L112.601,504.501L167.215,416.08Z" style="fill:rgb(8,149,0);"/>
                </g>
            </g>
            <g transform="matrix(1,0,0,1,440,0)">
                <g transform="matrix(1.55475,0,0,1.34322,-208.546,-614.256)">
                    <rect x="163.153" y="580.939" width="12.217" height="15.707" style="fill:rgb(48,39,0);"/>
                </g>
                <g transform="matrix(1,0,0,1,-112.601,-416.08)">
                    <path d="M167.215,416.08L221.828,504.501L112.601,504.501L167.215,416.08Z" style="fill:rgb(8,149,0);"/>
                </g>
                <g transform="matrix(1,0,0,1,-112.601,-376.08)">
                    <path d="M167.215,416.08L221.828,504.501L112.601,504.501L167.215,416.08Z" style="fill:rgb(8,149,0);"/>
                </g>
                <g transform="matrix(1,0,0,1,-112.601,-336.08)">
                    <path d="M167.215,416.08L221.828,504.501L112.601,504.501L167.215,416.08Z" style="fill:rgb(8,149,0);"/>
                </g>
            </g>
            <g transform="matrix(1,0,0,1,220,0)">
                <g transform="matrix(1.55475,0,0,1.34322,-208.546,-614.256)">
                    <rect x="163.153" y="580.939" width="12.217" height="15.707" style="fill:rgb(48,39,0);"/>
                </g>
                <g transform="matrix(1,0,0,1,-112.601,-416.08)">
                    <path d="M167.215,416.08L221.828,504.501L112.601,504.501L167.215,416.08Z" style="fill:rgb(8,149,0);"/>
                </g>
                <g transform="matrix(1,0,0,1,-112.601,-376.08)">
                    <path d="M167.215,416.08L221.828,504.501L112.601,504.501L167.215,416.08Z" style="fill:rgb(8,149,0);"/>
                </g>
                <g transform="matrix(1,0,0,1,-112.601,-336.08)">
                    <path d="M167.215,416.08L221.828,504.501L112.601,504.501L167.215,416.08Z" style="fill:rgb(8,149,0);"/>
                </g>
            </g>
            <g transform="matrix(1,0,0,1,-660,0)">
                <g transform="matrix(1.55475,0,0,1.34322,-208.546,-614.256)">
                    <rect x="163.153" y="580.939" width="12.217" height="15.707" style="fill:rgb(48,39,0);"/>
                </g>
                <g transform="matrix(1,0,0,1,-112.601,-416.08)">
                    <path d="M167.215,416.08L221.828,504.501L112.601,504.501L167.215,416.08Z" style="fill:rgb(8,149,0);"/>
                </g>
                <g transform="matrix(1,0,0,1,-112.601,-376.08)">
                    <path d="M167.215,416.08L221.828,504.501L112.601,504.501L167.215,416.08Z" style="fill:rgb(8,149,0);"/>
                </g>
                <g transform="matrix(1,0,0,1,-112.601,-336.08)">
                    <path d="M167.215,416.08L221.828,504.501L112.601,504.501L167.215,416.08Z" style="fill:rgb(8,149,0);"/>
                </g>
            </g>
            <g transform="matrix(1,0,0,1,-550,0)">
                <g transform="matrix(1.55475,0,0,1.34322,-208.546,-614.256)">
                    <rect x="163.153" y="580.939" width="12.217" height="15.707" style="fill:rgb(48,39,0);"/>
                </g>
                <g transform="matrix(1,0,0,1,-112.601,-416.08)">
                    <path d="M167.215,416.08L221.828,504.501L112.601,504.501L167.215,416.08Z" style="fill:rgb(8,149,0);"/>
                </g>
                <g transform="matrix(1,0,0,1,-112.601,-376.08)">
                    <path d="M167.215,416.08L221.828,504.501L112.601,504.501L167.215,416.08Z" style="fill:rgb(8,149,0);"/>
                </g>
                <g transform="matrix(1,0,0,1,-112.601,-336.08)">
                    <path d="M167.215,416.08L221.828,504.501L112.601,504.501L167.215,416.08Z" style="fill:rgb(8,149,0);"/>
                </g>
            </g>
            <g transform="matrix(1,0,0,1,-770,0)">
                <g transform="matrix(1.55475,0,0,1.34322,-208.546,-614.256)">
                    <rect x="163.153" y="580.939" width="12.217" height="15.707" style="fill:rgb(48,39,0);"/>
                </g>
                <g transform="matrix(1,0,0,1,-112.601,-416.08)">
                    <path d="M167.215,416.08L221.828,504.501L112.601,504.501L167.215,416.08Z" style="fill:rgb(8,149,0);"/>
                </g>
                <g transform="matrix(1,0,0,1,-112.601,-376.08)">
                    <path d="M167.215,416.08L221.828,504.501L112.601,504.501L167.215,416.08Z" style="fill:rgb(8,149,0);"/>
                </g>
                <g transform="matrix(1,0,0,1,-112.601,-336.08)">
                    <path d="M167.215,416.08L221.828,504.501L112.601,504.501L167.215,416.08Z" style="fill:rgb(8,149,0);"/>
                </g>
            </g>
            <g transform="matrix(1,0,0,1,-330,0)">
                <g transform="matrix(1.55475,0,0,1.34322,-208.546,-614.256)">
                    <rect x="163.153" y="580.939" width="12.217" height="15.707" style="fill:rgb(48,39,0);"/>
                </g>
                <g transform="matrix(1,0,0,1,-112.601,-416.08)">
                    <path d="M167.215,416.08L221.828,504.501L112.601,504.501L167.215,416.08Z" style="fill:rgb(8,149,0);"/>
                </g>
                <g transform="matrix(1,0,0,1,-112.601,-376.08)">
                    <path d="M167.215,416.08L221.828,504.501L112.601,504.501L167.215,416.08Z" style="fill:rgb(8,149,0);"/>
                </g>
                <g transform="matrix(1,0,0,1,-112.601,-336.08)">
                    <path d="M167.215,416.08L221.828,504.501L112.601,504.501L167.215,416.08Z" style="fill:rgb(8,149,0);"/>
                </g>
            </g>
            <g transform="matrix(1,0,0,1,-220,0)">
                <g transform="matrix(1.55475,0,0,1.34322,-208.546,-614.256)">
                    <rect x="163.153" y="580.939" width="12.217" height="15.707" style="fill:rgb(48,39,0);"/>
                </g>
                <g transform="matrix(1,0,0,1,-112.601,-416.08)">
                    <path d="M167.215,416.08L221.828,504.501L112.601,504.501L167.215,416.08Z" style="fill:rgb(8,149,0);"/>
                </g>
                <g transform="matrix(1,0,0,1,-112.601,-376.08)">
                    <path d="M167.215,416.08L221.828,504.501L112.601,504.501L167.215,416.08Z" style="fill:rgb(8,149,0);"/>
                </g>
                <g transform="matrix(1,0,0,1,-112.601,-336.08)">
                    <path d="M167.215,416.08L221.828,504.501L112.601,504.501L167.215,416.08Z" style="fill:rgb(8,149,0);"/>
                </g>
            </g>
            <g transform="matrix(1,0,0,1,-440,0)">
                <g transform="matrix(1.55475,0,0,1.34322,-208.546,-614.256)">
                    <rect x="163.153" y="580.939" width="12.217" height="15.707" style="fill:rgb(48,39,0);"/>
                </g>
                <g transform="matrix(1,0,0,1,-112.601,-416.08)">
                    <path d="M167.215,416.08L221.828,504.501L112.601,504.501L167.215,416.08Z" style="fill:rgb(8,149,0);"/>
                </g>
                <g transform="matrix(1,0,0,1,-112.601,-376.08)">
                    <path d="M167.215,416.08L221.828,504.501L112.601,504.501L167.215,416.08Z" style="fill:rgb(8,149,0);"/>
                </g>
                <g transform="matrix(1,0,0,1,-112.601,-336.08)">
                    <path d="M167.215,416.08L221.828,504.501L112.601,504.501L167.215,416.08Z" style="fill:rgb(8,149,0);"/>
                </g>
            </g>
            <g transform="matrix(1,0,0,1,1320,0)">
                <g transform="matrix(1.55475,0,0,1.34322,-208.546,-614.256)">
                    <rect x="163.153" y="580.939" width="12.217" height="15.707" style="fill:rgb(48,39,0);"/>
                </g>
                <g transform="matrix(1,0,0,1,-112.601,-416.08)">
                    <path d="M167.215,416.08L221.828,504.501L112.601,504.501L167.215,416.08Z" style="fill:rgb(8,149,0);"/>
                </g>
                <g transform="matrix(1,0,0,1,-112.601,-376.08)">
                    <path d="M167.215,416.08L221.828,504.501L112.601,504.501L167.215,416.08Z" style="fill:rgb(8,149,0);"/>
                </g>
                <g transform="matrix(1,0,0,1,-112.601,-336.08)">
                    <path d="M167.215,416.08L221.828,504.501L112.601,504.501L167.215,416.08Z" style="fill:rgb(8,149,0);"/>
                </g>
            </g>
            <g transform="matrix(1,0,0,1,1430,0)">
                <g transform="matrix(1.55475,0,0,1.34322,-208.546,-614.256)">
                    <rect x="163.153" y="580.939" width="12.217" height="15.707" style="fill:rgb(48,39,0);"/>
                </g>
                <g transform="matrix(1,0,0,1,-112.601,-416.08)">
                    <path d="M167.215,416.08L221.828,504.501L112.601,504.501L167.215,416.08Z" style="fill:rgb(8,149,0);"/>
                </g>
                <g transform="matrix(1,0,0,1,-112.601,-376.08)">
                    <path d="M167.215,416.08L221.828,504.501L112.601,504.501L167.215,416.08Z" style="fill:rgb(8,149,0);"/>
                </g>
                <g transform="matrix(1,0,0,1,-112.601,-336.08)">
                    <path d="M167.215,416.08L221.828,504.501L112.601,504.501L167.215,416.08Z" style="fill:rgb(8,149,0);"/>
                </g>
            </g>
            <g transform="matrix(1,0,0,1,1210,0)">
                <g transform="matrix(1.55475,0,0,1.34322,-208.546,-614.256)">
                    <rect x="163.153" y="580.939" width="12.217" height="15.707" style="fill:rgb(48,39,0);"/>
                </g>
                <g transform="matrix(1,0,0,1,-112.601,-416.08)">
                    <path d="M167.215,416.08L221.828,504.501L112.601,504.501L167.215,416.08Z" style="fill:rgb(8,149,0);"/>
                </g>
                <g transform="matrix(1,0,0,1,-112.601,-376.08)">
                    <path d="M167.215,416.08L221.828,504.501L112.601,504.501L167.215,416.08Z" style="fill:rgb(8,149,0);"/>
                </g>
                <g transform="matrix(1,0,0,1,-112.601,-336.08)">
                    <path d="M167.215,416.08L221.828,504.501L112.601,504.501L167.215,416.08Z" style="fill:rgb(8,149,0);"/>
                </g>
            </g>
            <g transform="matrix(1,0,0,1,1650,0)">
                <g transform="matrix(1.55475,0,0,1.34322,-208.546,-614.256)">
                    <rect x="163.153" y="580.939" width="12.217" height="15.707" style="fill:rgb(48,39,0);"/>
                </g>
                <g transform="matrix(1,0,0,1,-112.601,-416.08)">
                    <path d="M167.215,416.08L221.828,504.501L112.601,504.501L167.215,416.08Z" style="fill:rgb(8,149,0);"/>
                </g>
                <g transform="matrix(1,0,0,1,-112.601,-376.08)">
                    <path d="M167.215,416.08L221.828,504.501L112.601,504.501L167.215,416.08Z" style="fill:rgb(8,149,0);"/>
                </g>
                <g transform="matrix(1,0,0,1,-112.601,-336.08)">
                    <path d="M167.215,416.08L221.828,504.501L112.601,504.501L167.215,416.08Z" style="fill:rgb(8,149,0);"/>
                </g>
            </g>
            <g transform="matrix(1,0,0,1,1760,0)">
                <g transform="matrix(1.55475,0,0,1.34322,-208.546,-614.256)">
                    <rect x="163.153" y="580.939" width="12.217" height="15.707" style="fill:rgb(48,39,0);"/>
                </g>
                <g transform="matrix(1,0,0,1,-112.601,-416.08)">
                    <path d="M167.215,416.08L221.828,504.501L112.601,504.501L167.215,416.08Z" style="fill:rgb(8,149,0);"/>
                </g>
                <g transform="matrix(1,0,0,1,-112.601,-376.08)">
                    <path d="M167.215,416.08L221.828,504.501L112.601,504.501L167.215,416.08Z" style="fill:rgb(8,149,0);"/>
                </g>
                <g transform="matrix(1,0,0,1,-112.601,-336.08)">
                    <path d="M167.215,416.08L221.828,504.501L112.601,504.501L167.215,416.08Z" style="fill:rgb(8,149,0);"/>
                </g>
            </g>
            <g transform="matrix(1,0,0,1,1540,0)">
                <g transform="matrix(1.55475,0,0,1.34322,-208.546,-614.256)">
                    <rect x="163.153" y="580.939" width="12.217" height="15.707" style="fill:rgb(48,39,0);"/>
                </g>
                <g transform="matrix(1,0,0,1,-112.601,-416.08)">
                    <path d="M167.215,416.08L221.828,504.501L112.601,504.501L167.215,416.08Z" style="fill:rgb(8,149,0);"/>
                </g>
                <g transform="matrix(1,0,0,1,-112.601,-376.08)">
                    <path d="M167.215,416.08L221.828,504.501L112.601,504.501L167.215,416.08Z" style="fill:rgb(8,149,0);"/>
                </g>
                <g transform="matrix(1,0,0,1,-112.601,-336.08)">
                    <path d="M167.215,416.08L221.828,504.501L112.601,504.501L167.215,416.08Z" style="fill:rgb(8,149,0);"/>
                </g>
            </g>
            <g transform="matrix(1,0,0,1,660,0)">
                <g transform="matrix(1.55475,0,0,1.34322,-208.546,-614.256)">
                    <rect x="163.153" y="580.939" width="12.217" height="15.707" style="fill:rgb(48,39,0);"/>
                </g>
                <g transform="matrix(1,0,0,1,-112.601,-416.08)">
                    <path d="M167.215,416.08L221.828,504.501L112.601,504.501L167.215,416.08Z" style="fill:rgb(8,149,0);"/>
                </g>
                <g transform="matrix(1,0,0,1,-112.601,-376.08)">
                    <path d="M167.215,416.08L221.828,504.501L112.601,504.501L167.215,416.08Z" style="fill:rgb(8,149,0);"/>
                </g>
                <g transform="matrix(1,0,0,1,-112.601,-336.08)">
                    <path d="M167.215,416.08L221.828,504.501L112.601,504.501L167.215,416.08Z" style="fill:rgb(8,149,0);"/>
                </g>
            </g>
            <g transform="matrix(1,0,0,1,770,0)">
                <g transform="matrix(1.55475,0,0,1.34322,-208.546,-614.256)">
                    <rect x="163.153" y="580.939" width="12.217" height="15.707" style="fill:rgb(48,39,0);"/>
                </g>
                <g transform="matrix(1,0,0,1,-112.601,-416.08)">
                    <path d="M167.215,416.08L221.828,504.501L112.601,504.501L167.215,416.08Z" style="fill:rgb(8,149,0);"/>
                </g>
                <g transform="matrix(1,0,0,1,-112.601,-376.08)">
                    <path d="M167.215,416.08L221.828,504.501L112.601,504.501L167.215,416.08Z" style="fill:rgb(8,149,0);"/>
                </g>
                <g transform="matrix(1,0,0,1,-112.601,-336.08)">
                    <path d="M167.215,416.08L221.828,504.501L112.601,504.501L167.215,416.08Z" style="fill:rgb(8,149,0);"/>
                </g>
            </g>
            <g transform="matrix(1,0,0,1,550,0)">
                <g transform="matrix(1.55475,0,0,1.34322,-208.546,-614.256)">
                    <rect x="163.153" y="580.939" width="12.217" height="15.707" style="fill:rgb(48,39,0);"/>
                </g>
                <g transform="matrix(1,0,0,1,-112.601,-416.08)">
                    <path d="M167.215,416.08L221.828,504.501L112.601,504.501L167.215,416.08Z" style="fill:rgb(8,149,0);"/>
                </g>
                <g transform="matrix(1,0,0,1,-112.601,-376.08)">
                    <path d="M167.215,416.08L221.828,504.501L112.601,504.501L167.215,416.08Z" style="fill:rgb(8,149,0);"/>
                </g>
                <g transform="matrix(1,0,0,1,-112.601,-336.08)">
                    <path d="M167.215,416.08L221.828,504.501L112.601,504.501L167.215,416.08Z" style="fill:rgb(8,149,0);"/>
                </g>
            </g>
            <g transform="matrix(1,0,0,1,990,0)">
                <g transform="matrix(1.55475,0,0,1.34322,-208.546,-614.256)">
                    <rect x="163.153" y="580.939" width="12.217" height="15.707" style="fill:rgb(48,39,0);"/>
                </g>
                <g transform="matrix(1,0,0,1,-112.601,-416.08)">
                    <path d="M167.215,416.08L221.828,504.501L112.601,504.501L167.215,416.08Z" style="fill:rgb(8,149,0);"/>
                </g>
                <g transform="matrix(1,0,0,1,-112.601,-376.08)">
                    <path d="M167.215,416.08L221.828,504.501L112.601,504.501L167.215,416.08Z" style="fill:rgb(8,149,0);"/>
                </g>
                <g transform="matrix(1,0,0,1,-112.601,-336.08)">
                    <path d="M167.215,416.08L221.828,504.501L112.601,504.501L167.215,416.08Z" style="fill:rgb(8,149,0);"/>
                </g>
            </g>
            <g transform="matrix(1,0,0,1,1100,0)">
                <g transform="matrix(1.55475,0,0,1.34322,-208.546,-614.256)">
                    <rect x="163.153" y="580.939" width="12.217" height="15.707" style="fill:rgb(48,39,0);"/>
                </g>
                <g transform="matrix(1,0,0,1,-112.601,-416.08)">
                    <path d="M167.215,416.08L221.828,504.501L112.601,504.501L167.215,416.08Z" style="fill:rgb(8,149,0);"/>
                </g>
                <g transform="matrix(1,0,0,1,-112.601,-376.08)">
                    <path d="M167.215,416.08L221.828,504.501L112.601,504.501L167.215,416.08Z" style="fill:rgb(8,149,0);"/>
                </g>
                <g transform="matrix(1,0,0,1,-112.601,-336.08)">
                    <path d="M167.215,416.08L221.828,504.501L112.601,504.501L167.215,416.08Z" style="fill:rgb(8,149,0);"/>
                </g>
            </g>
            <g transform="matrix(1,0,0,1,880,0)">
                <g transform="matrix(1.55475,0,0,1.34322,-208.546,-614.256)">
                    <rect x="163.153" y="580.939" width="12.217" height="15.707" style="fill:rgb(48,39,0);"/>
                </g>
                <g transform="matrix(1,0,0,1,-112.601,-416.08)">
                    <path d="M167.215,416.08L221.828,504.501L112.601,504.501L167.215,416.08Z" style="fill:rgb(8,149,0);"/>
                </g>
                <g transform="matrix(1,0,0,1,-112.601,-376.08)">
                    <path d="M167.215,416.08L221.828,504.501L112.601,504.501L167.215,416.08Z" style="fill:rgb(8,149,0);"/>
                </g>
                <g transform="matrix(1,0,0,1,-112.601,-336.08)">
                    <path d="M167.215,416.08L221.828,504.501L112.601,504.501L167.215,416.08Z" style="fill:rgb(8,149,0);"/>
                </g>
            </g>
            <g transform="matrix(1,0,0,1,-2640,0)">
                <g transform="matrix(1.55475,0,0,1.34322,-208.546,-614.256)">
                    <rect x="163.153" y="580.939" width="12.217" height="15.707" style="fill:rgb(48,39,0);"/>
                </g>
                <g transform="matrix(1,0,0,1,-112.601,-416.08)">
                    <path d="M167.215,416.08L221.828,504.501L112.601,504.501L167.215,416.08Z" style="fill:rgb(8,149,0);"/>
                </g>
                <g transform="matrix(1,0,0,1,-112.601,-376.08)">
                    <path d="M167.215,416.08L221.828,504.501L112.601,504.501L167.215,416.08Z" style="fill:rgb(8,149,0);"/>
                </g>
                <g transform="matrix(1,0,0,1,-112.601,-336.08)">
                    <path d="M167.215,416.08L221.828,504.501L112.601,504.501L167.215,416.08Z" style="fill:rgb(8,149,0);"/>
                </g>
            </g>
            <g transform="matrix(1,0,0,1,-2530,0)">
                <g transform="matrix(1.55475,0,0,1.34322,-208.546,-614.256)">
                    <rect x="163.153" y="580.939" width="12.217" height="15.707" style="fill:rgb(48,39,0);"/>
                </g>
                <g transform="matrix(1,0,0,1,-112.601,-416.08)">
                    <path d="M167.215,416.08L221.828,504.501L112.601,504.501L167.215,416.08Z" style="fill:rgb(8,149,0);"/>
                </g>
                <g transform="matrix(1,0,0,1,-112.601,-376.08)">
                    <path d="M167.215,416.08L221.828,504.501L112.601,504.501L167.215,416.08Z" style="fill:rgb(8,149,0);"/>
                </g>
                <g transform="matrix(1,0,0,1,-112.601,-336.08)">
                    <path d="M167.215,416.08L221.828,504.501L112.601,504.501L167.215,416.08Z" style="fill:rgb(8,149,0);"/>
                </g>
            </g>
            <g transform="matrix(1,0,0,1,-2750,0)">
                <g transform="matrix(1.55475,0,0,1.34322,-208.546,-614.256)">
                    <rect x="163.153" y="580.939" width="12.217" height="15.707" style="fill:rgb(48,39,0);"/>
                </g>
                <g transform="matrix(1,0,0,1,-112.601,-416.08)">
                    <path d="M167.215,416.08L221.828,504.501L112.601,504.501L167.215,416.08Z" style="fill:rgb(8,149,0);"/>
                </g>
                <g transform="matrix(1,0,0,1,-112.601,-376.08)">
                    <path d="M167.215,416.08L221.828,504.501L112.601,504.501L167.215,416.08Z" style="fill:rgb(8,149,0);"/>
                </g>
                <g transform="matrix(1,0,0,1,-112.601,-336.08)">
                    <path d="M167.215,416.08L221.828,504.501L112.601,504.501L167.215,416.08Z" style="fill:rgb(8,149,0);"/>
                </g>
            </g>
            <g transform="matrix(1,0,0,1,-2310,0)">
                <g transform="matrix(1.55475,0,0,1.34322,-208.546,-614.256)">
                    <rect x="163.153" y="580.939" width="12.217" height="15.707" style="fill:rgb(48,39,0);"/>
                </g>
                <g transform="matrix(1,0,0,1,-112.601,-416.08)">
                    <path d="M167.215,416.08L221.828,504.501L112.601,504.501L167.215,416.08Z" style="fill:rgb(8,149,0);"/>
                </g>
                <g transform="matrix(1,0,0,1,-112.601,-376.08)">
                    <path d="M167.215,416.08L221.828,504.501L112.601,504.501L167.215,416.08Z" style="fill:rgb(8,149,0);"/>
                </g>
                <g transform="matrix(1,0,0,1,-112.601,-336.08)">
                    <path d="M167.215,416.08L221.828,504.501L112.601,504.501L167.215,416.08Z" style="fill:rgb(8,149,0);"/>
                </g>
            </g>
            <g transform="matrix(1,0,0,1,-2200,0)">
                <g transform="matrix(1.55475,0,0,1.34322,-208.546,-614.256)">
                    <rect x="163.153" y="580.939" width="12.217" height="15.707" style="fill:rgb(48,39,0);"/>
                </g>
                <g transform="matrix(1,0,0,1,-112.601,-416.08)">
                    <path d="M167.215,416.08L221.828,504.501L112.601,504.501L167.215,416.08Z" style="fill:rgb(8,149,0);"/>
                </g>
                <g transform="matrix(1,0,0,1,-112.601,-376.08)">
                    <path d="M167.215,416.08L221.828,504.501L112.601,504.501L167.215,416.08Z" style="fill:rgb(8,149,0);"/>
                </g>
                <g transform="matrix(1,0,0,1,-112.601,-336.08)">
                    <path d="M167.215,416.08L221.828,504.501L112.601,504.501L167.215,416.08Z" style="fill:rgb(8,149,0);"/>
                </g>
            </g>
            <g transform="matrix(1,0,0,1,-2420,0)">
                <g transform="matrix(1.55475,0,0,1.34322,-208.546,-614.256)">
                    <rect x="163.153" y="580.939" width="12.217" height="15.707" style="fill:rgb(48,39,0);"/>
                </g>
                <g transform="matrix(1,0,0,1,-112.601,-416.08)">
                    <path d="M167.215,416.08L221.828,504.501L112.601,504.501L167.215,416.08Z" style="fill:rgb(8,149,0);"/>
                </g>
                <g transform="matrix(1,0,0,1,-112.601,-376.08)">
                    <path d="M167.215,416.08L221.828,504.501L112.601,504.501L167.215,416.08Z" style="fill:rgb(8,149,0);"/>
                </g>
                <g transform="matrix(1,0,0,1,-112.601,-336.08)">
                    <path d="M167.215,416.08L221.828,504.501L112.601,504.501L167.215,416.08Z" style="fill:rgb(8,149,0);"/>
                </g>
            </g>
            <g transform="matrix(1,0,0,1,-3300,0)">
                <g transform="matrix(1.55475,0,0,1.34322,-208.546,-614.256)">
                    <rect x="163.153" y="580.939" width="12.217" height="15.707" style="fill:rgb(48,39,0);"/>
                </g>
                <g transform="matrix(1,0,0,1,-112.601,-416.08)">
                    <path d="M167.215,416.08L221.828,504.501L112.601,504.501L167.215,416.08Z" style="fill:rgb(8,149,0);"/>
                </g>
                <g transform="matrix(1,0,0,1,-112.601,-376.08)">
                    <path d="M167.215,416.08L221.828,504.501L112.601,504.501L167.215,416.08Z" style="fill:rgb(8,149,0);"/>
                </g>
                <g transform="matrix(1,0,0,1,-112.601,-336.08)">
                    <path d="M167.215,416.08L221.828,504.501L112.601,504.501L167.215,416.08Z" style="fill:rgb(8,149,0);"/>
                </g>
            </g>
            <g transform="matrix(1,0,0,1,-3190,0)">
                <g transform="matrix(1.55475,0,0,1.34322,-208.546,-614.256)">
                    <rect x="163.153" y="580.939" width="12.217" height="15.707" style="fill:rgb(48,39,0);"/>
                </g>
                <g transform="matrix(1,0,0,1,-112.601,-416.08)">
                    <path d="M167.215,416.08L221.828,504.501L112.601,504.501L167.215,416.08Z" style="fill:rgb(8,149,0);"/>
                </g>
                <g transform="matrix(1,0,0,1,-112.601,-376.08)">
                    <path d="M167.215,416.08L221.828,504.501L112.601,504.501L167.215,416.08Z" style="fill:rgb(8,149,0);"/>
                </g>
                <g transform="matrix(1,0,0,1,-112.601,-336.08)">
                    <path d="M167.215,416.08L221.828,504.501L112.601,504.501L167.215,416.08Z" style="fill:rgb(8,149,0);"/>
                </g>
            </g>
            <g transform="matrix(1,0,0,1,-3410,0)">
                <g transform="matrix(1.55475,0,0,1.34322,-208.546,-614.256)">
                    <rect x="163.153" y="580.939" width="12.217" height="15.707" style="fill:rgb(48,39,0);"/>
                </g>
                <g transform="matrix(1,0,0,1,-112.601,-416.08)">
                    <path d="M167.215,416.08L221.828,504.501L112.601,504.501L167.215,416.08Z" style="fill:rgb(8,149,0);"/>
                </g>
                <g transform="matrix(1,0,0,1,-112.601,-376.08)">
                    <path d="M167.215,416.08L221.828,504.501L112.601,504.501L167.215,416.08Z" style="fill:rgb(8,149,0);"/>
                </g>
                <g transform="matrix(1,0,0,1,-112.601,-336.08)">
                    <path d="M167.215,416.08L221.828,504.501L112.601,504.501L167.215,416.08Z" style="fill:rgb(8,149,0);"/>
                </g>
            </g>
            <g transform="matrix(1,0,0,1,-2970,0)">
                <g transform="matrix(1.55475,0,0,1.34322,-208.546,-614.256)">
                    <rect x="163.153" y="580.939" width="12.217" height="15.707" style="fill:rgb(48,39,0);"/>
                </g>
                <g transform="matrix(1,0,0,1,-112.601,-416.08)">
                    <path d="M167.215,416.08L221.828,504.501L112.601,504.501L167.215,416.08Z" style="fill:rgb(8,149,0);"/>
                </g>
                <g transform="matrix(1,0,0,1,-112.601,-376.08)">
                    <path d="M167.215,416.08L221.828,504.501L112.601,504.501L167.215,416.08Z" style="fill:rgb(8,149,0);"/>
                </g>
                <g transform="matrix(1,0,0,1,-112.601,-336.08)">
                    <path d="M167.215,416.08L221.828,504.501L112.601,504.501L167.215,416.08Z" style="fill:rgb(8,149,0);"/>
                </g>
            </g>
            <g transform="matrix(1,0,0,1,-2860,0)">
                <g transform="matrix(1.55475,0,0,1.34322,-208.546,-614.256)">
                    <rect x="163.153" y="580.939" width="12.217" height="15.707" style="fill:rgb(48,39,0);"/>
                </g>
                <g transform="matrix(1,0,0,1,-112.601,-416.08)">
                    <path d="M167.215,416.08L221.828,504.501L112.601,504.501L167.215,416.08Z" style="fill:rgb(8,149,0);"/>
                </g>
                <g transform="matrix(1,0,0,1,-112.601,-376.08)">
                    <path d="M167.215,416.08L221.828,504.501L112.601,504.501L167.215,416.08Z" style="fill:rgb(8,149,0);"/>
                </g>
                <g transform="matrix(1,0,0,1,-112.601,-336.08)">
                    <path d="M167.215,416.08L221.828,504.501L112.601,504.501L167.215,416.08Z" style="fill:rgb(8,149,0);"/>
                </g>
            </g>
            <g transform="matrix(1,0,0,1,-3080,0)">
                <g transform="matrix(1.55475,0,0,1.34322,-208.546,-614.256)">
                    <rect x="163.153" y="580.939" width="12.217" height="15.707" style="fill:rgb(48,39,0);"/>
                </g>
                <g transform="matrix(1,0,0,1,-112.601,-416.08)">
                    <path d="M167.215,416.08L221.828,504.501L112.601,504.501L167.215,416.08Z" style="fill:rgb(8,149,0);"/>
                </g>
                <g transform="matrix(1,0,0,1,-112.601,-376.08)">
                    <path d="M167.215,416.08L221.828,504.501L112.601,504.501L167.215,416.08Z" style="fill:rgb(8,149,0);"/>
                </g>
                <g transform="matrix(1,0,0,1,-112.601,-336.08)">
                    <path d="M167.215,416.08L221.828,504.501L112.601,504.501L167.215,416.08Z" style="fill:rgb(8,149,0);"/>
                </g>
            </g>
            <g transform="matrix(1,0,0,1,-1320,0)">
                <g transform="matrix(1.55475,0,0,1.34322,-208.546,-614.256)">
                    <rect x="163.153" y="580.939" width="12.217" height="15.707" style="fill:rgb(48,39,0);"/>
                </g>
                <g transform="matrix(1,0,0,1,-112.601,-416.08)">
                    <path d="M167.215,416.08L221.828,504.501L112.601,504.501L167.215,416.08Z" style="fill:rgb(8,149,0);"/>
                </g>
                <g transform="matrix(1,0,0,1,-112.601,-376.08)">
                    <path d="M167.215,416.08L221.828,504.501L112.601,504.501L167.215,416.08Z" style="fill:rgb(8,149,0);"/>
                </g>
                <g transform="matrix(1,0,0,1,-112.601,-336.08)">
                    <path d="M167.215,416.08L221.828,504.501L112.601,504.501L167.215,416.08Z" style="fill:rgb(8,149,0);"/>
                </g>
            </g>
            <g transform="matrix(1,0,0,1,-1210,0)">
                <g transform="matrix(1.55475,0,0,1.34322,-208.546,-614.256)">
                    <rect x="163.153" y="580.939" width="12.217" height="15.707" style="fill:rgb(48,39,0);"/>
                </g>
                <g transform="matrix(1,0,0,1,-112.601,-416.08)">
                    <path d="M167.215,416.08L221.828,504.501L112.601,504.501L167.215,416.08Z" style="fill:rgb(8,149,0);"/>
                </g>
                <g transform="matrix(1,0,0,1,-112.601,-376.08)">
                    <path d="M167.215,416.08L221.828,504.501L112.601,504.501L167.215,416.08Z" style="fill:rgb(8,149,0);"/>
                </g>
                <g transform="matrix(1,0,0,1,-112.601,-336.08)">
                    <path d="M167.215,416.08L221.828,504.501L112.601,504.501L167.215,416.08Z" style="fill:rgb(8,149,0);"/>
                </g>
            </g>
            <g transform="matrix(1,0,0,1,-1430,0)">
                <g transform="matrix(1.55475,0,0,1.34322,-208.546,-614.256)">
                    <rect x="163.153" y="580.939" width="12.217" height="15.707" style="fill:rgb(48,39,0);"/>
                </g>
                <g transform="matrix(1,0,0,1,-112.601,-416.08)">
                    <path d="M167.215,416.08L221.828,504.501L112.601,504.501L167.215,416.08Z" style="fill:rgb(8,149,0);"/>
                </g>
                <g transform="matrix(1,0,0,1,-112.601,-376.08)">
                    <path d="M167.215,416.08L221.828,504.501L112.601,504.501L167.215,416.08Z" style="fill:rgb(8,149,0);"/>
                </g>
                <g transform="matrix(1,0,0,1,-112.601,-336.08)">
                    <path d="M167.215,416.08L221.828,504.501L112.601,504.501L167.215,416.08Z" style="fill:rgb(8,149,0);"/>
                </g>
            </g>
            <g transform="matrix(1,0,0,1,-990,0)">
                <g transform="matrix(1.55475,0,0,1.34322,-208.546,-614.256)">
                    <rect x="163.153" y="580.939" width="12.217" height="15.707" style="fill:rgb(48,39,0);"/>
                </g>
                <g transform="matrix(1,0,0,1,-112.601,-416.08)">
                    <path d="M167.215,416.08L221.828,504.501L112.601,504.501L167.215,416.08Z" style="fill:rgb(8,149,0);"/>
                </g>
                <g transform="matrix(1,0,0,1,-112.601,-376.08)">
                    <path d="M167.215,416.08L221.828,504.501L112.601,504.501L167.215,416.08Z" style="fill:rgb(8,149,0);"/>
                </g>
                <g transform="matrix(1,0,0,1,-112.601,-336.08)">
                    <path d="M167.215,416.08L221.828,504.501L112.601,504.501L167.215,416.08Z" style="fill:rgb(8,149,0);"/>
                </g>
            </g>
            <g transform="matrix(1,0,0,1,-880,0)">
                <g transform="matrix(1.55475,0,0,1.34322,-208.546,-614.256)">
                    <rect x="163.153" y="580.939" width="12.217" height="15.707" style="fill:rgb(48,39,0);"/>
                </g>
                <g transform="matrix(1,0,0,1,-112.601,-416.08)">
                    <path d="M167.215,416.08L221.828,504.501L112.601,504.501L167.215,416.08Z" style="fill:rgb(8,149,0);"/>
                </g>
                <g transform="matrix(1,0,0,1,-112.601,-376.08)">
                    <path d="M167.215,416.08L221.828,504.501L112.601,504.501L167.215,416.08Z" style="fill:rgb(8,149,0);"/>
                </g>
                <g transform="matrix(1,0,0,1,-112.601,-336.08)">
                    <path d="M167.215,416.08L221.828,504.501L112.601,504.501L167.215,416.08Z" style="fill:rgb(8,149,0);"/>
                </g>
            </g>
            <g transform="matrix(1,0,0,1,-1100,0)">
                <g transform="matrix(1.55475,0,0,1.34322,-208.546,-614.256)">
                    <rect x="163.153" y="580.939" width="12.217" height="15.707" style="fill:rgb(48,39,0);"/>
                </g>
                <g transform="matrix(1,0,0,1,-112.601,-416.08)">
                    <path d="M167.215,416.08L221.828,504.501L112.601,504.501L167.215,416.08Z" style="fill:rgb(8,149,0);"/>
                </g>
                <g transform="matrix(1,0,0,1,-112.601,-376.08)">
                    <path d="M167.215,416.08L221.828,504.501L112.601,504.501L167.215,416.08Z" style="fill:rgb(8,149,0);"/>
                </g>
                <g transform="matrix(1,0,0,1,-112.601,-336.08)">
                    <path d="M167.215,416.08L221.828,504.501L112.601,504.501L167.215,416.08Z" style="fill:rgb(8,149,0);"/>
                </g>
            </g>
            <g transform="matrix(1,0,0,1,-1980,0)">
                <g transform="matrix(1.55475,0,0,1.34322,-208.546,-614.256)">
                    <rect x="163.153" y="580.939" width="12.217" height="15.707" style="fill:rgb(48,39,0);"/>
                </g>
                <g transform="matrix(1,0,0,1,-112.601,-416.08)">
                    <path d="M167.215,416.08L221.828,504.501L112.601,504.501L167.215,416.08Z" style="fill:rgb(8,149,0);"/>
                </g>
                <g transform="matrix(1,0,0,1,-112.601,-376.08)">
                    <path d="M167.215,416.08L221.828,504.501L112.601,504.501L167.215,416.08Z" style="fill:rgb(8,149,0);"/>
                </g>
                <g transform="matrix(1,0,0,1,-112.601,-336.08)">
                    <path d="M167.215,416.08L221.828,504.501L112.601,504.501L167.215,416.08Z" style="fill:rgb(8,149,0);"/>
                </g>
            </g>
            <g transform="matrix(1,0,0,1,-1870,0)">
                <g transform="matrix(1.55475,0,0,1.34322,-208.546,-614.256)">
                    <rect x="163.153" y="580.939" width="12.217" height="15.707" style="fill:rgb(48,39,0);"/>
                </g>
                <g transform="matrix(1,0,0,1,-112.601,-416.08)">
                    <path d="M167.215,416.08L221.828,504.501L112.601,504.501L167.215,416.08Z" style="fill:rgb(8,149,0);"/>
                </g>
                <g transform="matrix(1,0,0,1,-112.601,-376.08)">
                    <path d="M167.215,416.08L221.828,504.501L112.601,504.501L167.215,416.08Z" style="fill:rgb(8,149,0);"/>
                </g>
                <g transform="matrix(1,0,0,1,-112.601,-336.08)">
                    <path d="M167.215,416.08L221.828,504.501L112.601,504.501L167.215,416.08Z" style="fill:rgb(8,149,0);"/>
                </g>
            </g>
            <g transform="matrix(1,0,0,1,-2090,0)">
                <g transform="matrix(1.55475,0,0,1.34322,-208.546,-614.256)">
                    <rect x="163.153" y="580.939" width="12.217" height="15.707" style="fill:rgb(48,39,0);"/>
                </g>
                <g transform="matrix(1,0,0,1,-112.601,-416.08)">
                    <path d="M167.215,416.08L221.828,504.501L112.601,504.501L167.215,416.08Z" style="fill:rgb(8,149,0);"/>
                </g>
                <g transform="matrix(1,0,0,1,-112.601,-376.08)">
                    <path d="M167.215,416.08L221.828,504.501L112.601,504.501L167.215,416.08Z" style="fill:rgb(8,149,0);"/>
                </g>
                <g transform="matrix(1,0,0,1,-112.601,-336.08)">
                    <path d="M167.215,416.08L221.828,504.501L112.601,504.501L167.215,416.08Z" style="fill:rgb(8,149,0);"/>
                </g>
            </g>
            <g transform="matrix(1,0,0,1,-1650,0)">
                <g transform="matrix(1.55475,0,0,1.34322,-208.546,-614.256)">
                    <rect x="163.153" y="580.939" width="12.217" height="15.707" style="fill:rgb(48,39,0);"/>
                </g>
                <g transform="matrix(1,0,0,1,-112.601,-416.08)">
                    <path d="M167.215,416.08L221.828,504.501L112.601,504.501L167.215,416.08Z" style="fill:rgb(8,149,0);"/>
                </g>
                <g transform="matrix(1,0,0,1,-112.601,-376.08)">
                    <path d="M167.215,416.08L221.828,504.501L112.601,504.501L167.215,416.08Z" style="fill:rgb(8,149,0);"/>
                </g>
                <g transform="matrix(1,0,0,1,-112.601,-336.08)">
                    <path d="M167.215,416.08L221.828,504.501L112.601,504.501L167.215,416.08Z" style="fill:rgb(8,149,0);"/>
                </g>
            </g>
            <g transform="matrix(1,0,0,1,-1540,0)">
                <g transform="matrix(1.55475,0,0,1.34322,-208.546,-614.256)">
                    <rect x="163.153" y="580.939" width="12.217" height="15.707" style="fill:rgb(48,39,0);"/>
                </g>
                <g transform="matrix(1,0,0,1,-112.601,-416.08)">
                    <path d="M167.215,416.08L221.828,504.501L112.601,504.501L167.215,416.08Z" style="fill:rgb(8,149,0);"/>
                </g>
                <g transform="matrix(1,0,0,1,-112.601,-376.08)">
                    <path d="M167.215,416.08L221.828,504.501L112.601,504.501L167.215,416.08Z" style="fill:rgb(8,149,0);"/>
                </g>
                <g transform="matrix(1,0,0,1,-112.601,-336.08)">
                    <path d="M167.215,416.08L221.828,504.501L112.601,504.501L167.215,416.08Z" style="fill:rgb(8,149,0);"/>
                </g>
            </g>
            <g transform="matrix(1,0,0,1,-1760,0)">
                <g transform="matrix(1.55475,0,0,1.34322,-208.546,-614.256)">
                    <rect x="163.153" y="580.939" width="12.217" height="15.707" style="fill:rgb(48,39,0);"/>
                </g>
                <g transform="matrix(1,0,0,1,-112.601,-416.08)">
                    <path d="M167.215,416.08L221.828,504.501L112.601,504.501L167.215,416.08Z" style="fill:rgb(8,149,0);"/>
                </g>
                <g transform="matrix(1,0,0,1,-112.601,-376.08)">
                    <path d="M167.215,416.08L221.828,504.501L112.601,504.501L167.215,416.08Z" style="fill:rgb(8,149,0);"/>
                </g>
                <g transform="matrix(1,0,0,1,-112.601,-336.08)">
                    <path d="M167.215,416.08L221.828,504.501L112.601,504.501L167.215,416.08Z" style="fill:rgb(8,149,0);"/>
                </g>
            </g>
        </g>
    </g>
</svg>
