<?xml version="1.0" encoding="UTF-8" standalone="no"?>
<!DOCTYPE svg PUBLIC "-//W3C//DTD SVG 1.1//EN" "http://www.w3.org/Graphics/SVG/1.1/DTD/svg11.dtd">
<svg width="100%" height="100%" viewBox="0 0 774 330" version="1.1" xmlns="http://www.w3.org/2000/svg" xmlns:xlink="http://www.w3.org/1999/xlink" xml:space="preserve" xmlns:serif="http://www.serif.com/" style="fill-rule:evenodd;clip-rule:evenodd;stroke-linejoin:round;stroke-miterlimit:2;">
    <g transform="matrix(-0.576837,0,0,0.576837,3670.66,-547.995)">
        <path d="M6363.42,1088.02L5023.81,1044.59L5021.81,1114.59L5071.81,1274.59L5171.81,1344.59L5223.12,1355.89L5270.62,1335.89L5320.62,1385.89L5478.81,1426.72L5518.41,1438.88L5677.85,1456.21L5795.78,1456.21L5899.8,1385.89L6038.48,1402.47L6152.58,1368.02L6223.42,1352.61L6303.42,1297.24L6360.64,1157.68L6363.42,1088.02Z" style="fill:rgb(114,114,114);"/>
        <path d="M6178.42,1338.02L6039.27,1387.32L5863.41,1352.61L5885.4,1380.89L5863.41,1401.3L5799.27,1440.89L5658.81,1441.3L5598.81,1401.3L5538.81,1420.14L5468.81,1391.3L5350.62,1365.89L5270.62,1317.32L5181.81,1318.73L5137.02,1303.02L5093.28,1270.16L5083.28,1271.59L5045.68,1190.98L5071.81,1274.59L5171.81,1344.59L5223.12,1355.89L5247.84,1362.57L5270.62,1409.12L5282.51,1373.22L5438.53,1425.89L5514.52,1459.32L5538.81,1483.08L5559.88,1463.91L5598.81,1452.66L5637.9,1470L5726.44,1504.67L5738.57,1520.36L5750.58,1504.67L5799.27,1474.74L5919.27,1387.32L6001.95,1441.3L6021.15,1474.74L6039.27,1435.33L6053.96,1414.21L6152.58,1368.02L6223.42,1352.61L6303.42,1297.24L6319.86,1257.13L6259.05,1303.02L6178.42,1338.02Z" style="fill:rgb(98,98,98);"/>
        <path d="M6363.42,1088.02L5023.81,1044.59L5021.81,1114.59L5071.81,1173.16L5101.81,1234.59L5223.12,1254.46L5270.62,1245.89L5340.62,1275.89L5428.81,1299.87L5525.21,1348.65L5595.21,1338.65L5655.21,1362.79L5705.56,1308.69L5767.91,1296.64L5863.42,1298.02L5973.42,1278.02L6093.18,1286.59L6243.42,1248.02L6313.42,1188.02L6360.64,1157.68L6363.42,1088.02Z" style="fill:rgb(121,121,121);"/>
        <path d="M6363.42,1088.02L5023.81,1044.59L5031.81,1074.59L5041.81,1084.59L5047.7,1098.09L5059.01,1105.89L5071.81,1114.59L5071.81,1131.15L5085.41,1135.89L5105.05,1171.66L5151.81,1169.59L5174.95,1197.19L5172.78,1175.29L5185.86,1169.59L5213.16,1189.16L5261.7,1183.02L5310.62,1197.19L5340.62,1207.19L5390.62,1203.5L5448.81,1234.7L5479.88,1245.37L5529.88,1286.97L5574.09,1286.97L5559.88,1261.97L5574.09,1243.27L5589.88,1226.97L5624.88,1233.27L5649.88,1216.97L5664.88,1236.97L5748.81,1212.59L5805.93,1228.63L5845.93,1218.63L5870.93,1223.63L5885.93,1212.53L5975.95,1197.19L5995.11,1208.89L6016.11,1197.19L6083.42,1219.32L6131.97,1203.5L6166.64,1212.59L6237.22,1207.99L6232.22,1226.69L6217.22,1247.99L6252.22,1231.69L6277.22,1206.69L6295.98,1203.02L6311.42,1185.02L6328.42,1183.02L6332.42,1172.02L6349.71,1157.13L6355.42,1134.02L6361.42,1105.02L6363.42,1088.02Z" style="fill:rgb(84,84,84);"/>
        <path d="M6363.42,1088.02L6283.42,1008.02L6203.42,988.023L5863.42,950L5470,950L5360.52,960L5190,960L5091.81,984.594L5023.81,1044.59L5059.01,1084.59L5081.81,1094.25L5085.41,1114.59L5111.81,1144.59L5181.81,1150.91L5218.37,1173.56L5259.65,1165.78L5310.62,1175.89L5390.62,1182.21L5448.81,1213.4L5508.81,1213.4L5558.81,1221.3L5603.01,1211.3L5633.01,1201.3L5683.01,1191.3L5715.91,1201.3L5748.81,1191.3L5803.42,1208.02L5863.42,1208.02L5953.25,1188.02L5993.42,1188.02L6083.42,1198.02L6143.42,1188.02L6183.42,1186.73L6203.42,1181.73L6235.98,1192.62L6295.98,1181.73L6349.71,1135.83L6363.42,1088.02Z" style="fill:rgb(145,234,112);"/>
        <g transform="matrix(1.08719,0,0,1.32535,-2051.97,-220.508)">
            <path d="M7691.54,956.384L7661.54,946.384L7611.54,946.384L7551.54,956.384L7502.79,946.384L7461.54,946.384L7427.16,939.509L7372.31,921.568L7304.38,922.351L7248.57,928.891L7156.47,915.476L7106.96,885.655L7086.34,885.998L7128.97,922.351L7208.7,938.366L7248.57,946.384L7304.38,941.971L7357.4,941.971L7413.41,967.009L7447.79,987.634L7471.54,1016.38L7511.54,1026.38L7561.54,1026.38L7601.54,1035.55L7631.54,1043.86L7661.54,1043.86L7681.54,1035.55L7701.54,1026.38L7711.54,996.384L7708.91,976.384L7691.54,956.384Z" style="fill:rgb(0,236,232);"/>
        </g>
    </g>
</svg>
