<?xml version="1.0" encoding="UTF-8" standalone="no"?>
<!DOCTYPE svg PUBLIC "-//W3C//DTD SVG 1.1//EN" "http://www.w3.org/Graphics/SVG/1.1/DTD/svg11.dtd">
<svg width="100%" height="100%" viewBox="0 0 402 853" version="1.1" xmlns="http://www.w3.org/2000/svg" xmlns:xlink="http://www.w3.org/1999/xlink" xml:space="preserve" xmlns:serif="http://www.serif.com/" style="fill-rule:evenodd;clip-rule:evenodd;stroke-linejoin:round;stroke-miterlimit:2;">
    <g id="idle-frame-1" serif:id="idle frame 1" transform="matrix(1.02319,0,0,1.02319,-726.468,-171.385)">
        <g id="cloths">
            <g transform="matrix(-2.32022,0,0,2.32022,3258.65,-1307.62)">
                <path d="M1027.34,928L1009.03,927.765L1009.03,983.794L1007.95,985.949L1007.95,990L1015.34,994.569L1027.34,994.569L1032.34,989.569L1027.34,982.906L1027.34,928Z"/>
            </g>
            <path d="M1010,374.618L886.549,350L846,352L824,369L827,374L816,385L816.336,400L815,410L788.568,460L739,439L730,444L722,460L717,480L716,500L710,540L720,620L720,700L730,740L745,760L760,820L790,850L787,860L791,863L790.756,866.5L800,882.5L800.5,896L811,900.5L822,899L802,951L813,956L823,952L821,963L829,966L838,965L840,954L848,966L858,966L864,955L881,987L920,995L925,993L942,1001L1022,990L1049,978L1062,965.479L1102.5,910L1102.5,900L1089.5,884L1091,876L1084,866.5L1100,857.381L1033.05,686.268L1026.5,634.5L1035.5,644.5L1068.5,615.5L1062.2,600L1063,590L1064,561L1046,490L1010,374.618Z" style="fill:rgb(150,150,150);"/>
            <path d="M1100,857.381L1086,859L1064,839.5L1063.5,860.149L1034.4,873.5L1005,880L965,905.342L942,1001L1022,990L1049,978L1062,965.479L1102.5,910L1102.5,900L1089.5,884L1091,876L1084,866.5L1100,857.381Z" style="fill:rgb(56,56,56);"/>
            <g id="boot" transform="matrix(1,0,0,1,16.7276,1)">
                <g transform="matrix(2.32022,0,0,2.32022,-1370.38,-1308.62)">
                    <path d="M1027.34,928L1009.03,927.765L1009.03,983.794L1007.95,985.949L1007.95,990L1015.34,994.569L1027.34,994.569L1032.34,989.569L1027.34,982.906L1027.34,928Z"/>
                </g>
                <g transform="matrix(2.32022,0,0,2.32022,-1370.38,-1308.62)">
                    <path d="M1027.12,993.707L1015.06,993.492L1007.95,988.966L1007.95,990L1015.34,994.569L1027.34,994.569L1032.34,989.569L1031.89,988.966L1027.12,993.707Z"/>
                </g>
            </g>
            <path d="M965.891,814.284L942,1001L960,986L999.048,973.039L1026.5,967.372L1050,950L1064,904.5L1084,892L1102.5,900L1089.5,884L1091,876L1084,866.5L1100,857.381L1033.05,686.268L1026.5,634.5L1030,600L970,600L970,733L965.891,814.284Z" style="fill:rgb(124,124,124);"/>
            <path d="M930,490L874.607,440L874,609L930,490Z" style="fill:rgb(131,131,131);"/>
            <path d="M1010,374.618L1014.92,540L1000,561L970,600L1000,625L1026.5,625L1026.5,634.5L1035.5,644.5L1068.5,615.5L1062.2,600L1063,590L1064,561L1046,490L1010,374.618Z" style="fill:rgb(108,108,108);"/>
            <path d="M733.772,640L720,620L720,700L730,740L745,760L760,820L790,850L787,860L791,863L790.756,866.5L800,882.5L800.5,896L811,900.5L822,899L824,890L838,850L833,909L846,846.513L848,890.448L858,831.292L870,850L881,820L876.4,820L870,796.53L864.144,817.353L860,817.353L857.705,822.285L852.236,814.441L846,817.353L824,805.794L820,866.232L805.828,846.513L795,822.285L790,790L780,760L780,700L770,680L763.426,640L743.449,680L733.772,640Z" style="fill:rgb(81,81,81);"/>
            <path d="M881,439L886.549,350L846,352L824,369L827,374L816,385L816.336,400L815,410L788.568,460L739,439L730,444L722,460L717,480L716,500L710,540L720,620L733.772,640L743.449,680L763.426,640L770,680L780,700L780,760L790,790L795,822.285L805.828,846.513L820,866.232L824,805.794L846,817.353L852.236,814.441L857.705,822.285L860,817.353L864.144,817.353L870,796.53L876.4,820L881,820L870,730L881,439Z" style="fill:rgb(167,167,167);"/>
            <g transform="matrix(1.26056,-0.13887,0.118676,1.07725,-245.797,67.5085)">
                <path d="M741.901,479.015L742.548,472.137L742.032,441.688L739.79,440.219L738,441L732.653,444.405L726.5,456.5L727,472.5L730,478.5L734.945,480.293L741.901,479.015Z" style="fill:rgb(73,73,73);"/>
            </g>
        </g>
        <g id="staff" transform="matrix(1,0,0,1,-2,0)">
            <path d="M773,254L757,240L752,255L745,269L743,282L743.047,287L750,300L748,508L744,545L747,612L750,729L755,761L760,809L766,988L779,988L774,855L772.342,788L767.684,726L761,613L760,544L766,528L761,432L762,370L767.684,363L767,334L769,327L769,320L773,312L769,304L773,298L772,295L776.049,289L776,284L773,280L775.098,279L775,270L769,263L773,254Z" style="fill:rgb(94,70,66);"/>
        </g>
        <g transform="matrix(0.993986,-0.109503,0.109503,0.993986,-45.1192,84.0741)">
            <path d="M759,444.5L746.5,437.5L738,441L731.5,447L726.5,456.5L727,472.5L730,478.5L734.945,480.293L747.5,478L753.5,479L758.5,479L760,475.5L758,472.5L761.5,472.5L764.704,469.5L765,465.5L769,461.5L764,456L767.5,456.5L766.5,450L759,444.5Z" style="fill:rgb(224,170,145);"/>
        </g>
        <g id="hat-and-face" serif:id="hat and face">
            <path d="M945.964,195.936L930,167.5L926,192L916.375,214L905,239L892.506,259.595L864.144,269L852,272.5L840.5,278.5L838.5,292.5L842,305L855.5,316.5L867.5,324L999,321L1013,315L1021.5,307.5L1029,297L1029.5,290.5L1009,277L980,269L972,263L970.47,237L945.964,195.936Z" style="fill:rgb(183,183,183);"/>
            <path d="M953.59,270L920,265.319L890,269L864.144,269L852,272.5L840.5,278.5L838.5,292.5L842,305L855.5,316.5L867.5,324L999,321L1013,315L1021.5,307.5L1029,297L1029.5,290.5L1009,277L984.703,270.297L953.59,270Z" style="fill:rgb(94,94,94);"/>
            <path d="M890,269L864.144,269L852,272.5L840.5,278.5L838.5,292.5L842,305L855.5,316.5L874.782,328.76L898.382,271.666" style="fill:rgb(124,124,124);"/>
            <g id="hair">
                <path d="M970,271.978L935.522,271.978L944.324,374.618L995,420L1004.77,427.47L1013.56,439.198L1009.65,427.47L1017.47,428.447L1030.18,440L1028.22,431.379L1035,440L1029.5,417.697L1037.02,420.629L1027.25,404.991L1025.29,395.218L1018.45,384.467L1022.85,386.911L1019.43,381.535L1018.89,370.785L1017.47,358.08L1011.86,349.284L1007.7,336.578L1010.32,339.51L1006.72,327.782L1012.59,331.692L1004.73,320.941L994.016,308.236L992.062,302.737L991.084,301.394L986.198,297.485L982.064,288.689L986.198,289.666L977.402,280.87L970,271.978Z" style="fill:rgb(194,194,194);"/>
                <path d="M964.012,260L900,260L889.877,275.984L888.465,279.893L881,290L873.805,302.372L877.714,299.769L872.319,315.808L866.162,323.778L864.788,327.782L864.52,331.692L861.099,338.533L857.19,347.329L859.248,346.352L858.167,351.4L864.639,351.238L866.162,357.102L870.576,361.989L873.316,364.921L875,370L900,385L950,370L938.927,323.778L964.012,260Z" style="fill:rgb(213,213,213);"/>
            </g>
            <path id="face" d="M961,276L960,245.75L934,240L910,245.75L906.25,280L902,285L905,304L923,334L939,334L960,300L961,276Z" style="fill:rgb(231,190,171);"/>
            <g transform="matrix(-1,0,0,1,1864.44,0)">
                <path d="M924.424,288L920.455,285L915.449,285L912,287.407L911.435,290L916,291L924.424,290.566L924.424,288Z" style="fill:white;"/>
            </g>
            <g id="eye-right" serif:id="eye right" transform="matrix(-1,0,0,1,1864.44,0)">
                <path d="M924.424,288L920.455,285L915.449,285L912,287.407L911.435,290L916,291L924.424,290.566L924.424,288Z" style="fill:white;"/>
                <clipPath id="_clip1">
                    <path d="M924.424,288L920.455,285L915.449,285L912,287.407L911.435,290L916,291L924.424,290.566L924.424,288Z"/>
                </clipPath>
                <g clip-path="url(#_clip1)">
                    <g transform="matrix(1.36173,0,0,1.36173,-332.152,-104.627)">
                        <g transform="matrix(0.707107,0.707107,-0.707107,0.707107,473.255,-564.039)">
                            <path d="M919,286.5L917.515,285.894L916,286.5L915.383,287.996L916,289.5L917.504,290.117L919,289.5L919.621,288L919,286.5Z" style="fill:rgb(108,195,243);"/>
                        </g>
                        <g transform="matrix(0.326028,0.326028,-0.328319,0.328319,713.803,-105.305)">
                            <path d="M919,286.5L917.515,285.894L916,286.5L915.383,287.996L916,289.5L917.504,290.117L919,289.5L919.621,288L919,286.5Z"/>
                        </g>
                    </g>
                </g>
                <g transform="matrix(1,0,0,-1,0,578.5)">
                    <path d="M922.816,286.5L919,285.5L914.5,286.73L911.5,288.5L916.239,287.5L924.424,287.934L922.816,286.5Z" style="fill:rgb(227,179,156);"/>
                </g>
                <path d="M923,286L919.5,284.5L915.229,285L912,287.407L919,285.5L924.424,288L923,286Z" style="fill:rgb(227,179,156);"/>
            </g>
            <g id="eye-left" serif:id="eye left">
                <path d="M924.424,288L920.455,285L915.449,285L912,287.407L911.435,290L916,291L924.424,290.566L924.424,288Z" style="fill:white;"/>
                <clipPath id="_clip2">
                    <path d="M924.424,288L920.455,285L915.449,285L912,287.407L911.435,290L916,291L924.424,290.566L924.424,288Z"/>
                </clipPath>
                <g clip-path="url(#_clip2)">
                    <g transform="matrix(1.36173,0,0,1.36173,-332.152,-104.627)">
                        <g transform="matrix(0.707107,0.707107,-0.707107,0.707107,473.255,-564.039)">
                            <path d="M919,286.5L917.515,285.894L916,286.5L915.383,287.996L916,289.5L917.504,290.117L919,289.5L919.621,288L919,286.5Z" style="fill:rgb(108,195,243);"/>
                        </g>
                        <g transform="matrix(0.326028,0.326028,-0.328319,0.328319,713.803,-105.305)">
                            <path d="M919,286.5L917.515,285.894L916,286.5L915.383,287.996L916,289.5L917.504,290.117L919,289.5L919.621,288L919,286.5Z"/>
                        </g>
                    </g>
                </g>
                <g transform="matrix(1,0,0,-1,0,578.5)">
                    <path d="M922.816,286.5L919,285.5L914.5,286.73L911.5,288.5L916.239,287.5L924.424,287.934L922.816,286.5Z" style="fill:rgb(227,179,156);"/>
                </g>
                <path d="M923,286L919.5,284.5L915.229,285L912,287.407L919,285.5L924.424,288L923,286Z" style="fill:rgb(227,179,156);"/>
            </g>
            <g id="nose">
                <path d="M937,283L927,283L927.5,288.5L925.5,301.5L924.5,304.5L923,305.5L922,307.5L925,311.634L937.5,311.634L939,308.5L937,305.5L937,301L935.5,289.5L937,283Z" style="fill:rgb(227,180,159);"/>
                <path d="M937,309.5L934,311.5L937.5,311.5L937,309.5Z" style="fill:rgb(117,91,79);"/>
                <g transform="matrix(1,0,0,1,0,-0.365648)">
                    <path d="M925,309.731L928.215,312L925,312L925,309.731Z" style="fill:rgb(117,91,79);"/>
                </g>
            </g>
            <path d="M946,322L941,314L923,313L917,318L909,323L901,329L885,345L872.319,370L873.79,387.399L872.319,397.173L874.616,397.173L876.021,413.787L875.759,452.881L878.582,444.085L881.061,473.405L879.669,480.246L882.3,488.065L883.578,502.724L881.623,512.498L884.118,509.566L886.021,513.964L885,520L900.681,512.986L906.057,513.475L910.943,508.1L914.852,508.1L920,505.349L924.137,507.611L926.986,512.498L929.024,512.986L930.978,516.583L934.317,520L935.376,514.941L937.984,512.986L938.797,509.077L941,507.216L946,500.281L950,490L956.389,495.394L959.81,502.236L962.742,503.702L964.696,512.045L967.14,512.986L967.628,517.384L970,520L972.515,514.452L971.538,509.559L972.994,506.634L974.526,499.792L973.492,496.86L975.839,493.928L977.809,485.133L980.334,481.223L980.217,474.382L981.968,466.563L982.288,460.699L984.595,454.835L987.221,443.107L990.107,444.085L988.753,436.266L992.037,421.606L997.509,427.268L997.509,397.173L985.22,379.581L990.107,380.558L974.998,358.08L956,332L946,322Z" style="fill:rgb(241,241,241);"/>
            <path d="M898,272.5L925,271L974,274L1002,290L1021.5,307.5L1029,297L1029.5,290.5L1009,277L984.703,270.297L953.59,270L920,265.319L890,269L891.115,274.029L898,272.5Z" style="fill:rgb(124,124,124);"/>
            <path d="M892.506,259.595L864.144,269L890,269L920,265.319L953.59,270L984.703,270.297L980,269L972,263L970.47,237L945.964,195.936L930,167.5L926,192L916.375,214L905,239L892.506,259.595Z" style="fill:rgb(183,183,183);"/>
        </g>
    </g>
</svg>
