<?xml version="1.0" encoding="UTF-8" standalone="no"?>
<!DOCTYPE svg PUBLIC "-//W3C//DTD SVG 1.1//EN" "http://www.w3.org/Graphics/SVG/1.1/DTD/svg11.dtd">
<svg width="100%" height="100%" viewBox="0 0 642 851" version="1.1" xmlns="http://www.w3.org/2000/svg" xmlns:xlink="http://www.w3.org/1999/xlink" xml:space="preserve" xmlns:serif="http://www.serif.com/" style="fill-rule:evenodd;clip-rule:evenodd;stroke-linejoin:round;stroke-miterlimit:2;">
    <g id="hero-frame-2" serif:id="hero frame 2" transform="matrix(-1,0,0,1,646.662,0)">
        <path id="hat-inside" serif:id="hat inside" d="M555.5,90.083L525,90L467.168,100L435,110L405,120L370,140L384,145L450,145L485,143L514,138L526,134L564,115L577,105L585,95L555.5,90.083Z" style="fill:rgb(94,94,94);"/>
        <g id="body">
            <g id="left" transform="matrix(0.679713,0.733478,-0.733478,0.679713,451.232,-216.797)">
                <path d="M460,460L380,460L420,620L376.311,770L358,824L363,835L455,835L465,825L455,815L438.11,811.188L423.5,807.51L430.351,780L500,620L460,460Z" style="fill:rgb(32,32,32);"/>
            </g>
            <g id="right" transform="matrix(0.789204,-0.614131,0.614131,0.789204,-135.044,352.381)">
                <path d="M380,460L300,480L270,610L165.106,747L165.106,760L241,805L274.238,805.056L275.712,786.462L237.207,756L337.982,619.483L380,460Z" style="fill:rgb(32,32,32);"/>
            </g>
            <g transform="matrix(1,0,0,1,182,38)">
                <path d="M331,60L327.5,43L318,30.5L305,21.5L286.5,15.5L265,19.5L250.5,35L244.5,53.5L246,71.5L252.5,90L250,103L242,115L252.5,131L272.5,141.5L283.906,144.5L296.5,132L298,123L306,122.5L316,124L321.455,119L320.5,109L323,97L331.5,100.5L337,99L339.5,93L328,72L331.5,67L331,60Z" style="fill:rgb(231,190,171);"/>
                <clipPath id="_clip1">
                    <path d="M331,60L327.5,43L318,30.5L305,21.5L286.5,15.5L265,19.5L250.5,35L244.5,53.5L246,71.5L252.5,90L250,103L242,115L252.5,131L272.5,141.5L283.906,144.5L296.5,132L298,123L306,122.5L316,124L321.455,119L320.5,109L323,97L331.5,100.5L337,99L339.5,93L328,72L331.5,67L331,60Z"/>
                </clipPath>
                <g clip-path="url(#_clip1)">
                    <g transform="matrix(0.714286,0,0,0.952381,-36.1429,-20.7381)">
                        <path d="M509.75,121.75L502.75,121L500,122.5L500.75,125.5L506.75,126.25L510.75,124L509.75,121.75Z" style="fill:rgb(218,154,125);"/>
                    </g>
                    <g transform="matrix(0.987104,0.160083,-0.160083,0.987104,-158.535,-115.635)">
                        <path d="M506.203,103.941L507.652,104.951L509.311,107.49L507.374,110.49L503.318,111.148L500.093,109.997L498.293,108.263L499.787,104.982L506.203,103.941Z" style="fill:rgb(246,246,246);"/>
                        <clipPath id="_clip2">
                            <path d="M506.203,103.941L507.652,104.951L509.311,107.49L507.374,110.49L503.318,111.148L500.093,109.997L498.293,108.263L499.787,104.982L506.203,103.941Z"/>
                        </clipPath>
                        <g clip-path="url(#_clip2)">
                            <g transform="matrix(0.683379,-0.110826,0.0960496,0.592262,151.283,99.3993)">
                                <path d="M502,105.5L504,107L505,108.5L504,110.151L502,110.5L499.5,109.334L498.5,107.683L499.5,106.056L502,105.5Z" style="fill:rgb(134,189,212);"/>
                            </g>
                        </g>
                    </g>
                </g>
            </g>
        </g>
        <g id="hand">
            <g transform="matrix(0.989764,0.142711,-0.142711,0.989764,138.185,39.9076)">
                <path d="M327.162,116.429L285.256,86.929L195.664,203.929L171.256,253.929L231.256,243.929L391.756,213.929L404.756,213.429L419.756,202.929L433.256,203.929L433.256,194.929L439.256,189.929L437.756,183.429L441.756,177.929L441.256,171.429L445.756,167.429L437.756,154.429L412.256,157.429L389.756,179.429L382.756,181.429L251.256,201.825L327.162,116.429Z" style="fill:rgb(224,170,145);"/>
            </g>
            <g transform="matrix(0.989764,0.142711,-0.142711,0.989764,-52.3145,130.339)">
                <path d="M341.899,137.238L356.899,94.759L406.899,33.238L431.899,9.741L461.899,-2.762L486.899,12.238L479.899,29.238L452.899,62.238L499.899,58.238L521.899,64.238L544.899,62.238L528.584,105.088L492.071,171.261L492.071,197.238L416.899,187.811L376.899,171.261L356.899,157.238L341.899,137.238Z" style="fill:rgb(115,115,115);"/>
            </g>
            <g transform="matrix(0.989764,0.142711,-0.142711,0.989764,425.991,14.6515)">
                <path d="M218,27L195,16L193,26L185,29L179,34L180,42L175,45L178,52L177.464,57L166,91L155,123L147.636,168L152,168L147,188L125,275L118,310L117,349L95,422L50,580L46,619L14.463,735L3,785L30,740L62.5,621L66.342,584.905L107,430L133,349L133,316L145,275L171,145L178,125L181,107L189,86L207,69L203,61L207,54L220,48L228,35L216.228,36L218,27Z" style="fill:rgb(94,70,66);"/>
            </g>
            <g transform="matrix(-0.989764,-0.142711,-0.142711,0.989764,618.638,44.9547)">
                <path d="M48,220.5L38.5,218L30,231L35,235.5L34,241.5L38,246.5L37,254.5L43,258.5L43,267.5L51,266.5L55,262.5L50,257.5L54,251.5L49,246.5L52,238.5L47,234.5L53,227.5L48,220.5Z" style="fill:rgb(224,170,145);"/>
            </g>
            <g transform="matrix(-0.989764,-0.142711,-0.142711,0.989764,651.657,47.1897)">
                <path d="M119,245L97,224L94,233L88,241L87,248L103,243L119,245Z" style="fill:rgb(224,170,145);"/>
            </g>
        </g>
        <g id="clothes">
            <g transform="matrix(1,0,0,1,-36.8994,182.762)">
                <path d="M546.899,57.238L476.899,-9.362L351.899,157.238L202.005,541.301L241.899,572.238L244.324,587.238L271.899,602.238L321.899,619.808L351.899,625.107L406.899,632.238L461.899,632.238L451.899,619.808L466.899,612.238L486.899,617.238L491.899,627.155L521.508,637.238L572.399,627.155L561.508,597.238L566.899,477.238L536.899,327.238L546.899,57.238Z" style="fill:rgb(150,150,150);"/>
            </g>
            <g transform="matrix(1,0,0,1,200,105)">
                <path d="M170,220L120,220L120,415L114.049,515L160,411.126L170,365L218,261.243L170,220Z" style="fill:rgb(56,56,56);"/>
            </g>
            <g transform="matrix(1,0,0,1,-36.8994,182.762)">
                <path d="M376.899,247.238L387.202,167.238L406.899,117.238L444.899,57.238L461.899,-2.762L486.899,12.238L506.899,33.238L511.899,17.238L472.899,-12.975L406.899,-32.762L390.539,-22.762L376.899,-2.762L371.899,17.238L362.371,37.238L356.899,47.238L350.211,62.39L344.899,77.238L334.899,97.238L306.899,147.238L276.899,177.238L256.899,217.238L216.899,273.51L185.899,327.238L106.899,377.238L66.899,396.238L45.899,427.238L41.899,447.238L55.899,467.238L55.899,491.694L66.899,511.972L76.899,510.238L85.899,511.238L92.899,516.238L115.899,531.238L143.398,541.301L154.383,552.791L166.899,560.787L178.959,557.238L185.899,549.299L202.005,541.301L246.899,491.694L286.899,417.238L316.899,387.238L376.899,247.238Z" style="fill:rgb(94,94,94);"/>
            </g>
            <g id="hand-left" serif:id="hand left" transform="matrix(0.970668,0.240423,-0.240423,0.970668,72.8324,-96.9)">
                <g transform="matrix(0.989758,-0.142754,0.142754,0.989758,230.214,84.2466)">
                    <path d="M230.584,220.361L228.584,219.79L217.584,221.361L124.778,221.861L124.778,271.861L238.584,262.361L241.224,256.202L233.584,237.361L231.584,222.861L230.584,220.361Z" style="fill:rgb(128,128,128);"/>
                </g>
                <g transform="matrix(1,0,0,1,-36.8994,182.762)">
                    <path d="M379.541,88.716L380.5,66.191L406.899,33.238L431.899,9.741L445.31,1.347L466.647,4.303L483.843,15.497L479.066,34.194L479.047,85.71L498.23,91.889L528.14,89.003L543.14,123.452L477.432,160.332L438.556,161.047L397.814,162.492L373.923,134.373L379.541,88.716Z" style="fill:rgb(115,115,115);"/>
                </g>
                <g transform="matrix(0.989758,-0.142754,0.142754,0.989758,80.2279,116.559)">
                    <path d="M384.647,212.291L386.647,226.791L394.286,245.631L403.147,245.291L418.147,234.791L431.647,235.791L431.647,226.791L437.647,221.791L436.147,215.291L440.147,209.791L439.647,203.291L444.147,199.291L436.147,186.291L410.647,189.291L388.147,211.291L384.647,212.291Z" style="fill:rgb(224,170,145);"/>
                </g>
            </g>
        </g>
        <path d="M505,135L498,137.5L493,135.7L486,122L471,122L445,162L451,181.76L475,200L470,216L470,219L462,220L458,225L459,229L465,233L460,239L471,239L481,241L486,240L484,247L489.402,254L492,266L501,253L511,245L513,230L520,223L520,191L503,153L506,147L508,139L505,135Z" style="fill:rgb(241,241,241);"/>
        <g id="hair" transform="matrix(1,0,0,1,182,38)">
            <path d="M252.5,131L270,145L269,131L283,147L280.733,138L288,141L285,136L284,129L280,125L280.733,120L291,116L293,100L298,92L304,84L301,76L301,61L310,42L325,38L318,30.5L305,21.5L286.5,15.5L265,19.5L250.5,35L244.5,53.5L236,68L219,84.286L187,111L176,121L162,136L152,178L191,143L190,152L189,159L214,138L212,147L222,136L225,124L228,128L224,142L243,131L252.5,131Z" style="fill:rgb(213,213,213);"/>
        </g>
        <g id="hat-outside" serif:id="hat outside" transform="matrix(1,0,0,1,15,40)">
            <path d="M500,35L480,15L435,-10L395,-25L335,-25L320,-40L330,-15L375,0L395,25L400,60L395,70L375,80L355,100L390,80L420,70L452.168,60L480,55L510,50L540,50L570,55L555,45L515,40L500,35Z" style="fill:rgb(183,183,183);"/>
        </g>
    </g>
</svg>
