<?xml version="1.0" encoding="UTF-8" standalone="no"?>
<!DOCTYPE svg PUBLIC "-//W3C//DTD SVG 1.1//EN" "http://www.w3.org/Graphics/SVG/1.1/DTD/svg11.dtd">
<svg width="100%" height="100%" viewBox="0 0 400 288" version="1.1" xmlns="http://www.w3.org/2000/svg" xmlns:xlink="http://www.w3.org/1999/xlink" xml:space="preserve" xmlns:serif="http://www.serif.com/" style="fill-rule:evenodd;clip-rule:evenodd;stroke-linejoin:round;stroke-miterlimit:2;">
    <g id="fume" transform="matrix(0.210526,0,0,0.210526,-1176.85,-4.21053)">
        <g transform="matrix(1.37894,0,0,1.45752,-2357.84,-13.889)">
            <path d="M6695.61,23.251L6717.37,23.251L6733.32,25.996L6742.75,36.973L6750,52.5L6739.12,62.649L6731.87,81.57L6717.37,83.549L6706.49,88.43L6691.98,85L6677.48,85L6666.6,71.278L6660,52.5L6666.6,36.973L6678.93,26.682L6695.61,23.251Z" style="fill:rgb(147,147,147);"/>
        </g>
        <g transform="matrix(1.37894,0,0,1.45752,-2357.84,-13.889)">
            <path d="M6661.05,55.498L6667.33,51.048L6676.03,49.323L6684.01,44.52L6691.26,50.695L6702.14,56.184L6715.92,60.987L6732.6,59.614L6745.32,56.87L6739.12,62.649L6731.87,81.57L6717.37,83.549L6706.49,88.43L6691.98,85L6677.48,85L6666.6,71.278L6661.05,55.498Z" style="fill:rgb(117,117,117);"/>
        </g>
    </g>
    <g id="fume1" serif:id="fume" transform="matrix(0.210526,0,0,0.210526,-1063.79,69.2895)">
        <g transform="matrix(1.37894,0,0,1.45752,-2357.84,-13.889)">
            <path d="M6695.61,23.251L6717.37,23.251L6733.32,25.996L6742.75,36.973L6750,52.5L6739.12,62.649L6731.87,81.57L6717.37,83.549L6706.49,88.43L6691.98,85L6677.48,85L6666.6,71.278L6660,52.5L6666.6,36.973L6678.93,26.682L6695.61,23.251Z" style="fill:rgb(147,147,147);"/>
        </g>
        <g transform="matrix(1.37894,0,0,1.45752,-2357.84,-13.889)">
            <path d="M6661.05,55.498L6667.33,51.048L6676.03,49.323L6684.01,44.52L6691.26,50.695L6702.14,56.184L6715.92,60.987L6732.6,59.614L6745.32,56.87L6739.12,62.649L6731.87,81.57L6717.37,83.549L6706.49,88.43L6691.98,85L6677.48,85L6666.6,71.278L6661.05,55.498Z" style="fill:rgb(117,117,117);"/>
        </g>
    </g>
    <g id="fume2" serif:id="fume" transform="matrix(0.210526,0,0,0.210526,-1316.85,69.2895)">
        <g transform="matrix(1.37894,0,0,1.45752,-2357.84,-13.889)">
            <path d="M6695.61,23.251L6717.37,23.251L6733.32,25.996L6742.75,36.973L6750,52.5L6739.12,62.649L6731.87,81.57L6717.37,83.549L6706.49,88.43L6691.98,85L6677.48,85L6666.6,71.278L6660,52.5L6666.6,36.973L6678.93,26.682L6695.61,23.251Z" style="fill:rgb(147,147,147);"/>
        </g>
        <g transform="matrix(1.37894,0,0,1.45752,-2357.84,-13.889)">
            <path d="M6661.05,55.498L6667.33,51.048L6676.03,49.323L6684.01,44.52L6691.26,50.695L6702.14,56.184L6715.92,60.987L6732.6,59.614L6745.32,56.87L6739.12,62.649L6731.87,81.57L6717.37,83.549L6706.49,88.43L6691.98,85L6677.48,85L6666.6,71.278L6661.05,55.498Z" style="fill:rgb(117,117,117);"/>
        </g>
    </g>
    <g id="fume3" serif:id="fume" transform="matrix(0.210526,0,0,0.210526,-1243.79,21.8158)">
        <g transform="matrix(1.37894,0,0,1.45752,-2357.84,-13.889)">
            <path d="M6695.61,23.251L6717.37,23.251L6733.32,25.996L6742.75,36.973L6750,52.5L6739.12,62.649L6731.87,81.57L6717.37,83.549L6706.49,88.43L6691.98,85L6677.48,85L6666.6,71.278L6660,52.5L6666.6,36.973L6678.93,26.682L6695.61,23.251Z" style="fill:rgb(147,147,147);"/>
        </g>
        <g transform="matrix(1.37894,0,0,1.45752,-2357.84,-13.889)">
            <path d="M6661.05,55.498L6667.33,51.048L6676.03,49.323L6684.01,44.52L6691.26,50.695L6702.14,56.184L6715.92,60.987L6732.6,59.614L6745.32,56.87L6739.12,62.649L6731.87,81.57L6717.37,83.549L6706.49,88.43L6691.98,85L6677.48,85L6666.6,71.278L6661.05,55.498Z" style="fill:rgb(117,117,117);"/>
        </g>
    </g>
    <g id="fume4" serif:id="fume" transform="matrix(0.210526,0,0,0.210526,-1136.85,31.2895)">
        <g transform="matrix(1.37894,0,0,1.45752,-2357.84,-13.889)">
            <path d="M6695.61,23.251L6717.37,23.251L6733.32,25.996L6742.75,36.973L6750,52.5L6739.12,62.649L6731.87,81.57L6717.37,83.549L6706.49,88.43L6691.98,85L6677.48,85L6666.6,71.278L6660,52.5L6666.6,36.973L6678.93,26.682L6695.61,23.251Z" style="fill:rgb(147,147,147);"/>
        </g>
        <g transform="matrix(1.37894,0,0,1.45752,-2357.84,-13.889)">
            <path d="M6661.05,55.498L6667.33,51.048L6676.03,49.323L6684.01,44.52L6691.26,50.695L6702.14,56.184L6715.92,60.987L6732.6,59.614L6745.32,56.87L6739.12,62.649L6731.87,81.57L6717.37,83.549L6706.49,88.43L6691.98,85L6677.48,85L6666.6,71.278L6661.05,55.498Z" style="fill:rgb(117,117,117);"/>
        </g>
    </g>
    <g id="left-turning" serif:id="left turning" transform="matrix(1,0,0,1,-6345,-29.5)">
        <g transform="matrix(1.48825,1.16679,-0.893794,1.14004,-2903.05,-7558.58)">
            <path d="M6466.08,99.771L6472.84,111.028L6477.71,121.642L6457.55,129.116L6451.28,122.594L6448.23,116.948L6453.17,118.467L6467.8,112.051L6468.35,110.172L6466.08,99.771Z" style="fill:rgb(255,81,16);"/>
        </g>
        <g transform="matrix(-1,0,0,1.15556,13055,-29)">
            <path d="M6450,90L6457,99.519L6459.23,110.769L6460,123.75L6464.69,136.731L6475.28,159.796L6490,180L6410,180L6414.99,157.5L6425.28,134.49L6440.77,110.769L6447,100.385L6450,90Z" style="fill:rgb(255,125,36);"/>
        </g>
        <g transform="matrix(-1,0,0,0.555556,13055,79)">
            <path d="M6450,90L6457,99.519L6459.23,110.769L6460,123.75L6464.69,136.731L6475.28,159.796L6490,180L6472,185.4L6450,187.2L6430,185.4L6410,180L6414.99,157.5L6425.28,134.49L6440.77,110.769L6447,100.385L6450,90Z" style="fill:rgb(255,192,36);"/>
        </g>
    </g>
    <g id="left-turning1" serif:id="left turning" transform="matrix(1,0,0,1,-6555,-29.5)">
        <g transform="matrix(1.48825,1.16679,-0.893794,1.14004,-2903.05,-7558.58)">
            <path d="M6466.08,99.771L6472.84,111.028L6477.71,121.642L6457.55,129.116L6451.28,122.594L6448.23,116.948L6453.17,118.467L6467.8,112.051L6468.35,110.172L6466.08,99.771Z" style="fill:rgb(255,81,16);"/>
        </g>
        <g transform="matrix(-1,0,0,1.15556,13055,-29)">
            <path d="M6450,90L6457,99.519L6459.23,110.769L6460,123.75L6464.69,136.731L6475.28,159.796L6490,180L6410,180L6414.99,157.5L6425.28,134.49L6440.77,110.769L6447,100.385L6450,90Z" style="fill:rgb(255,125,36);"/>
        </g>
        <g transform="matrix(-1,0,0,0.555556,13055,79)">
            <path d="M6450,90L6457,99.519L6459.23,110.769L6460,123.75L6464.69,136.731L6475.28,159.796L6490,180L6472,185.4L6450,187.2L6430,185.4L6410,180L6414.99,157.5L6425.28,134.49L6440.77,110.769L6447,100.385L6450,90Z" style="fill:rgb(255,192,36);"/>
        </g>
    </g>
    <g id="left-turning2" serif:id="left turning" transform="matrix(1,0,0,1,-6341.34,101)">
        <g transform="matrix(1.48825,1.16679,-0.893794,1.14004,-2903.05,-7558.58)">
            <path d="M6466.08,99.771L6472.84,111.028L6477.71,121.642L6457.55,129.116L6451.28,122.594L6448.23,116.948L6453.17,118.467L6467.8,112.051L6468.35,110.172L6466.08,99.771Z" style="fill:rgb(255,81,16);"/>
        </g>
        <g transform="matrix(-1,0,0,1.15556,13055,-29)">
            <path d="M6450,90L6457,99.519L6459.23,110.769L6460,123.75L6464.69,136.731L6475.28,159.796L6490,180L6410,180L6414.99,157.5L6425.28,134.49L6440.77,110.769L6447,100.385L6450,90Z" style="fill:rgb(255,125,36);"/>
        </g>
        <g transform="matrix(-1,0,0,0.555556,13055,79)">
            <path d="M6450,90L6457,99.519L6459.23,110.769L6460,123.75L6464.69,136.731L6475.28,159.796L6490,180L6472,185.4L6450,187.2L6430,185.4L6410,180L6414.99,157.5L6425.28,134.49L6440.77,110.769L6447,100.385L6450,90Z" style="fill:rgb(255,192,36);"/>
        </g>
    </g>
    <g id="right-turning" serif:id="right turning" transform="matrix(1,0,0,1,-6287.89,39.5)">
        <g transform="matrix(1.48825,1.16679,-0.893794,1.14004,-3065.05,-7561.83)">
            <path d="M6466.08,99.771L6472.84,111.028L6477.71,121.642L6457.55,129.116L6452.89,122.48L6449.84,116.834L6454.78,118.353L6467.8,112.051L6468.35,110.172L6466.08,99.771Z" style="fill:rgb(255,81,16);"/>
        </g>
        <g transform="matrix(1,0,0,1.15556,0,-28)">
            <path d="M6450,90L6457,99.519L6459.23,110.769L6460,123.75L6464.69,136.731L6475.28,159.796L6490,180L6410,180L6414.99,157.5L6425.28,134.49L6440.77,110.769L6447,100.385L6450,90Z" style="fill:rgb(255,125,36);"/>
        </g>
        <g transform="matrix(1,0,0,0.555556,0,80)">
            <path d="M6450,90L6457,99.519L6459.23,110.769L6460,123.75L6464.69,136.731L6475.28,159.796L6490,180L6470,187.2L6450,189L6426,187.2L6410,180L6414.99,157.5L6425.28,134.49L6440.77,110.769L6447,100.385L6450,90Z" style="fill:rgb(255,192,36);"/>
        </g>
    </g>
    <g id="right-turning1" serif:id="right turning" transform="matrix(1,0,0,1,-6389.44,97)">
        <g transform="matrix(1.48825,1.16679,-0.893794,1.14004,-3065.05,-7561.83)">
            <path d="M6466.08,99.771L6472.84,111.028L6477.71,121.642L6457.55,129.116L6452.89,122.48L6449.84,116.834L6454.78,118.353L6467.8,112.051L6468.35,110.172L6466.08,99.771Z" style="fill:rgb(255,81,16);"/>
        </g>
        <g transform="matrix(1,0,0,1.15556,0,-28)">
            <path d="M6450,90L6457,99.519L6459.23,110.769L6460,123.75L6464.69,136.731L6475.28,159.796L6490,180L6410,180L6414.99,157.5L6425.28,134.49L6440.77,110.769L6447,100.385L6450,90Z" style="fill:rgb(255,125,36);"/>
        </g>
        <g transform="matrix(1,0,0,0.555556,0,80)">
            <path d="M6450,90L6457,99.519L6459.23,110.769L6460,123.75L6464.69,136.731L6475.28,159.796L6490,180L6470,187.2L6450,189L6426,187.2L6410,180L6414.99,157.5L6425.28,134.49L6440.77,110.769L6447,100.385L6450,90Z" style="fill:rgb(255,192,36);"/>
        </g>
    </g>
    <g id="right-turning2" serif:id="right turning" transform="matrix(1,0,0,1,-6092.11,13.5)">
        <g transform="matrix(1.48825,1.16679,-0.893794,1.14004,-3065.05,-7561.83)">
            <path d="M6466.08,99.771L6472.84,111.028L6477.71,121.642L6457.55,129.116L6452.89,122.48L6449.84,116.834L6454.78,118.353L6467.8,112.051L6468.35,110.172L6466.08,99.771Z" style="fill:rgb(255,81,16);"/>
        </g>
        <g transform="matrix(1,0,0,1.15556,0,-28)">
            <path d="M6450,90L6457,99.519L6459.23,110.769L6460,123.75L6464.69,136.731L6475.28,159.796L6490,180L6410,180L6414.99,157.5L6425.28,134.49L6440.77,110.769L6447,100.385L6450,90Z" style="fill:rgb(255,125,36);"/>
        </g>
        <g transform="matrix(1,0,0,0.555556,0,80)">
            <path d="M6450,90L6457,99.519L6459.23,110.769L6460,123.75L6464.69,136.731L6475.28,159.796L6490,180L6470,187.2L6450,189L6426,187.2L6410,180L6414.99,157.5L6425.28,134.49L6440.77,110.769L6447,100.385L6450,90Z" style="fill:rgb(255,192,36);"/>
        </g>
    </g>
</svg>
