<?xml version="1.0" encoding="UTF-8" standalone="no"?>
<!DOCTYPE svg PUBLIC "-//W3C//DTD SVG 1.1//EN" "http://www.w3.org/Graphics/SVG/1.1/DTD/svg11.dtd">
<svg width="100%" height="100%" viewBox="0 0 80 109" version="1.1" xmlns="http://www.w3.org/2000/svg" xmlns:xlink="http://www.w3.org/1999/xlink" xml:space="preserve" xmlns:serif="http://www.serif.com/" style="fill-rule:evenodd;clip-rule:evenodd;stroke-linejoin:round;stroke-miterlimit:2;">
    <g id="right-turning" serif:id="right turning" transform="matrix(1,0,0,1,-6410,-76)">
        <g transform="matrix(1.48825,1.16679,-0.893794,1.14004,-3065.05,-7561.83)">
            <path d="M6466.08,99.771L6472.84,111.028L6477.71,121.642L6457.55,129.116L6452.89,122.48L6449.84,116.834L6454.78,118.353L6467.8,112.051L6468.35,110.172L6466.08,99.771Z" style="fill:rgb(255,81,16);"/>
        </g>
        <g transform="matrix(1,0,0,1.15556,0,-28)">
            <path d="M6450,90L6457,99.519L6459.23,110.769L6460,123.75L6464.69,136.731L6475.28,159.796L6490,180L6410,180L6414.99,157.5L6425.28,134.49L6440.77,110.769L6447,100.385L6450,90Z" style="fill:rgb(255,125,36);"/>
        </g>
        <g transform="matrix(1,0,0,0.555556,0,80)">
            <path d="M6450,90L6457,99.519L6459.23,110.769L6460,123.75L6464.69,136.731L6475.28,159.796L6490,180L6470,187.2L6450,189L6426,187.2L6410,180L6414.99,157.5L6425.28,134.49L6440.77,110.769L6447,100.385L6450,90Z" style="fill:rgb(255,192,36);"/>
        </g>
    </g>
</svg>
