<?xml version="1.0" encoding="UTF-8" standalone="no"?>
<!DOCTYPE svg PUBLIC "-//W3C//DTD SVG 1.1//EN" "http://www.w3.org/Graphics/SVG/1.1/DTD/svg11.dtd">
<svg width="100%" height="100%" viewBox="0 0 157 305" version="1.1" xmlns="http://www.w3.org/2000/svg" xmlns:xlink="http://www.w3.org/1999/xlink" xml:space="preserve" xmlns:serif="http://www.serif.com/" style="fill-rule:evenodd;clip-rule:evenodd;stroke-linejoin:round;stroke-miterlimit:2;">
    <g id="doors-v2" serif:id="doors v2" transform="matrix(1.50568,0,0,1.50568,-2507.72,-2662.85)">
        <g id="door-frame" serif:id="door frame" transform="matrix(0.612717,0,0,0.612717,1382.85,345.457)">
            <path d="M623.967,2652.78L467.879,2652.78L467.879,2329.02L623.967,2329.02L623.967,2652.78ZM524.645,2415.35L524.645,2371.35L532.145,2356.6L543.645,2349.35L554.645,2356.35L562.645,2371.35L562.645,2415.35L524.645,2415.35Z" style="fill:rgb(105,65,33);"/>
        </g>
        <g>
            <g transform="matrix(7.45397,0,0,0.66415,1195.84,1752.53)">
                <rect x="65" y="30" width="0.089" height="298.735" style="fill:rgb(143,143,143);"/>
            </g>
            <g transform="matrix(7.45397,0,0,0.66415,1209.79,1752.53)">
                <rect x="65" y="30" width="0.089" height="298.735" style="fill:rgb(143,143,143);"/>
            </g>
            <g transform="matrix(7.45397,0,0,0.66415,1252.96,1752.53)">
                <rect x="65" y="30" width="0.089" height="298.735" style="fill:rgb(143,143,143);"/>
            </g>
            <g transform="matrix(7.45397,0,0,0.66415,1268.23,1752.53)">
                <rect x="65" y="30" width="0.089" height="298.735" style="fill:rgb(143,143,143);"/>
            </g>
            <g transform="matrix(0.66415,0,0,0.66415,1640.5,1752.53)">
                <path d="M102,109.691L101,109.691L101,328.735L102,328.735L102,109.691ZM102,57.455L102,30L101,30L101,59.422L102,57.455Z" style="fill:rgb(143,143,143);"/>
            </g>
            <g transform="matrix(0.66415,0,0,0.66415,1640.5,1752.53)">
                <path d="M123,109.691L122,109.691L122,328.735L123,328.735L123,109.691ZM123,54.779L123,30L122,30L122,54.142L123,54.779Z" style="fill:rgb(143,143,143);"/>
            </g>
        </g>
        <g id="door-frame1" serif:id="door frame" transform="matrix(0.612717,0,0,0.612717,1382.85,345.457)">
            <path d="M467.879,2652.78L461.302,2652.78L461.302,2322.56L630.83,2322.56L631.41,2652.78L623.967,2652.78L623.967,2329.02L467.879,2329.02L467.879,2652.78Z" style="fill:rgb(95,95,95);"/>
        </g>
        <g transform="matrix(1,0,0,1,0,9.73439)">
            <g transform="matrix(0.612717,0,0,0.612717,1382.85,345.457)">
                <path d="M590,2443L468,2443L468,2457L479.252,2457L495.252,2464.53L490.252,2471L502.252,2464L487.752,2452.5L560,2449L564,2448.2L575,2455.5L573,2459L578,2456L572,2446.6L590,2443Z" style="fill:rgb(115,115,115);"/>
            </g>
            <g transform="matrix(0.612717,0,0,-0.612717,1382.85,3339.19)">
                <path d="M590,2443L468,2443L468,2457L479.252,2457L495.252,2464.53L490.252,2471L502.252,2464L487.752,2452.5L560,2449L564,2448.2L575,2455.5L573,2459L578,2456L572,2446.6L590,2443Z" style="fill:rgb(115,115,115);"/>
            </g>
        </g>
        <g transform="matrix(1,0,0,1,0,72.2315)">
            <g transform="matrix(0.612717,0,0,0.612717,1382.85,345.457)">
                <path d="M590,2443L468,2443L468,2457L479.252,2457L495.252,2464.53L490.252,2471L502.252,2464L487.752,2452.5L560,2449L564,2448.2L575,2455.5L573,2459L578,2456L572,2446.6L590,2443Z" style="fill:rgb(114,114,114);"/>
            </g>
            <g transform="matrix(0.612717,0,0,-0.612717,1382.85,3339.19)">
                <path d="M590,2443L468,2443L468,2457L479.252,2457L495.252,2464.53L490.252,2471L502.252,2464L487.752,2452.5L560,2449L564,2448.2L575,2455.5L573,2459L578,2456L572,2446.6L590,2443Z" style="fill:rgb(114,114,114);"/>
            </g>
        </g>
        <g transform="matrix(0.612717,0,0,0.612717,1382.85,348.238)">
            <g transform="matrix(1,0,0,1,-6.80882,6.80882)">
                <rect x="555" y="2341" width="5" height="64" style="fill:rgb(115,115,115);"/>
            </g>
            <g transform="matrix(1,0,0,1,-21.8088,6.80882)">
                <rect x="555" y="2341" width="5" height="64" style="fill:rgb(115,115,115);"/>
            </g>
            <g transform="matrix(1,0,0,1,18.1912,0)">
                <path d="M548.454,2366.81L539.454,2349.81L525.454,2340.81L525.454,2345.81L535.954,2352.81L543.454,2367.31L543.454,2409.81L525.454,2409.81L525.454,2414.81L548.454,2414.81L548.454,2366.81Z" style="fill:rgb(115,115,115);"/>
            </g>
            <g transform="matrix(-1,0,0,1,1068.19,0)">
                <path d="M547.546,2366.81L538.546,2349.81L524.546,2340.81L524.546,2345.81L535.046,2352.81L542.546,2367.31L542.546,2409.81L524.546,2409.81L524.546,2414.81L547.546,2414.81L547.546,2366.81Z" style="fill:rgb(115,115,115);"/>
            </g>
        </g>
        <g id="door-knob" serif:id="door knob" transform="matrix(0.612717,0,0,0.612717,1378.56,335.984)">
            <g transform="matrix(0.6,0,0,0.633391,244.225,912.625)">
                <rect x="599" y="2473" width="10" height="14" style="fill:rgb(86,86,86);"/>
            </g>
            <g transform="matrix(0.486364,0,0,0.486364,342.773,1422.98)">
                <path d="M542.5,2180L570,2207.5L542.5,2235L515,2207.5L542.5,2180ZM542.5,2193.75L556.25,2207.5L542.5,2221.25L528.75,2207.5L542.5,2193.75Z" style="fill:rgb(215,160,44);"/>
            </g>
        </g>
    </g>
</svg>
