<?xml version="1.0" encoding="UTF-8" standalone="no"?>
<!DOCTYPE svg PUBLIC "-//W3C//DTD SVG 1.1//EN" "http://www.w3.org/Graphics/SVG/1.1/DTD/svg11.dtd">
<svg width="100%" height="100%" viewBox="0 0 1071 2354" version="1.1" xmlns="http://www.w3.org/2000/svg" xmlns:xlink="http://www.w3.org/1999/xlink" xml:space="preserve" xmlns:serif="http://www.serif.com/" style="fill-rule:evenodd;clip-rule:evenodd;stroke-linejoin:round;stroke-miterlimit:2;">
    <g>
        <g id="base" transform="matrix(1,0,0,1,-78.1763,-295.05)">
            <g transform="matrix(0.962074,0,0,1,31.7773,0)">
                <path d="M996.658,1019.06L842.452,960.933L837.878,2643.44L993.902,2402.44L996.658,1019.06Z" style="fill:rgb(61,61,61);"/>
            </g>
            <g transform="matrix(1,0,0,1,78.1763,295.05)">
                <path d="M402.952,2323.74L338.714,2323.35L259.906,2303.8L201.058,2308.75L201.058,689.695L764.407,681.438L761.317,2344.24L728.999,2353.69L630.178,2326.79L559.884,2321.77L559.352,2019.09L402.952,2019.09L402.952,2323.74ZM526.824,1620.6L481.824,1591.33L433.49,1620.6L406.824,1680.03L406.824,1759.87L435.157,1819.3L481.824,1848.57L529.324,1819.3L556.824,1759.87L556.824,1680.03L526.824,1620.6ZM397.709,1174.23L287.709,1174.23L287.709,1295.55L397.709,1295.55L397.709,1174.23ZM611.709,1174.23L501.709,1174.23L501.709,1295.55L611.709,1295.55L611.709,1174.23Z" style="fill:rgb(113,113,113);"/>
            </g>
        </g>
        <g id="doors-v2" serif:id="doors v2" transform="matrix(1.50568,0,0,1.50568,-2104.76,-643.757)">
            <g id="door-frame" serif:id="door frame" transform="matrix(1.065,-1.49944e-18,1.02841e-17,0.864369,1123.46,-319.184)">
                <path d="M629.029,2396.79L485.486,2396.79L485.486,2415.3L495.114,2415.3L495.114,2649.38L508.96,2649.38L508.96,2415.3L606.493,2415.3L606.827,2649.38L620.556,2649.38L620.556,2415.3L629.029,2415.33L629.029,2396.79Z" style="fill:rgb(61,61,61);"/>
            </g>
            <g id="lantern" transform="matrix(1,0,0,1,-58,-190.75)">
                <path d="M1727.5,1957L1720.25,1950L1712.5,1957L1714,1958L1714,1973L1720,1977.5L1726,1973L1726,1958L1727.5,1957Z" style="fill:rgb(23,23,23);"/>
                <path d="M1726,1958L1714,1958L1714,1973L1720,1977.5L1726,1973L1726,1958Z" style="fill:rgb(122,122,122);"/>
                <g transform="matrix(0.928571,0,0,1,122.714,0)">
                    <rect x="1718" y="1961" width="7" height="10.5" style="fill:rgb(199,199,199);"/>
                </g>
                <g transform="matrix(0.8,0,0,1.09524,343.3,-187.762)">
                    <path d="M1716.5,1961.91L1714,1961L1714,1971.04L1716.5,1971.5L1716.5,1961.91Z" style="fill:rgb(199,199,199);"/>
                </g>
            </g>
            <g id="lantern1" serif:id="lantern" transform="matrix(1,0,0,1,60.6474,-190.75)">
                <path d="M1727.5,1957L1720.25,1950L1712.5,1957L1714,1958L1714,1973L1720,1977.5L1726,1973L1726,1958L1727.5,1957Z" style="fill:rgb(23,23,23);"/>
                <path d="M1726,1958L1714,1958L1714,1973L1720,1977.5L1726,1973L1726,1958Z" style="fill:rgb(122,122,122);"/>
                <g transform="matrix(0.928571,0,0,1,122.714,0)">
                    <rect x="1718" y="1961" width="7" height="10.5" style="fill:rgb(199,199,199);"/>
                </g>
                <g transform="matrix(0.8,0,0,1.09524,343.3,-187.762)">
                    <path d="M1716.5,1961.91L1714,1961L1714,1971.04L1716.5,1971.5L1716.5,1961.91Z" style="fill:rgb(199,199,199);"/>
                </g>
            </g>
        </g>
        <g id="window" transform="matrix(1,0,0,1,-79.1763,-295.05)">
            <path id="outline" d="M614,1903L560,1870L502,1903L470,1970L470,2060L504,2127L560,2160L617,2127L650,2060L650,1970L614,1903ZM605,1915.65L560,1886.38L511.667,1915.65L485,1975.08L485,2054.92L513.333,2114.35L560,2143.62L607.5,2114.35L635,2054.92L635,1975.08L605,1915.65Z" style="fill:rgb(89,89,89);"/>
        </g>
        <g id="mid-home" serif:id="mid home" transform="matrix(1,0,0,1,-78.1763,-275.05)">
            <g id="left">
                <g transform="matrix(-1,-1.22465e-16,1.22465e-16,-1,483.776,3568.45)">
                    <path d="M204.538,1717.06L283.98,1838.95L310.572,1839.09L311.126,1867.99L205.032,1862.88L204.512,1838.91L235.164,1839.24L204.454,1786.09L204.538,1717.06Z" style="fill:rgb(76,76,76);"/>
                </g>
                <path d="M264.673,1367.82L182.203,1368.02L185.815,1705.3L196.528,1708.81L252.834,1709.31L264.673,1367.82Z" style="fill:rgb(98,98,98);"/>
            </g>
            <g id="right">
                <g transform="matrix(0.882446,0,0,0.914537,197.952,107.168)">
                    <path d="M856.248,1718.77L997.24,1714.57L1029.45,1713.98L1029.23,1741.02L1019.29,1745.46L996.414,1745.75L892.363,1889.78L894.899,1925.46L901.852,1926.93L901.301,1945.94L889.08,1951.94L856.129,1950.69L856.248,1718.77ZM892.07,1741.46L960.894,1742.28L892.502,1837.27L892.07,1741.46Z" style="fill:rgb(84,84,84);"/>
                </g>
                <path d="M856.005,1708.46L995.88,1708.19L1024.98,1707.04L1025.15,1735.39L1015.6,1740.78L992.916,1740.69L892.363,1889.78L894.899,1925.46L901.852,1926.93L901.301,1945.94L889.08,1951.94L856.129,1950.69L856.005,1708.46ZM890.539,1739.28L956.666,1737.96L891.632,1831.75L890.539,1739.28Z" style="fill:rgb(89,89,89);"/>
                <path id="right1" serif:id="right" d="M1086.96,1369.65L841,1281.25L841.101,1716.02L932.644,1716.8L980.155,1715.12L1087.06,1672.09L1086.96,1369.65Z" style="fill:rgb(71,71,71);"/>
                <g transform="matrix(1,0,0,1,0,-20)">
                    <path d="M974.184,1374.94L926,1360L930,1736.8L980,1735L974.184,1374.94Z" style="fill:rgb(89,89,89);"/>
                </g>
                <g transform="matrix(1,0,0,1,-90,-20)">
                    <path d="M1016,1360L931,1301.25L931.102,1736L1020,1736.78L1016,1360Z" style="fill:rgb(114,114,114);"/>
                </g>
                <path id="roof" d="M841.783,1198.84L1006.22,1222.39L1148.36,1355.52L1090.76,1369.76L1004.57,1371.49L928.779,1367.62L841.783,1198.84Z" style="fill:rgb(110,110,110);"/>
            </g>
            <g id="front">
                <g id="right-support" serif:id="right support">
                    <g transform="matrix(-1.07172,-1.31248e-16,2.10532e-16,-1.71913,1483.32,5088.13)">
                        <path d="M666.513,1816.38L672.588,1813.96L711.235,1814.8L711.122,1826.54L705.78,1829.4L702.663,1847.73L745.393,1954.09L666.513,1953.5L666.513,1816.38Z" style="fill:rgb(123,123,123);"/>
                    </g>
                    <g transform="matrix(-1,1.22465e-16,-1.22465e-16,-1,1110.75,3571.42)">
                        <path d="M352.865,1713.29L378.324,1816.34L353.944,1823.61L352.865,1713.29Z" style="fill:rgb(113,113,113);"/>
                    </g>
                </g>
                <g id="left-support" serif:id="left support">
                    <g id="left-support1" serif:id="left support" transform="matrix(-1.07172,-1.31248e-16,2.10532e-16,-1.71913,1103.32,5088.13)">
                        <path d="M666.513,1822.95L673.758,1819.25L711.528,1820.27L711.707,1831.28L704.609,1832.69L703.249,1851.74L759.372,1957.74L665.811,1957.06L666.513,1822.95Z" style="fill:rgb(123,123,123);"/>
                    </g>
                    <g transform="matrix(-1,1.22465e-16,-1.22465e-16,-1,730.312,3571.42)">
                        <path d="M353.868,1719.11L389.361,1821.95L354.746,1826.22L353.868,1719.11Z" style="fill:rgb(113,113,113);"/>
                    </g>
                </g>
                <g id="front1" serif:id="front" transform="matrix(1,0,0,1,0,-20)">
                    <path d="M841,1384L242.264,1389.51L241.569,1738.99L259.314,1743.91L751.236,1750.73L812.092,1746.74L841.092,1735.98L841,1384ZM690,1469.28L580,1469.28L580,1590.6L690,1590.6L690,1469.28ZM475.885,1469.28L365.885,1469.28L365.885,1590.6L475.885,1590.6L475.885,1469.28Z" style="fill:rgb(145,145,145);"/>
                </g>
                <g transform="matrix(0.871117,0,0,0.912685,194.026,81.911)">
                    <path d="M502.453,1488.05L583.788,1487.46L583.064,1509.36L579.53,1511.61L579.021,1617.81L585.998,1617.74L585.995,1641.83L424.243,1639.29L423.823,1615.89L431.875,1615.81L431.652,1510.19L426.878,1509.88L426.261,1487.68L502.453,1488.05ZM556.8,1511.13L556.271,1612.59L456.618,1612.77L456.486,1511.09L556.8,1511.13Z" style="fill:rgb(91,91,91);"/>
                </g>
                <g transform="matrix(0.871117,0,0,0.912685,-18.951,78.9263)">
                    <path d="M502.453,1488.05L583.788,1487.46L583.064,1509.36L579.53,1511.61L579.021,1617.81L585.998,1617.74L585.995,1641.83L424.243,1639.29L423.823,1615.89L431.875,1615.81L431.652,1510.19L426.878,1509.88L426.261,1487.68L502.453,1488.05ZM556.8,1511.13L556.271,1612.59L456.618,1612.77L456.486,1511.09L556.8,1511.13Z" style="fill:rgb(91,91,91);"/>
                </g>
                <g transform="matrix(0.323416,0,0,0.944879,849.479,15.5506)">
                    <path d="M422.122,1490.64L446.858,1490.64L558.17,1486.4L558.17,1504.24L554.629,1504.4L551.986,1610.23L561.262,1609.17L561.262,1629.28L439.128,1643.04L422.122,1641.98L422.122,1619.23L431.398,1619.23L431.652,1510.19L422.122,1510.75L422.122,1490.64ZM530.342,1505.36L524.158,1613.4L459.226,1617.64L456.134,1508.27L530.342,1505.36Z" style="fill:rgb(53,53,53);"/>
                </g>
                <g transform="matrix(0.277526,0,0,0.810808,922.85,215.834)">
                    <path d="M422.122,1490.64L446.858,1490.64L558.17,1486.4L558.17,1504.24L554.629,1504.4L551.986,1610.23L561.262,1609.17L561.262,1629.28L439.128,1643.04L422.122,1641.98L422.122,1619.23L431.398,1619.23L431.652,1510.19L422.122,1510.75L422.122,1490.64ZM530.342,1505.36L524.158,1613.4L459.226,1617.64L456.134,1508.27L530.342,1505.36Z" style="fill:rgb(53,53,53);"/>
                </g>
                <path id="roof1" serif:id="roof" d="M841.783,1198.84L278.898,1202.28L78.176,1356.79L95.561,1353.43L106.126,1366.73L494.71,1373.13L928.779,1367.62L841.783,1198.84Z" style="fill:rgb(132,132,132);"/>
            </g>
        </g>
        <g id="roof2" serif:id="roof" transform="matrix(1,0,0,1,-78.1763,-295.05)">
            <path d="M419.373,683.343L388.831,681.054L351.888,767.443L404.797,734.347L419.373,683.343Z" style="fill:rgb(172,172,172);"/>
            <g transform="matrix(1.37643,0,0,3.44458,-86.9553,-715.988)">
                <path d="M541.375,294.413L586.423,335.273L619.18,363.037L615.652,363.153L626.433,371.537L757.625,462.798L837.175,510.323L836.798,511.693L833.177,512.227L827.01,512.421L826.792,514.219L776.42,506.332L696.799,492.759L552.302,331.754L541.375,294.413Z" style="fill:rgb(69,69,69);"/>
            </g>
            <path d="M659.321,295.05L684.359,397.274L711.767,489.327L799.317,735.781L894.689,955.251L874.395,963.967L872.506,978.005L189.422,987.227L171.878,968.215L243.663,898.538L352.447,766.371L419.391,683.201L556.609,499.13L553.197,493.704L616.364,382.69L659.321,295.05Z" style="fill:rgb(93,93,93);"/>
            <g transform="matrix(1,0,0,1.02681,0,-21.7971)">
                <path d="M941.935,672.028L805.712,674.654L820.242,700.268L834.174,770.814L895.309,876.161L933.384,894.394L934.155,813.932L967.53,813.031L941.935,672.028Z" style="fill:rgb(83,83,83);"/>
            </g>
            <g transform="matrix(1,0,0,1.02681,0,-21.7971)">
                <path d="M924.821,779.473L920.302,766.459L865.16,779.423L838.991,779.011L895.309,876.161L933.384,894.394L934.155,813.932L932.996,804.102L924.821,779.473Z" style="fill:rgb(108,108,108);"/>
            </g>
            <g transform="matrix(1,0,0,1.02681,0,-21.7971)">
                <path d="M941.935,672.028L805.712,674.654L820.242,700.268L834.174,770.814L837.243,781.663L918.409,779.508L941.935,672.028Z" style="fill:rgb(128,128,128);"/>
            </g>
            <g transform="matrix(1.11688,0,0,1,313.264,141.441)">
                <path d="M219.404,500.255L298.509,598.23L299.315,651.006L285.656,705.735L159.749,705.735L157.48,599.887L219.404,500.255Z" style="fill:rgb(108,108,108);"/>
            </g>
            <g transform="matrix(1,0,0,1.57589,79.0316,-426.131)">
                <path d="M526.484,674.899L598.315,744.6L587.615,750.198L567.854,741.18L528.634,717.381L481.396,679.267L438.527,716.527L410.06,741.043L410.676,754.811L371.937,741.2L429.898,696.329L473.062,654.429L526.484,674.899Z" style="fill:rgb(81,81,81);"/>
            </g>
        </g>
        <g id="cicada-pix-top" serif:id="cicada pix top" transform="matrix(1,0,0,1,-95.1763,-286.05)">
            <g id="left1" serif:id="left">
                <rect x="520" y="1110" width="10" height="10"/>
                <g transform="matrix(1,0,0,1,20,-20)">
                    <path d="M520,1060L510,1060L510,1070L530,1070L530,1090L490,1090L490,1080L500,1080L500,1100L520,1100L520,1060Z"/>
                </g>
            </g>
            <g id="right2" serif:id="right" transform="matrix(-1,0,0,1,1150,0)">
                <rect x="520" y="1110" width="10" height="10"/>
                <g transform="matrix(1,0,0,1,20,-20)">
                    <path d="M520,1060L510,1060L510,1070L530,1070L530,1090L490,1090L490,1080L500,1080L500,1100L520,1100L520,1060Z"/>
                </g>
            </g>
            <path d="M620,1080L610,1080L610,1070L600,1070L600,1060L580,1060L580,1080L570,1080L570,1060L550,1060L550,1070L540,1070L540,1080L530,1080L530,1170L540,1170L540,1180L550,1180L550,1190L560,1190L560,1170L570,1170L570,1160L580,1160L580,1170L590,1170L590,1190L600,1190L600,1180L610,1180L610,1170L620,1170L620,1080Z" style="fill:rgb(140,140,140);"/>
            <g transform="matrix(1,0,0,1,50,-10)">
                <path d="M510,1070L500,1070L500,1090L480,1090L480,1100L490,1100L490,1080L510,1080L510,1110L490,1110L490,1130L480,1130L480,1120L500,1120L500,1100L520,1100L520,1170L510,1170L510,1190L500,1190L500,1180L520,1180L520,1160L500,1160L500,1180L489.5,1180L490,1170L510,1170L510,1150L520,1150L520,1130L500,1130L500,1150L480,1150L480,1160L490,1160L490,1140L510,1140L510,1120L520,1120L520,1090L510,1090L510,1070Z" style="fill:rgb(121,152,44);"/>
            </g>
            <g transform="matrix(-1,0,0,1,1100,-10)">
                <path d="M510,1070L500,1070L500,1090L480,1090L480,1100L490,1100L490,1080L510,1080L510,1110L490,1110L490,1130L480,1130L480,1120L500,1120L500,1100L520,1100L520,1170L510,1170L510,1190L500,1190L500,1180L520,1180L520,1160L500,1160L500,1180L489.5,1180L490,1170L510,1170L510,1150L520,1150L520,1130L500,1130L500,1150L480,1150L480,1160L490,1160L490,1140L510,1140L510,1120L520,1120L520,1090L510,1090L510,1070Z" style="fill:rgb(121,152,44);"/>
            </g>
            <path d="M570,1070L560,1070L560,1080L550,1080L550,1090L540,1090L540,1100L530,1100L530,1110L540,1110L540,1100L550,1100L550,1090L560,1090L560,1080L570,1080L570,1100L560.5,1100L560,1110L550,1110L550,1120L540,1120L540,1130L530,1130L530,1140L540,1140L540,1130L550,1130L550,1120L560,1120L560,1110L570,1110L570,1130L560,1130L560,1140L550,1140L550,1150L540,1150L540,1160L530,1160L530,1170L540,1170L540,1160L550,1160L550,1150L560,1150L560,1190L550,1190L550,1180L560,1180L560,1140L570,1140L570,1070Z" style="fill:rgb(22,114,59);"/>
            <g transform="matrix(-1,0,0,1,1150,0)">
                <path d="M570,1070L560,1070L560,1080L550,1080L550,1090L540,1090L540,1100L530,1100L530,1110L540,1110L540,1100L550,1100L550,1090L560,1090L560,1080L570,1080L570,1100L560.5,1100L560,1110L550,1110L550,1120L540,1120L540,1130L530,1130L530,1140L540,1140L540,1130L550,1130L550,1120L560,1120L560,1110L570,1110L570,1130L560,1130L560,1140L550,1140L550,1150L540,1150L540,1160L530,1160L530,1170L540,1170L540,1160L550,1160L550,1150L560,1150L560,1180L550,1180L550,1190L560,1190L560,1140L570,1140L570,1070Z" style="fill:rgb(22,114,59);"/>
            </g>
            <g transform="matrix(1,0,0,1,0,1)">
                <path d="M580,1159L580,1029L590,1029L590,1039L560,1039L560,1029L570,1029L570,1159L580,1159Z" style="fill:rgb(51,105,30);"/>
            </g>
            <g transform="matrix(1,0,0,1,0,1)">
                <path d="M600,1029L590,1029L590,1019L560,1019L560,1029L550,1029L550,1049L560,1049L560,1059L590,1059L590,1049L600,1049L600,1029Z" style="fill:rgb(51,105,30);"/>
            </g>
            <g id="right3" serif:id="right" transform="matrix(0.952381,0,0,1,85.7143,0)">
                <path d="M550.5,1000L540,1000L540,1020L519,1020L519,1030L529.5,1030L529.5,1010L550.5,1010L550.5,1000Z"/>
            </g>
            <g id="left2" serif:id="left" transform="matrix(-0.952381,0,0,1,1064.29,0)">
                <path d="M550.5,1000L540,1000L540,1020L519,1020L519,1030L529.5,1030L529.5,1010L550.5,1010L550.5,1000Z"/>
            </g>
        </g>
    </g>
</svg>
