<?xml version="1.0" encoding="UTF-8" standalone="no"?>
<!DOCTYPE svg PUBLIC "-//W3C//DTD SVG 1.1//EN" "http://www.w3.org/Graphics/SVG/1.1/DTD/svg11.dtd">
<svg width="100%" height="100%" viewBox="0 0 1071 2354" version="1.1" xmlns="http://www.w3.org/2000/svg" xmlns:xlink="http://www.w3.org/1999/xlink" xml:space="preserve" xmlns:serif="http://www.serif.com/" style="fill-rule:evenodd;clip-rule:evenodd;stroke-linejoin:round;stroke-miterlimit:2;">
    <g id="base" transform="matrix(1,0,0,1,-78.1763,-295.05)">
        <g transform="matrix(0.962074,0,0,1,31.7773,0)">
            <path d="M996.658,1019.06L842.452,960.933L837.878,2643.44L993.902,2402.44L996.658,1019.06Z" style="fill:rgb(61,61,61);"/>
        </g>
        <path d="M842.584,976.489L279.235,984.745L279.235,2603.8L338.083,2598.85L416.89,2618.4L489.682,2620.33L578.505,2606.14L708.355,2621.84L807.175,2648.74L839.493,2639.29L842.584,976.489ZM681.705,1500.38L580.33,1500.38L580.33,1603.47L681.705,1603.47L681.705,1500.38ZM437.433,1496.38L336.059,1496.38L336.059,1599.47L437.433,1599.47L437.433,1496.38Z" style="fill:rgb(113,113,113);"/>
    </g>
    <g id="mid-home" serif:id="mid home" transform="matrix(1,0,0,1,-78.1763,-295.05)">
        <g id="left">
            <g transform="matrix(-1,-1.22465e-16,1.22465e-16,-1,483.776,3568.45)">
                <path d="M204.538,1717.06L283.98,1838.95L310.572,1839.09L311.126,1867.99L205.032,1862.88L204.512,1838.91L235.164,1839.24L204.454,1786.09L204.538,1717.06Z" style="fill:rgb(76,76,76);"/>
            </g>
            <path d="M264.673,1417.82L182.203,1418.02L185.815,1705.3L196.528,1708.81L252.834,1709.31L264.673,1417.82Z" style="fill:rgb(98,98,98);"/>
        </g>
        <g id="right">
            <g transform="matrix(0.882446,0,0,0.914537,197.952,107.168)">
                <path d="M856.248,1718.77L997.24,1714.57L1029.45,1713.98L1029.23,1741.02L1019.29,1745.46L996.414,1745.75L892.363,1889.78L894.899,1925.46L901.852,1926.93L901.301,1945.94L889.08,1951.94L856.129,1950.69L856.248,1718.77ZM892.07,1741.46L960.894,1742.28L892.502,1837.27L892.07,1741.46Z" style="fill:rgb(96,96,96);"/>
            </g>
            <path d="M856.005,1708.46L995.88,1708.19L1024.98,1707.04L1025.15,1735.39L1015.6,1740.78L992.916,1740.69L892.363,1889.78L894.899,1925.46L901.852,1926.93L901.301,1945.94L889.08,1951.94L856.129,1950.69L856.005,1708.46ZM890.539,1739.28L956.666,1737.96L891.632,1831.75L890.539,1739.28Z" style="fill:rgb(101,101,101);"/>
            <path id="right1" serif:id="right" d="M1086.96,1419.65L843.138,1331.25L841.101,1716.02L932.644,1716.8L980.155,1715.12L1087.06,1672.09L1086.96,1419.65Z" style="fill:rgb(81,81,81);"/>
            <path id="roof" d="M841.783,1248.84L1006.22,1272.39L1148.36,1405.52L1090.76,1419.76L1004.57,1421.49L928.779,1417.62L841.783,1248.84Z" style="fill:rgb(110,110,110);"/>
        </g>
        <g id="front">
            <g id="right-support" serif:id="right support">
                <g transform="matrix(-1.07172,-1.31248e-16,2.10532e-16,-1.71913,1483.32,5088.13)">
                    <path d="M666.513,1816.38L672.588,1813.96L711.235,1814.8L711.122,1826.54L705.78,1829.4L702.663,1847.73L745.393,1954.09L666.513,1953.5L666.513,1816.38Z" style="fill:rgb(123,123,123);"/>
                </g>
                <g transform="matrix(-1,1.22465e-16,-1.22465e-16,-1,1110.75,3571.42)">
                    <path d="M352.865,1713.29L378.324,1816.34L353.944,1823.61L352.865,1713.29Z" style="fill:rgb(113,113,113);"/>
                </g>
            </g>
            <g id="left-support" serif:id="left support">
                <g id="left-support1" serif:id="left support" transform="matrix(-1.07172,-1.31248e-16,2.10532e-16,-1.71913,1103.32,5088.13)">
                    <path d="M666.513,1822.95L673.758,1819.25L711.528,1820.27L711.707,1831.28L704.609,1832.69L703.249,1851.74L759.372,1957.74L665.811,1957.06L666.513,1822.95Z" style="fill:rgb(123,123,123);"/>
                </g>
                <g transform="matrix(-1,1.22465e-16,-1.22465e-16,-1,730.312,3571.42)">
                    <path d="M353.868,1719.11L389.361,1821.95L354.746,1826.22L353.868,1719.11Z" style="fill:rgb(113,113,113);"/>
                </g>
            </g>
            <path id="front1" serif:id="front" d="M840.606,1413.87L242.264,1419.51L241.569,1718.99L259.314,1723.91L751.236,1730.73L812.092,1726.74L841.092,1715.98L840.606,1413.87ZM681.705,1500.38L580.33,1500.38L580.33,1603.47L681.705,1603.47L681.705,1500.38ZM437.433,1496.38L336.059,1496.38L336.059,1599.47L437.433,1599.47L437.433,1496.38Z" style="fill:rgb(145,145,145);"/>
            <g transform="matrix(1,0,0,1,124.575,-10.4482)">
                <path d="M502.453,1488.05L583.788,1487.46L583.064,1509.36L579.53,1511.61L579.021,1617.81L585.998,1617.74L585.995,1641.83L424.243,1639.29L423.823,1615.89L431.875,1615.81L431.652,1510.19L426.878,1509.88L426.261,1487.68L502.453,1488.05ZM556.8,1511.13L556.271,1612.59L456.618,1612.77L456.486,1511.09L556.8,1511.13Z" style="fill:rgb(91,91,91);"/>
            </g>
            <g transform="matrix(1,0,0,1,-119.912,-13.7185)">
                <path d="M502.453,1488.05L583.788,1487.46L583.064,1509.36L579.53,1511.61L579.021,1617.81L585.998,1617.74L585.995,1641.83L424.243,1639.29L423.823,1615.89L431.875,1615.81L431.652,1510.19L426.878,1509.88L426.261,1487.68L502.453,1488.05ZM556.8,1511.13L556.271,1612.59L456.618,1612.77L456.486,1511.09L556.8,1511.13Z" style="fill:rgb(91,91,91);"/>
            </g>
            <path id="roof1" serif:id="roof" d="M841.783,1248.84L278.898,1252.28L78.176,1406.79L95.561,1403.43L106.126,1416.73L494.71,1423.13L928.779,1417.62L841.783,1248.84Z" style="fill:rgb(132,132,132);"/>
        </g>
    </g>
    <g id="roof2" serif:id="roof" transform="matrix(1,0,0,1,-78.1763,-295.05)">
        <path d="M419.373,683.343L388.831,681.054L351.888,767.443L404.797,734.347L419.373,683.343Z" style="fill:rgb(172,172,172);"/>
        <g transform="matrix(1.37643,0,0,3.44458,-86.9553,-715.988)">
            <path d="M541.375,294.413L586.423,335.273L619.18,363.037L615.652,363.153L626.433,371.537L757.625,462.798L837.175,510.323L836.798,511.693L833.177,512.227L827.01,512.421L826.792,514.219L776.42,506.332L696.799,492.759L552.302,331.754L541.375,294.413Z" style="fill:rgb(69,69,69);"/>
        </g>
        <path d="M659.321,295.05L684.359,397.274L711.767,489.327L799.317,735.781L894.689,955.251L874.395,963.967L872.506,978.005L189.422,987.227L171.878,968.215L243.663,898.538L352.447,766.371L419.391,683.201L556.609,499.13L553.197,493.704L616.364,382.69L659.321,295.05Z" style="fill:rgb(93,93,93);"/>
        <g transform="matrix(1,0,0,1.02681,0,-21.7971)">
            <path d="M941.935,672.028L805.712,674.654L820.242,700.268L834.174,770.814L895.309,876.161L933.384,894.394L934.155,813.932L967.53,813.031L941.935,672.028Z" style="fill:rgb(83,83,83);"/>
        </g>
        <g transform="matrix(1,0,0,1.02681,0,-21.7971)">
            <path d="M924.821,779.473L920.302,766.459L865.16,779.423L838.991,779.011L895.309,876.161L933.384,894.394L934.155,813.932L932.996,804.102L924.821,779.473Z" style="fill:rgb(108,108,108);"/>
        </g>
        <g transform="matrix(1,0,0,1.02681,0,-21.7971)">
            <path d="M941.935,672.028L805.712,674.654L820.242,700.268L834.174,770.814L837.243,781.663L918.409,779.508L941.935,672.028Z" style="fill:rgb(128,128,128);"/>
        </g>
        <g transform="matrix(1.11688,0,0,1,313.264,141.441)">
            <path d="M219.404,500.255L298.509,598.23L299.315,651.006L285.656,705.735L159.749,705.735L157.48,599.887L219.404,500.255Z" style="fill:rgb(108,108,108);"/>
        </g>
        <g transform="matrix(1,0,0,1.57589,79.0316,-426.131)">
            <path d="M526.484,674.899L598.315,744.6L587.615,750.198L567.854,741.18L528.634,717.381L481.396,679.267L438.527,716.527L410.06,741.043L410.676,754.811L371.937,741.2L429.898,696.329L473.062,654.429L526.484,674.899Z" style="fill:rgb(81,81,81);"/>
        </g>
    </g>
    <g id="doors" transform="matrix(1.63208,0,0,1.63208,-2335.1,-858.862)">
        <g id="door-frame" serif:id="door frame" transform="matrix(1.065,-1.49944e-18,1.02841e-17,0.864369,1123.46,-319.184)">
            <path d="M634.782,2396.79L485.486,2396.79L485.486,2415.3L495.114,2415.3L495.114,2625.25L508.96,2625.25L508.96,2415.3L612.247,2415.3L612.58,2625.25L626.309,2625.25L626.309,2415.3L634.782,2415.33L634.782,2396.79Z" style="fill:rgb(61,61,61);"/>
        </g>
        <g id="lantern" transform="matrix(1,0,0,1,-58,-190.75)">
            <path d="M1727.5,1957L1720.25,1950L1712.5,1957L1714,1958L1714,1973L1720,1977.5L1726,1973L1726,1958L1727.5,1957Z" style="fill:rgb(23,23,23);"/>
            <path d="M1726,1958L1714,1958L1714,1973L1720,1977.5L1726,1973L1726,1958Z" style="fill:rgb(122,122,122);"/>
            <g transform="matrix(0.928571,0,0,1,122.714,0)">
                <rect x="1718" y="1961" width="7" height="10.5" style="fill:rgb(199,199,199);"/>
            </g>
            <g transform="matrix(0.8,0,0,1.09524,343.3,-187.762)">
                <path d="M1716.5,1961.91L1714,1961L1714,1971.04L1716.5,1971.5L1716.5,1961.91Z" style="fill:rgb(199,199,199);"/>
            </g>
        </g>
        <g id="lantern1" serif:id="lantern" transform="matrix(1,0,0,1,68,-190.75)">
            <path d="M1727.5,1957L1720.25,1950L1712.5,1957L1714,1958L1714,1973L1720,1977.5L1726,1973L1726,1958L1727.5,1957Z" style="fill:rgb(23,23,23);"/>
            <path d="M1726,1958L1714,1958L1714,1973L1720,1977.5L1726,1973L1726,1958Z" style="fill:rgb(122,122,122);"/>
            <g transform="matrix(0.928571,0,0,1,122.714,0)">
                <rect x="1718" y="1961" width="7" height="10.5" style="fill:rgb(199,199,199);"/>
            </g>
            <g transform="matrix(0.8,0,0,1.09524,343.3,-187.762)">
                <path d="M1716.5,1961.91L1714,1961L1714,1971.04L1716.5,1971.5L1716.5,1961.91Z" style="fill:rgb(199,199,199);"/>
            </g>
        </g>
    </g>
</svg>
