<?xml version="1.0" encoding="UTF-8" standalone="no"?>
<!DOCTYPE svg PUBLIC "-//W3C//DTD SVG 1.1//EN" "http://www.w3.org/Graphics/SVG/1.1/DTD/svg11.dtd">
<svg width="100%" height="100%" viewBox="0 0 1100 1100" version="1.1" xmlns="http://www.w3.org/2000/svg" xmlns:xlink="http://www.w3.org/1999/xlink" xml:space="preserve" xmlns:serif="http://www.serif.com/" style="fill-rule:evenodd;clip-rule:evenodd;stroke-linejoin:round;stroke-miterlimit:2;">
    <g id="BAT-frame-4" serif:id="BAT frame 4" transform="matrix(0.500147,0,0,0.500147,-140.424,-233.949)">
        <g id="wings">
            <g id="wings-base" serif:id="wings base" transform="matrix(1,0,0,1,-50,140)">
                <path d="M1500,1545.45L1260,1480L1170,1200L1100,1020L890,890L660,830L500,880L440,1060L560.307,1160L590,1260L640,1340L640,1620L710,1610L880,1680L1040,1880L1313.61,1930L1500,1545.45Z" style="fill:rgb(65,65,65);"/>
            </g>
            <g id="wings-base1" serif:id="wings base" transform="matrix(1,0,0,1,-50,140)">
                <path d="M1313.61,1930L1470,2000L1606.36,1948.7L1790,1960L1910,2000L1990,2069.22L2130,2160L2170,2040L2210,2000L2260,2040L2310,1960L2390,1931.3L2450,1960L2500,1880L2530,1700L2430,1553.89L2290,1480L1990,1400L1845,1500L1760,1580L1700,1600L1500,1545.45L1313.61,1930Z" style="fill:rgb(65,65,65);"/>
            </g>
            <g transform="matrix(1,0,0,1,-50,140)">
                <path d="M1500,1545.45L1260,1480L1130,1340L1170,1200L1130,1060L1120,1020L890,890L790,850L660,830L790,870L910,916.364L1050,992.727L890,930L790,890L640,860L510,870L640,870L800,910L970,970L1050,1010L860,1010L570,1070L550,1090L660,1060L740,1040L870,1030L1040,1030L950,1080L830,1170L680,1330L830,1180L960,1090L1070,1050L1110,1080L1130,1150L1130,1200L1100,1370L1130,1374.7L1260,1520L1473.23,1600.68L1500,1545.45Z" style="fill:rgb(138,101,112);"/>
            </g>
            <g transform="matrix(1,0,0,1,-50,140)">
                <path d="M1473.23,1600.68L1630,1660L1710,1640L1870,1580L1910,1480L2010,1450.89L2130,1640L2210,1880L2150,1640L2070,1480L2210,1600L2390,1800L2210,1580L2050,1450.89L2270,1520L2390,1591.41L2530,1700L2430,1600L2290,1520L2070,1440L2290,1500L2430,1553.89L2290,1480L2050,1416.55L1990,1400L1959.58,1440L1900,1470L1830,1567.74L1700,1600L1500,1545.45L1473.23,1600.68Z" style="fill:rgb(138,101,112);"/>
            </g>
        </g>
        <g>
            <g transform="matrix(0.977861,0.209254,-0.209254,0.977861,471.47,-152.359)">
                <path d="M997.25,1995.87L934.633,2059.49L880,2160L940,2100L940,2160L971.198,2100L1020,2168.9L996.573,2060L1013.87,2013.79L997.25,1995.87Z" style="fill:rgb(138,101,112);"/>
            </g>
            <g transform="matrix(0.998202,-0.0599364,0.0599364,0.998202,225.866,193.014)">
                <path d="M997.25,1995.87L934.633,2059.49L880,2160L940,2100L940,2160L971.198,2100L1020,2168.9L996.573,2060L1013.87,2013.79L997.25,1995.87Z" style="fill:rgb(138,101,112);"/>
            </g>
            <g id="body" transform="matrix(0.957626,0.288014,-0.288014,0.957626,1063.4,-476.612)">
                <path d="M1168.27,1942.98L787.368,2004.79L717.526,2119.78L655.574,2377.06L688.694,2458.88L736.579,2495.3L858.632,2510.63L993.111,2499.35L1066.86,2448L1134.26,2324.87L1191.75,2107.59L1204.38,2003.88L1168.27,1942.98Z" style="fill:rgb(85,85,85);"/>
            </g>
        </g>
        <g id="head">
            <path d="M1580,1553.05L1466.98,1620L1291.85,1580L1214.28,1700L1214.28,1740L1270,1790L1350,1830L1430,1989.47L1537,1950.27L1611.93,1780L1641.23,1747.75L1650.62,1720L1580,1553.05Z" style="fill:rgb(45,45,45);"/>
            <g id="morda" transform="matrix(-1.82999,0.072024,-0.0422074,-1.07241,4231.33,3647.48)">
                <path d="M1453.47,1693.91L1485.57,1723.39L1496.79,1771.23L1489.18,1804.1L1491.68,1832.24L1494.94,1851.11L1514.79,1878.08L1522.21,1936.86L1496.87,1944.48L1462.15,1914.18L1448.26,1919.49L1425.3,1932.9L1412.17,1908.17L1411.07,1873.45L1422.5,1851.96L1433.75,1716.45L1453.47,1693.91Z" style="fill:rgb(153,153,153);"/>
            </g>
            <path d="M1398,1859L1417,1866L1427,1887L1447.31,1903.48L1480,1922.05L1489.75,1920L1503.2,1922.05L1523.5,1910L1534,1896L1539.5,1886.5L1537,1874L1530,1870L1523.5,1855L1507.89,1833L1539,1811L1534,1800.01L1529,1795L1518,1803.9L1497,1806L1479,1800L1445,1816L1422,1841L1398,1859Z" style="fill:rgb(157,102,123);"/>
            <g id="mouth">
                <path d="M1428,1841L1428,1869L1449,1900L1480.93,1912.77L1497.18,1912.77L1517.49,1903.48L1523.5,1855L1511,1835L1528.83,1817L1531,1807L1525,1805L1510,1817L1495,1816L1487,1810L1478,1808L1468,1812L1428,1841Z" style="fill:rgb(58,0,18);"/>
                <path d="M1445,1842L1440,1870L1447.31,1903.48L1480.93,1912.77L1497.18,1912.77L1517.49,1903.48L1534,1896L1539.5,1886.5L1537,1874L1530,1870L1523.5,1855L1513.75,1840L1445,1842Z" style="fill:rgb(54,0,0);"/>
                <path id="tongue" d="M1486,1857L1455,1859L1474,1887L1490,1895L1503,1891L1513,1881L1494,1860.27L1486,1857Z" style="fill:rgb(89,4,24);"/>
                <g id="Teeth-Mid" serif:id="Teeth Mid">
                    <g id="teeth" transform="matrix(-0.340104,-0.0777558,-0.0477285,0.208765,2109.44,1595.28)">
                        <path d="M1468.66,1819.59L1468.07,1853.76L1470,1875L1465.86,1881.05L1460,1875L1458.07,1848.59L1468.66,1819.59Z" style="fill:rgb(229,229,229);"/>
                    </g>
                    <g id="teeth1" serif:id="teeth" transform="matrix(-0.340104,-0.0777558,-0.0477285,0.208765,2105.94,1588.28)">
                        <path d="M1468.66,1819.59L1468.07,1853.76L1470,1875L1465.86,1881.05L1460,1875L1458.07,1848.59L1468.66,1819.59Z" style="fill:rgb(229,229,229);"/>
                    </g>
                    <g id="teeth2" serif:id="teeth" transform="matrix(-0.340104,-0.0777558,-0.0477285,0.208765,2101.28,1582.23)">
                        <path d="M1468.66,1819.59L1468.07,1853.76L1470,1875L1465.86,1881.05L1460,1875L1458.07,1848.59L1468.66,1819.59Z" style="fill:rgb(229,229,229);"/>
                    </g>
                    <g id="teeth3" serif:id="teeth" transform="matrix(-0.340104,-0.0777558,-0.0359574,0.157278,2074.37,1673.07)">
                        <path d="M1468.66,1819.59L1468.07,1853.76L1470,1875L1465.86,1881.05L1460,1875L1458.07,1848.59L1468.66,1819.59Z" style="fill:rgb(229,229,229);"/>
                    </g>
                </g>
                <g id="Teeth-lower" serif:id="Teeth lower">
                    <g id="teeth4" serif:id="teeth" transform="matrix(-0.490382,-0.0354969,-0.0292015,0.403412,2306.61,1182.09)">
                        <path d="M1468.66,1819.59L1468.07,1853.76L1470,1875L1465.86,1881.05L1460,1875L1458.07,1848.59L1468.66,1819.59Z" style="fill:rgb(237,237,237);"/>
                    </g>
                    <g transform="matrix(0.790221,-0.00433714,0.00548844,0.999985,345.443,-5.88791)">
                        <path d="M1481.14,1890.56L1485.05,1896.76L1487,1904L1478.51,1905.77L1480.16,1896.52L1481.14,1890.56Z" style="fill:rgb(237,237,237);"/>
                    </g>
                    <g transform="matrix(0.63136,-0.00346524,0.00548844,0.999985,573.518,-4.01033)">
                        <path d="M1481.14,1890.56L1485.05,1896.76L1487,1904L1478.51,1905.77L1480.16,1896.52L1481.14,1890.56Z" style="fill:rgb(237,237,237);"/>
                    </g>
                    <g transform="matrix(0.994861,0.10125,-0.10125,0.994861,229.044,-146.245)">
                        <path d="M1481.14,1890.56L1485.05,1896.76L1487,1904L1478.51,1905.77L1480.16,1896.52L1481.14,1890.56Z" style="fill:rgb(237,237,237);"/>
                    </g>
                    <g transform="matrix(-0.923726,0.383054,0.383054,0.923726,2142.47,-425.547)">
                        <path d="M1478.3,1891.56L1484.9,1899.64L1487.12,1906.3L1481.73,1906.37L1480.74,1901.37L1478.3,1891.56Z" style="fill:rgb(237,237,237);"/>
                    </g>
                    <g transform="matrix(-0.923726,0.383054,0.383054,0.923726,2134.47,-422.615)">
                        <path d="M1478.3,1891.56L1484.9,1899.64L1487.12,1906.3L1481.73,1906.37L1480.74,1901.37L1478.3,1891.56Z" style="fill:rgb(237,237,237);"/>
                    </g>
                    <g transform="matrix(0.965474,0.260498,-0.260498,0.965474,545.984,-317.624)">
                        <path d="M1481.14,1890.56L1485.05,1896.76L1487,1904L1478.51,1905.77L1480.16,1896.52L1481.14,1890.56Z" style="fill:rgb(237,237,237);"/>
                    </g>
                    <g transform="matrix(0.952652,0.59529,-0.542211,0.867709,1088.71,-631.168)">
                        <path d="M1479.81,1890.32L1485.05,1896.76L1487,1904L1478.51,1905.77L1480.05,1897.65L1479.81,1890.32Z" style="fill:rgb(237,237,237);"/>
                    </g>
                    <g id="teeth5" serif:id="teeth" transform="matrix(-0.580991,-0.351619,-0.212204,0.350632,2703.67,1755.14)">
                        <path d="M1468.66,1819.59L1468.07,1853.76L1473.47,1873.66L1468.89,1886.18L1460.08,1877.34L1458.62,1853.06L1468.66,1819.59Z" style="fill:rgb(237,237,237);"/>
                    </g>
                    <g id="teeth6" serif:id="teeth" transform="matrix(-0.324343,-0.196294,-0.132812,0.21945,2173.44,1753.7)">
                        <path d="M1468.66,1819.59L1468.07,1853.76L1473.47,1873.66L1468.89,1886.18L1460.08,1877.34L1458.62,1853.06L1468.66,1819.59Z" style="fill:rgb(237,237,237);"/>
                    </g>
                    <g id="teeth7" serif:id="teeth" transform="matrix(-0.324343,-0.196294,-0.0872647,0.14419,2085.6,1884.87)">
                        <path d="M1474.62,1814.23L1469.13,1851.83L1470.68,1874.74L1465.45,1888.43L1460.08,1877.34L1461.33,1841.2L1474.62,1814.23Z" style="fill:rgb(237,237,237);"/>
                    </g>
                </g>
                <g id="teeth-upper" serif:id="teeth upper">
                    <g id="teeth8" serif:id="teeth" transform="matrix(-0.993741,0.111707,-0.111707,-0.993741,3197.72,3509.43)">
                        <path d="M1468.66,1819.59L1468.07,1853.76L1470,1875L1465.86,1881.05L1460,1875L1458.07,1848.59L1468.66,1819.59Z" style="fill:rgb(237,237,237);"/>
                    </g>
                    <g id="teeth9" serif:id="teeth" transform="matrix(-0.659852,-0.00280618,0.00246793,-0.580316,2485.02,2912.06)">
                        <path d="M1468.66,1819.59L1468.07,1853.76L1470,1875L1465.86,1881.05L1460,1875L1458.07,1848.59L1468.66,1819.59Z" style="fill:rgb(237,237,237);"/>
                    </g>
                    <g id="teeth10" serif:id="teeth" transform="matrix(-0.497121,-0.00211412,0.0020053,-0.471532,2240.01,2709.59)">
                        <path d="M1468.66,1819.59L1468.07,1853.76L1470,1875L1465.86,1881.05L1460,1875L1458.07,1848.59L1468.66,1819.59Z" style="fill:rgb(237,237,237);"/>
                    </g>
                    <g id="teeth11" serif:id="teeth" transform="matrix(-0.497121,-0.00211412,0.00151935,-0.357264,2234.92,2497.13)">
                        <path d="M1468.66,1819.59L1468.07,1853.76L1470,1875L1465.86,1881.05L1460,1875L1458.07,1848.59L1468.66,1819.59Z" style="fill:rgb(237,237,237);"/>
                    </g>
                    <g id="teeth12" serif:id="teeth" transform="matrix(0.497121,-0.00211412,-0.00151935,-0.357264,778.297,2497.18)">
                        <path d="M1468.66,1819.59L1468.07,1853.76L1470,1875L1465.86,1881.05L1460,1875L1458.07,1848.59L1468.66,1819.59Z" style="fill:rgb(237,237,237);"/>
                    </g>
                    <g id="teeth13" serif:id="teeth" transform="matrix(0.497121,-0.00211412,-0.0020053,-0.471532,773.317,2710.1)">
                        <path d="M1468.66,1819.59L1468.07,1853.76L1470,1875L1465.86,1881.05L1460,1875L1458.07,1848.59L1468.66,1819.59Z" style="fill:rgb(237,237,237);"/>
                    </g>
                    <g id="teeth14" serif:id="teeth" transform="matrix(-0.441393,0.0553988,-0.0631321,-0.503009,2252.87,2679.93)">
                        <path d="M1468.51,1806.72L1470.86,1853.7L1472.37,1882.69L1465.86,1881.05L1460,1875L1459.57,1845.5L1460.28,1824.7L1465.73,1802.44L1468.51,1806.72Z" style="fill:rgb(237,237,237);"/>
                    </g>
                    <g id="teeth15" serif:id="teeth" transform="matrix(-0.441393,0.0553988,-0.0631321,-0.503009,2245.25,2679.44)">
                        <path d="M1468.22,1824.58L1470.86,1853.7L1478.08,1882.39L1463.73,1887.7L1460,1875L1459.57,1845.5L1459.19,1824.37L1466,1808.43L1468.22,1824.58Z" style="fill:rgb(237,237,237);"/>
                    </g>
                    <g id="teeth16" serif:id="teeth" transform="matrix(-0.99644,-0.0843069,0.0843069,-0.99644,2769.03,3811.93)">
                        <path d="M1468.66,1819.59L1468.07,1853.76L1470,1875L1465.86,1881.05L1460,1875L1458.07,1848.59L1468.66,1819.59Z" style="fill:rgb(237,237,237);"/>
                    </g>
                </g>
            </g>
            <g id="Eye-left" serif:id="Eye left" transform="matrix(1,0,0,1,107.5,-8)">
                <g transform="matrix(-1.34615,0,0,1.20833,3359.19,-365.625)">
                    <path d="M1439.8,1738.45L1417.51,1729.35L1424.2,1743.41L1432.01,1754.17L1446.49,1755L1452.43,1756.65L1447.57,1747.97L1439.8,1738.45Z" style="fill:rgb(54,0,0);"/>
                </g>
                <g transform="matrix(-1,0,0,1,2860,0)">
                    <path d="M1438,1741L1432,1735L1422,1735L1423.5,1743.5L1428.5,1751.5L1434.5,1751L1438,1741Z" style="fill:rgb(115,0,0);"/>
                </g>
            </g>
            <g id="Eye-right" serif:id="Eye right">
                <g transform="matrix(1.34615,0,0,1.20833,-500.192,-365.625)">
                    <path d="M1439.8,1738.45L1414.54,1728.52L1424.2,1743.41L1432.01,1754.17L1446.49,1755L1452.43,1756.65L1447.57,1747.97L1439.8,1738.45Z" style="fill:rgb(54,0,0);"/>
                </g>
                <path d="M1438,1741L1432,1735L1422,1735L1423.5,1743.5L1428.5,1751.5L1434.5,1751L1438,1741Z" style="fill:rgb(115,0,0);"/>
            </g>
            <g id="Nose">
                <path d="M1516,1710L1509,1725L1492,1711L1490,1725L1478,1743L1478,1760L1481,1771L1488,1781L1493,1787L1500,1793L1509,1791L1517,1788L1522,1790L1527,1788L1537,1766L1535,1747L1528,1731L1516,1710Z" style="fill:rgb(128,93,93);"/>
                <g transform="matrix(0.694915,0,0,0.46988,463.415,928.506)">
                    <path d="M1522.61,1707.87L1513.98,1715.32L1510.38,1744.05L1507.5,1744.05L1502.46,1720.64L1492,1711L1485.19,1721.7L1475.84,1739.8L1474.4,1758.95L1478,1772.78L1481.6,1783.42L1490.23,1788.74L1498.15,1788.74L1501.02,1774.91L1503.9,1769.59L1508.22,1773.85L1513.98,1789.81L1522.61,1788L1531.24,1785.55L1534.84,1766.4L1535,1747L1529.81,1728.09L1522.61,1707.87Z" style="fill:rgb(74,26,26);"/>
                </g>
                <g transform="matrix(-1,0,0,1,3003,0)">
                    <path d="M1506,1741.5L1497,1741.5L1497,1746.5L1495.5,1750.5L1496,1759L1503.5,1748L1510,1746.5L1506,1741.5Z" style="fill:rgb(146,51,51);"/>
                </g>
                <g transform="matrix(-0.516147,-0.399115,-0.58122,0.75165,3310.69,1034.07)">
                    <path d="M1506,1741.5L1497,1741.5L1497,1746.5L1495.5,1750.5L1496,1759L1503.5,1748L1510,1746.5L1506,1741.5Z" style="fill:rgb(146,51,51);"/>
                </g>
            </g>
            <path d="M1582.82,1450L1595,1485L1610,1500L1620,1525L1630,1565L1638,1609L1638.36,1631L1628,1658L1628,1670L1640,1695.82L1644.52,1706.99L1640,1730L1575,1706.99L1562,1679L1556,1631L1568.74,1497.28L1575,1470L1582.82,1450Z" style="fill:rgb(153,153,153);"/>
            <g transform="matrix(0.773271,0,0,0.95,362.826,79.5)">
                <path d="M1576.65,1453.16L1588.29,1483.68L1610,1500L1620,1525L1630,1565L1638,1609L1638.36,1631L1628,1658L1628,1670L1640,1695.82L1644.52,1706.99L1645.19,1728.95L1575.35,1710L1559.84,1682.63L1552.08,1632.11L1563.72,1504.74L1568.82,1473.16L1576.65,1453.16Z" style="fill:rgb(153,94,110);"/>
            </g>
            <g transform="matrix(0.773271,0,0,0.95,362.826,79.5)">
                <path d="M1580.05,1474.21L1584.41,1505.79L1598.26,1517.12L1600.26,1558.42L1608.26,1602.42L1608.62,1624.42L1598.26,1651.42L1616.23,1695.26L1608.62,1716.32L1584.41,1710L1568.89,1682.63L1561.13,1632.11L1568.89,1522.83L1580.05,1474.21Z" style="fill:rgb(80,49,58);"/>
            </g>
            <g id="Ear-right" serif:id="Ear right">
                <g transform="matrix(1.45455,0,0,1.01815,-563.636,-86.3134)">
                    <path d="M1271.62,1505L1287.44,1530.54L1298.44,1555.28L1301.88,1587.51L1319.06,1646.43L1332.81,1700.45L1319.06,1720.1L1291.56,1743.44L1281.25,1739.74L1240.34,1796.22L1233.12,1793.76L1228.31,1779.03L1229.69,1759.39L1238.14,1743.44L1229.69,1715.19L1229.69,1680.81L1234.5,1638.58L1248.25,1573.75L1271.62,1505Z" style="fill:rgb(153,153,153);"/>
                </g>
                <g transform="matrix(1.32057,0,0,0.92437,-392.078,68.4753)">
                    <path d="M1271.62,1505L1287.44,1530.54L1298.44,1555.28L1301.88,1587.51L1319.06,1646.43L1334.33,1705.51L1320.58,1725.15L1293.08,1748.49L1278.98,1744.8L1238.07,1801.27L1234.24,1803.18L1229.43,1788.45L1230.8,1768.8L1239.25,1752.85L1230.8,1724.61L1229.69,1680.81L1234.5,1638.58L1248.25,1573.75L1271.62,1505Z" style="fill:rgb(153,94,110);"/>
                </g>
                <g transform="matrix(1.32057,0,0,0.92437,-392.078,68.4753)">
                    <path d="M1271.06,1516.19L1283.45,1534.88L1295.02,1559.47L1296.46,1591.92L1316.97,1648.34L1326.76,1705.24L1319.18,1719.58L1291.68,1742.91L1277.58,1739.22L1277.53,1678.47L1266.17,1618.97L1271.06,1516.19Z" style="fill:rgb(80,49,58);"/>
                </g>
            </g>
        </g>
    </g>
</svg>
